<?xml version="1.0" encoding="iso-8859-1"?>
<!-- Generator: Adobe Illustrator 19.0.0, SVG Export Plug-In . SVG Version: 6.00 Build 0)  -->
<svg version="1.1" id="Capa_1" xmlns="http://www.w3.org/2000/svg" xmlns:xlink="http://www.w3.org/1999/xlink" x="0px" y="0px"
	 viewBox="0 0 512 512" style="enable-background:new 0 0 512 512;" xml:space="preserve">
<path style="fill:#A6A6A6;" d="M511.643,139.239l-14.681,33.664c-0.212,0.487-0.331,1-0.35,1.532
	c-0.386,10.78-5.106,128.472-28.122,161.232C436.159,360.105,256.004,398,256.004,398s-180.158-37.895-212.49-62.333
	C20.649,302.902,15.791,185.18,15.393,174.43c-0.02-0.528-0.137-1.039-0.348-1.523l-14.69-33.776
	c-1.153-2.651,0.633-5.658,3.489-5.876L256.004,114l252.154,19.36C511.015,133.579,512.799,136.589,511.643,139.239z"/>
<path style="fill:#8C8C8C;" d="M508.158,133.36l-31.414-2.412l-9.914,26.862c-0.212,0.575-0.331,1.182-0.35,1.81
	c-0.385,12.713-5.089,151.262-27.99,190.283c13.526-4.982,24.169-9.828,30.001-14.237c23.016-32.76,27.736-150.452,28.122-161.232
	c0.019-0.531,0.138-1.045,0.35-1.532l14.681-33.664C512.799,136.589,511.015,133.579,508.158,133.36z"/>
<g>
	<path style="fill:#CCCCCC;" d="M256.004,398c0,0-180.157-37.895-212.489-62.333C20.649,302.902,15.791,185.18,15.393,174.43
		c-0.02-0.528-0.137-1.039-0.348-1.523l-14.69-33.776c-1.153-2.651,0.633-5.658,3.489-5.876L256.004,114V398z"/>
	<path style="fill:#CCCCCC;" d="M443.906,160.999c1.207,0,2.14,1.062,1.983,2.259l-1.754,13.423l-0.052,0.401l-0.979,7.182
		c-0.144,2.079-0.144,4.054-0.288,6.133c-0.021,0.71-0.041,1.41-0.072,2.12c-0.165,4.363-0.412,8.777-0.659,13.12
		c-1.04,15.424-2.493,30.561-4.409,44.637c-0.35,2.675-0.732,5.31-1.123,7.903c-0.227,1.543-0.464,3.066-0.7,4.589
		c-1.04,6.483-2.153,12.677-3.348,18.439c-0.288,1.43-0.577,2.819-0.886,4.198c-1.71,7.769-3.564,14.725-5.553,20.6
		c-0.237,0.7-0.474,1.399-0.711,2.068c-0.093,0.288-0.196,0.576-0.299,0.844c-0.34,0.936-0.68,1.852-1.04,2.717
		c-0.206,0.504-0.392,0.988-0.598,1.461c-0.165,0.442-0.371,0.875-0.556,1.286c-23.189,11.092-100.237,31.929-166.848,46.716h-0.01
		c-31.256-6.946-61.924-14.426-88.637-21.64c-22.406-6.04-41.815-11.751-56.505-16.772c-0.896-0.298-1.782-0.607-2.637-0.906
		c-8.066-2.789-14.67-5.32-19.079-7.481c-0.865-1.893-1.607-3.962-2.493-6.225c-0.093-0.268-0.185-0.545-0.278-0.823
		c-1.216-3.673-2.462-7.81-3.678-12.338c-0.814-3.108-1.597-6.4-2.359-9.858c-1.154-5.176-2.246-10.712-3.245-16.526
		c-0.484-2.768-0.948-5.587-1.381-8.469c-0.196-1.317-0.391-2.645-0.587-3.972c-0.278-1.914-0.546-3.848-0.803-5.814
		c-1.463-11.092-2.782-22.905-3.667-35.078c-0.577-6.308-0.865-12.718-1.319-19.118l-0.443-11.895l-3.07-23.265l190.192,0.082
		h187.891V160.999z"/>
</g>
<g>
	<path style="fill:#2C44BF;" d="M444.083,177.082l-0.979,7.182c-0.144,2.079-0.144,4.054-0.288,6.133
		c-0.021,0.71-0.041,1.41-0.072,2.12h-99.176v-15.435H444.083z"/>
	<rect x="251.19" y="218.75" style="fill:#2C44BF;" width="97.74" height="15.435"/>
	<rect x="162.19" y="263" style="fill:#2C44BF;" width="96.69" height="15.435"/>
	<path style="fill:#2C44BF;" d="M173.032,307.249v15.435H110.86c-0.896-0.298-1.782-0.607-2.637-0.906
		c-7.45-2.576-13.653-4.932-18.031-6.979c-0.668-0.312-1.209-0.844-1.497-1.523c-0.777-1.832-1.488-3.82-2.352-5.982
		c0.014-0.022,0.015-0.023,0.029-0.045L173.032,307.249z"/>
</g>
<g>
	<path style="fill:#E82934;" d="M167.366,250.273v44.637H82.692c-3.228-12.444-6.162-27.774-8.364-44.637L167.366,250.273
		L167.366,250.273z"/>
	<path style="fill:#E82934;" d="M256.003,294.91v66.188c-31.257-6.943-61.927-14.428-88.636-21.642V294.91H256.003z"/>
</g>
<path style="fill:#F3DB53;" d="M437.679,250.272c-0.359,2.676-0.734,5.309-1.127,7.901c-0.222,1.553-0.461,3.085-0.7,4.596
	c-1.042,6.485-2.152,12.675-3.347,18.436c-0.307,1.427-0.598,2.823-0.905,4.197c-0.273,1.207-0.547,2.392-0.82,3.557
	c-1.537,6.306-3.074,12.067-4.713,17.04c-0.239,0.703-0.478,1.406-0.717,2.078c-0.085,0.283-0.188,0.567-0.291,0.839
	c-0.307,0.934-0.666,1.847-1.007,2.718c-0.205,0.493-0.41,0.986-0.632,1.459c-0.028,0.073-0.058,0.146-0.088,0.218
	c-0.289,0.699-0.843,1.251-1.53,1.566c-24.391,11.207-100.157,31.652-165.793,46.22V250.272H437.679z"/>
<path style="fill:#202738;" d="M431.617,285.402c-1.708,7.775-3.569,14.722-5.55,20.597c-0.239,0.703-0.478,1.406-0.717,2.078
	c-0.085,0.283-0.188,0.567-0.291,0.839c-0.307,0.934-0.666,1.847-1.007,2.718H256.01v-26.232H431.617z"/>
<path style="fill:#F3DB53;" d="M256.01,160.999v89.273H74.325c-1.332-10.01-2.527-20.608-3.398-31.521
	c-0.103-1.186-0.188-2.371-0.273-3.557c-0.581-6.306-0.871-12.717-1.315-19.118l-0.137-3.557l-0.307-8.342l-2.775-21
	c-0.158-1.199,0.775-2.263,1.984-2.262L256.01,160.999z"/>
<path style="fill:#E82934;" d="M442.078,205.636c-1.026,15.42-2.494,30.569-4.401,44.637h-90.838v-44.637L442.078,205.636
	L442.078,205.636z"/>
<path style="fill:#202738;" d="M256.01,192.519v26.232H70.927c-0.103-1.186-0.188-2.371-0.273-3.557
	c-0.581-6.306-0.871-12.717-1.315-19.118l-0.137-3.557L256.01,192.519L256.01,192.519z"/>
<rect x="256" y="161" style="fill:#E82934;" width="90.84" height="44.592"/>
<g>
</g>
<g>
</g>
<g>
</g>
<g>
</g>
<g>
</g>
<g>
</g>
<g>
</g>
<g>
</g>
<g>
</g>
<g>
</g>
<g>
</g>
<g>
</g>
<g>
</g>
<g>
</g>
<g>
</g>
</svg>
