<?xml version="1.0" encoding="iso-8859-1"?>
<!-- Generator: Adobe Illustrator 19.0.0, SVG Export Plug-In . SVG Version: 6.00 Build 0)  -->
<svg version="1.1" id="Capa_1" xmlns="http://www.w3.org/2000/svg" xmlns:xlink="http://www.w3.org/1999/xlink" x="0px" y="0px"
	 viewBox="0 0 512 512" style="enable-background:new 0 0 512 512;" xml:space="preserve">
<path style="fill:#E82934;" d="M491.033,181.478l-13.085,8.262c-56.126,35.407-124.093,30.236-178.286-8.087l-90.588-64.056
	c-3.199-2.266-9.824-1.391-14.495,3.307c-4.67,4.687-5.154,11.219-0.123,14.958l282.412,209.682
	c0.072,0.062,0.113,0.093,0.113,0.093c2.16,1.607,2.15,4.656,0.37,6.315c-0.154,0.144-0.329,0.278-0.504,0.402
	c-0.093,0.062-0.185,0.124-0.288,0.175c-0.185,0.103-0.401,0.196-0.617,0.278c-2.51,0.927-5.01,1.885-7.499,2.874
	c-0.154,0.062-0.298,0.113-0.453,0.175c-2.201,0.865-4.393,1.762-6.563,2.679c-0.144,0.062-0.278,0.113-0.422,0.175
	c-106.708,44.936-191.268,139.949-204.57,152.723c-0.73,0.69-1.841,0.762-2.644,0.155L30.746,344.431l-5.226-3.914
	c-0.206-0.154-0.37-0.34-0.504-0.546c-0.298-0.464-0.391-1.02-0.278-1.545c0.041-0.216,0.123-0.422,0.237-0.618
	c0.123-0.196,0.267-0.381,0.453-0.535l0.751-0.629c51.652-43.504,123.775-42.979,178.677-3.688l82.914,59.348
	c4.084,2.926,10.534,5.161,15.77-1.566c5.226-6.727,4.259-15.103-1.039-19.058L21.653,162.214c-2.345-1.751-2.16-5.316,0.339-6.83
	C155.498,74.711,230.831,9.594,241.118,0.518c0.72-0.639,1.78-0.69,2.551-0.134l247.467,177.664
	C492.329,178.902,492.278,180.695,491.033,181.478z"/>
<g>
	<path style="fill:#C7232C;" d="M289.172,406.406c-6.172,5.666-18.982-1.994-23.066-4.919l-70.498-50.453
		c-50.16-35.912-114.691-39.445-164.861-6.604l-5.226-3.914c-0.206-0.154-0.37-0.34-0.504-0.546
		c-0.298-0.464-0.391-1.02-0.278-1.545c0.051-0.216,0.123-0.422,0.237-0.618c0.123-0.196,0.267-0.381,0.453-0.535l0.751-0.629
		c51.652-43.504,123.775-42.979,178.677-3.688l82.914,59.348c4.084,2.926,10.534,5.161,15.77-1.566
		C303.54,390.737,293.344,402.577,289.172,406.406z"/>
	<path style="fill:#C7232C;" d="M491.14,178.047L243.673,0.388c-0.777-0.558-1.833-0.505-2.551,0.128
		c-2.029,1.79-6.598,5.767-13.628,11.601c2.294,2.042,4.6,4.138,6.929,6.342l240.865,172.919c0.889-0.537,1.775-1.084,2.658-1.641
		l13.092-8.26C492.276,180.695,492.329,178.901,491.14,178.047z"/>
	<path style="fill:#C7232C;" d="M477.351,351.951c-0.154,0.144-0.329,0.278-0.504,0.402c-0.093,0.062-0.185,0.124-0.288,0.175
		c-0.185,0.113-0.401,0.206-0.617,0.288c-0.413,0.153-0.824,0.31-1.237,0.464c-2.093,0.783-4.183,1.574-6.262,2.4
		c-0.154,0.062-0.298,0.113-0.453,0.175c-2.201,0.876-4.382,1.762-6.563,2.679c-0.144,0.062-0.278,0.113-0.422,0.175
		L185.207,153.931c-8.585-8.597,6.717-32.512,9.372-33.027c-4.67,4.687-5.154,11.219-0.123,14.958l282.412,209.682
		c0.072,0.062,0.113,0.093,0.113,0.093C479.141,347.243,479.131,350.293,477.351,351.951z"/>
</g>
<g>
</g>
<g>
</g>
<g>
</g>
<g>
</g>
<g>
</g>
<g>
</g>
<g>
</g>
<g>
</g>
<g>
</g>
<g>
</g>
<g>
</g>
<g>
</g>
<g>
</g>
<g>
</g>
<g>
</g>
</svg>
