<?xml version="1.0" encoding="iso-8859-1"?>
<!-- Generator: Adobe Illustrator 19.0.0, SVG Export Plug-In . SVG Version: 6.00 Build 0)  -->
<svg version="1.1" id="Capa_1" xmlns="http://www.w3.org/2000/svg" xmlns:xlink="http://www.w3.org/1999/xlink" x="0px" y="0px"
	 viewBox="0 0 512 512" style="enable-background:new 0 0 512 512;" xml:space="preserve">
<path style="fill:#3E5594;" d="M256,0C114.669,0,0,114.599,0,255.955C0,397.402,114.669,512,256,512s256-114.598,256-256.045
	C512,114.599,397.331,0,256,0z"/>
<path style="fill:#2D3E6C;" d="M256,0c-3.625,0-7.228,0.094-10.817,0.244C381.5,5.916,490.366,118.225,490.366,255.955
	c0,137.818-108.866,250.129-245.183,255.801c3.589,0.15,7.192,0.244,10.817,0.244c141.331,0,256-114.598,256-256.045
	C512,114.599,397.331,0,256,0z"/>
<path style="fill:#FFFFFF;" d="M255.998,475.963c-121.275,0-219.938-98.68-219.938-219.976S134.723,36.006,255.998,36.006
	S475.94,134.691,475.94,255.987S377.273,475.963,255.998,475.963z"/>
<g>
	<path style="fill:#2D3E6C;" d="M205.016,80.749c-0.555-1.228,0.109-2.674,1.407-3.034C222.203,73.337,238.827,71,256.002,71
		c17.148,0,33.758,2.333,49.52,6.702c1.298,0.36,1.962,1.805,1.408,3.033l-48.921,108.44c-0.78,1.728-3.234,1.729-4.015,0.001
		L205.016,80.749z"/>
	<path style="fill:#2D3E6C;" d="M357.431,101.258c18.247,11.985,34.242,27.108,47.226,44.6c0.478,0.644,0.566,1.5,0.236,2.231
		l-82.941,183.54c-0.752,1.664-3.087,1.743-3.949,0.132l-30.189-56.395c-0.383-0.716-1.13-1.163-1.942-1.163h-59.738
		c-0.812,0-1.558,0.447-1.942,1.163l-30.187,56.391c-0.862,1.611-3.198,1.532-3.949-0.134l-82.819-183.708
		c-0.33-0.731-0.241-1.588,0.238-2.231c12.959-17.42,28.909-32.479,47.093-44.422c1.117-0.734,2.631-0.296,3.201,0.913
		l66.451,141.033c0.363,0.771,1.14,1.264,1.992,1.264h59.793c0.854,0,1.631-0.493,1.993-1.266l66.231-141.031
		C354.797,100.963,356.313,100.524,357.431,101.258z"/>
	<path style="fill:#2D3E6C;" d="M79.87,213.918c-0.863-1.917-3.682-1.654-4.154,0.394C72.631,227.712,71,241.666,71,255.998
		c0,70.22,39.119,131.299,96.752,162.639c1.849,1.005,3.918-0.932,3.054-2.85L79.87,213.918z"/>
	<path style="fill:#2D3E6C;" d="M204.822,433.829c16.25,4.671,33.424,7.171,51.181,7.171c17.733,0,34.884-2.495,51.121-7.152
		l-51.121-113.524L204.822,433.829z"/>
	<path style="fill:#2D3E6C;" d="M341.206,415.779c-0.867,1.919,1.203,3.858,3.053,2.853C401.886,387.289,441,326.214,441,255.998
		c0-14.184-1.594-27.996-4.617-41.265c-0.467-2.05-3.287-2.317-4.153-0.401L341.206,415.779z"/>
</g>
<g>
</g>
<g>
</g>
<g>
</g>
<g>
</g>
<g>
</g>
<g>
</g>
<g>
</g>
<g>
</g>
<g>
</g>
<g>
</g>
<g>
</g>
<g>
</g>
<g>
</g>
<g>
</g>
<g>
</g>
</svg>
