<?xml version="1.0" encoding="iso-8859-1"?>
<!-- Generator: Adobe Illustrator 19.0.0, SVG Export Plug-In . SVG Version: 6.00 Build 0)  -->
<svg version="1.1" id="Capa_1" xmlns="http://www.w3.org/2000/svg" xmlns:xlink="http://www.w3.org/1999/xlink" x="0px" y="0px"
	 viewBox="0 0 512 512" style="enable-background:new 0 0 512 512;" xml:space="preserve">
<rect x="17.345" y="185.61" style="fill:#2D3E6C;" width="469.88" height="131.4"/>
<path id="SVGCleanerId_0" style="fill:#CCCCCC;" d="M432.152,23.186l-30.301,30.301C360.123,23.186,308.779,5.323,253.268,5.323
	C113.388,5.323,0,118.744,0,258.667C0,398.579,113.388,512,253.268,512s253.268-113.421,253.268-253.333
	c0-57.392-19.078-110.33-51.239-152.809c-0.906-1.196-0.801-2.871,0.26-3.933l27.657-27.667L432.152,23.186z M253.268,429.39
	c-94.266,0-170.68-76.435-170.68-170.723c0-94.299,76.414-170.734,170.68-170.734s170.68,76.435,170.68,170.734
	C423.948,352.954,347.534,429.39,253.268,429.39z"/>
<g>
	<path id="SVGCleanerId_0_1_" style="fill:#CCCCCC;" d="M432.152,23.186l-30.301,30.301C360.123,23.186,308.779,5.323,253.268,5.323
		C113.388,5.323,0,118.744,0,258.667C0,398.579,113.388,512,253.268,512s253.268-113.421,253.268-253.333
		c0-57.392-19.078-110.33-51.239-152.809c-0.906-1.196-0.801-2.871,0.26-3.933l27.657-27.667L432.152,23.186z M253.268,429.39
		c-94.266,0-170.68-76.435-170.68-170.723c0-94.299,76.414-170.734,170.68-170.734s170.68,76.435,170.68,170.734
		C423.948,352.954,347.534,429.39,253.268,429.39z"/>
</g>
<path style="fill:#CCCCCC;" d="M455.557,101.925l27.657-27.667l-51.062-51.073l-27.906,27.906c-1.382,1.382-3.551,1.55-5.148,0.423
	c-41.224-29.103-91.534-46.193-145.83-46.193c-4.504,0-8.986,0.119-13.436,0.347C106.204,12.659,0,123.247,0,258.667
	C0,398.579,113.388,512,253.268,512s253.268-113.421,253.268-253.333c0-57.392-19.078-110.33-51.239-152.809
	C454.392,104.662,454.497,102.986,455.557,101.925z M253.268,429.39c-94.266,0-170.68-76.435-170.68-170.723
	c0-94.299,76.414-170.734,170.68-170.734s170.68,76.435,170.68,170.734C423.948,352.954,347.534,429.39,253.268,429.39z"/>
<g>
	<path style="fill:#8C8C8C;" d="M82.589,258.667c0-89.731,69.191-163.282,157.114-170.198c-4.476-0.352-8.999-0.536-13.566-0.536
		c-94.266,0-170.68,76.435-170.68,170.734c0,94.288,76.414,170.723,170.68,170.723c4.567,0,9.09-0.184,13.566-0.536
		C151.779,421.938,82.589,348.387,82.589,258.667z"/>
	<path style="fill:#8C8C8C;" d="M386.243,53.487c-7.253,0-14.326-2.151-20.406-6.104c-36.775-23.908-81.505-36.896-126.188-41.691
		c0.054,0,0.109-0.011,0.185-0.022c4.45-0.228,8.932-0.347,13.436-0.347c54.192,0,104.413,17.025,145.592,46.025
		C399.797,52.007,386.243,53.487,386.243,53.487z"/>
	<path style="fill:#8C8C8C;" d="M455.557,101.925l27.657-27.667l-51.062-51.073l-13.567,13.567l16.202,16.205
		c11.762,11.765,11.763,30.836,0.002,42.602l-0.585,0.585c-4.324,4.326-4.88,11.131-1.342,16.121
		c29.314,41.342,46.543,91.86,46.543,146.401c0,135.36-106.131,245.918-239.702,252.97c4.492,0.237,9.014,0.363,13.566,0.363
		c139.88,0,253.268-113.421,253.268-253.333c0-57.392-19.078-110.33-51.239-152.809
		C454.392,104.662,454.497,102.986,455.557,101.925z"/>
</g>
<g>
	<path style="fill:#EBEBEB;" d="M201.468,216.36h-6.361c-13.202,0-23.942,10.74-23.942,23.942v23.058
		c0,13.202,10.74,23.942,23.942,23.942h6.361c13.202,0,23.942-10.74,23.942-23.942v-23.058
		C225.41,227.1,214.669,216.36,201.468,216.36z M210.41,263.36c0,4.931-4.011,8.942-8.942,8.942h-6.361
		c-4.931,0-8.942-4.011-8.942-8.942v-23.058c0-4.931,4.011-8.942,8.942-8.942h6.361c4.931,0,8.942,4.011,8.942,8.942L210.41,263.36
		L210.41,263.36z"/>
	<path style="fill:#EBEBEB;" d="M281.198,272.302h-31.746V223.86c0-4.142-3.358-7.5-7.5-7.5s-7.5,3.358-7.5,7.5v55.942
		c0,4.142,3.358,7.5,7.5,7.5h39.246c4.143,0,7.5-3.358,7.5-7.5S285.341,272.302,281.198,272.302z"/>
	<path style="fill:#EBEBEB;" d="M382.275,216.36h-6.361c-13.201,0-23.941,10.74-23.941,23.942v23.058
		c0,13.202,10.74,23.942,23.941,23.942h6.361c13.202,0,23.942-10.74,23.942-23.942v-23.058
		C406.218,227.1,395.478,216.36,382.275,216.36z M391.218,263.36c0,4.931-4.012,8.942-8.942,8.942h-6.361
		c-4.931,0-8.941-4.011-8.941-8.942v-23.058c0-4.931,4.011-8.942,8.941-8.942h6.361c4.931,0,8.942,4.011,8.942,8.942V263.36z"/>
	<path style="fill:#EBEBEB;" d="M164.354,216.36h-15.946c-4.142,0-7.5,3.358-7.5,7.5c0,2.837,1.576,5.305,3.9,6.58l-9.367,26.703
		l-9.051-25.802c3.961-0.203,7.113-3.469,7.113-7.48c0-4.142-3.358-7.5-7.5-7.5h-15.946c-4.142,0-7.5,3.358-7.5,7.5
		s3.358,7.5,7.5,7.5h0.444l17.863,50.924c1.054,3.006,3.892,5.018,7.077,5.018s6.023-2.012,7.077-5.018l17.863-50.924h3.973
		c4.142,0,7.5-3.358,7.5-7.5S168.496,216.36,164.354,216.36z"/>
	<path style="fill:#EBEBEB;" d="M342.955,216.36h-15.946c-4.143,0-7.5,3.358-7.5,7.5c0,3.428,2.303,6.313,5.445,7.208l-9.147,26.075
		l-9.146-26.075c3.141-0.895,5.444-3.779,5.444-7.208c0-4.142-3.357-7.5-7.5-7.5H288.66c-4.143,0-7.5,3.358-7.5,7.5
		s3.357,7.5,7.5,7.5h2.208l17.862,50.924c1.054,3.006,3.892,5.018,7.077,5.018s6.023-2.012,7.077-5.018l17.863-50.924h2.208
		c4.143,0,7.5-3.358,7.5-7.5S347.098,216.36,342.955,216.36z"/>
</g>
<path style="fill:#CCCCCC;" d="M400.358,6.828l104.814,104.814c2.52,2.52,6.828,0.735,6.828-2.828V4c0-2.209-1.791-4-4-4H403.186
	C399.622,0,397.838,4.309,400.358,6.828z"/>
<path style="fill:#8C8C8C;" d="M486.301,0v92.772l18.87,18.87c2.52,2.52,6.828,0.735,6.828-2.828V4c0-2.209-1.791-4-4-4H486.301z"/>
<g>
</g>
<g>
</g>
<g>
</g>
<g>
</g>
<g>
</g>
<g>
</g>
<g>
</g>
<g>
</g>
<g>
</g>
<g>
</g>
<g>
</g>
<g>
</g>
<g>
</g>
<g>
</g>
<g>
</g>
</svg>
