<?xml version="1.0" encoding="iso-8859-1"?>
<!-- Generator: Adobe Illustrator 19.0.0, SVG Export Plug-In . SVG Version: 6.00 Build 0)  -->
<svg version="1.1" id="Capa_1" xmlns="http://www.w3.org/2000/svg" xmlns:xlink="http://www.w3.org/1999/xlink" x="0px" y="0px"
	 viewBox="0 0 512 512" style="enable-background:new 0 0 512 512;" xml:space="preserve">
<g>
	<g>
		<path style="fill:#E82934;" d="M511.753,53.059c-5.862,16.088-11.219,32.455-17.946,48.091
			c-6.892,16.027-18.564,27.233-33.553,33.341c-4.832,1.967-9.663,3.945-14.505,5.902c-39.683,16.161-79.406,32.229-119.202,48.008
			c-93.85,37.204-187.771,74.15-281.641,111.291c-4.152,1.638-8.303,3.729-11.94,6.458c-9.055,6.767-11.023,17.562-5.13,27.779
			c2.184,3.77,5.068,7.148,8.015,10.238c29.494,30.91,79.211,83.636,108.767,114.474c2.678,2.658,1.123,3.296,0.577,3.296
			c-12.599,0.01-25.209-0.051-37.818,0.062c-2.184,0.021-3.286-0.7-4.018-3.069c-2.246-7.323-6.243-13.39-11.136-18.839
			c-16.287-18.149-52.467-58.483-68.94-76.416C12.62,352.069,2.72,340.162,0,322.981v-9.96c1.823-9.703,5.522-18.221,12.239-24.936
			c6.737-6.726,14.587-11.237,22.88-15.007c114.742-52.19,229.669-103.845,344.101-156.88c27.32-12.659,54.198-26.512,81.024-40.52
			c16.112-8.415,32.214-16.892,48.377-25.194C510.517,49.516,512.753,49.825,511.753,53.059z"/>
		<path style="fill:#E82934;" d="M486.606,155.215c-3.43,8.322-14.68,32.383-23.004,43.816
			c-7.366,10.094-17.307,16.727-29.237,20.477c-7.088,2.235-14.186,4.46-21.273,6.695c-59.998,18.88-119.985,37.791-179.983,56.681
			c-22.942,7.231-45.905,14.42-68.857,21.651c-4.522,1.421-4.801,3.255-2.462,7.199c0.34,0.577,0.072,1.319-0.567,1.514
			c-16.854,5.191-34.305,10.568-50.86,15.656c-13.681,4.202-27.382,8.353-41.042,12.628c-2.236,0.7-3.956,0.638-5.697-1.092
			c-2.009-2.008-4.368-3.657-6.397-5.644c-5.934-5.819-5.223-13.833,1.772-18.231c2.802-1.751,5.924-3.069,9.024-4.233
			c122.159-46.041,244.349-91.969,366.467-138.113c0.021-0.011,0.041-0.021,0.062-0.021c16.359-6.18,32.348-13.349,48.511-20.054
			c0.474-0.196,1.102-0.453,1.772-0.711C485.957,152.99,487.07,154.102,486.606,155.215z"/>
		<path style="fill:#E82934;" d="M454.321,249.635c-6.985,10.774-13.701,21.733-21.098,32.218
			c-7.747,10.99-19.244,15.965-32.08,18.9c-6.016,1.38-12.64,2.905-19.697,4.532c-63.48,14.636-161.656,37.543-162.079,37.657
			c-4.481,1.185-5.068,3.255-2.483,7.035c0.412,0.597,0.113,1.422-0.598,1.586c-5.779,1.37-11.826,2.812-17.369,4.089
			c-30.792,7.066-61.595,14.101-92.377,21.228c-2.864,0.67-4.986,0.412-7.314-1.72c-5.512-5.037-11.239-9.826-17.328-15.018
			c-1.246-1.061-0.814-3.079,0.742-3.543c106.531-31.714,211.476-62.943,317.203-94.42c17.781-5.284,35.582-10.588,53.425-15.893
			C455.268,245.989,455.392,247.997,454.321,249.635z"/>
		<path style="fill:#E82934;" d="M419.191,332.488c-7.695,9.033-15.123,18.313-23.21,26.976
			c-9.447,10.125-21.932,14.111-35.304,16.295c-3.544,0.577-7.077,1.164-10.621,1.761c-21.181,3.543-42.32,7.313-63.48,11.031
			c-5.388,0.948-5.996,2.318-4.152,6.922c0.237,0.618-0.134,1.298-0.783,1.401c-10.137,1.555-20.676,3.193-30.72,4.728
			c-24.539,3.77-49.078,7.54-73.607,11.309c-10.137,1.556-20.264,3.162-30.411,4.615c-1.195,0.175-2.854-0.082-3.719-0.824
			c-6.047-5.171-17.06-14.894-22.376-19.601c-1.267-1.112-0.721-3.183,0.927-3.543c23.354-5.027,145.05-31.188,239.198-51.438
			c20.12-4.326,38.982-8.374,55.352-11.896C421.149,329.192,419.779,331.798,419.191,332.488z"/>
		<path style="fill:#E82934;" d="M366.951,460.322c0,0-4.43,0-11.991,0h-27.362c-8.654,0-18.306,0.01-28.495,0.01
			c-37.066,0-81.199,0.011-110.291,0.041c-2.781,0-4.842-0.721-6.871-2.668c-7.119-6.788-14.361-13.442-22.015-20.528
			c-1.288-1.195-0.587-3.348,1.154-3.553c15.803-1.875,68.919-8.116,104.543-12.267c6.923-0.803,13.166-1.535,18.358-2.142
			c6.47-0.752,11.301-1.308,13.712-1.576c1.483-0.165,3.307,0,4.523,0.742c15.628,9.631,42.773,26.584,57.257,35.721
			c3.441,2.163,6.171,3.893,7.85,4.975C367.888,459.436,367.631,460.322,366.951,460.322z"/>
	</g>
	<g>
		<path style="fill:#C7232C;" d="M511.753,53.059c-5.862,16.088-11.219,32.455-17.946,48.091
			c-6.892,16.027-18.564,27.233-33.553,33.341c-0.855,0.35-1.71,0.7-2.565,1.04c6.068-25.585,9.797-47.411,12.084-64.839
			c12.939-6.767,25.868-13.544,38.848-20.208C510.517,49.516,512.753,49.825,511.753,53.059z"/>
		<path style="fill:#C7232C;" d="M366.951,460.322c0,0-4.43,0-11.991,0h-27.362l-43.618-41.108
			c6.47-0.752,11.301-1.308,13.712-1.576c1.483-0.165,3.307,0,4.523,0.742c15.628,9.631,42.773,26.584,57.257,35.721
			c3.441,2.163,6.171,3.893,7.85,4.975C367.888,459.436,367.631,460.322,366.951,460.322z"/>
		<path style="fill:#C7232C;" d="M419.191,332.488c-7.695,9.033-15.123,18.313-23.21,26.976
			c-9.313,9.981-21.582,13.998-34.748,16.202c7.273-12.906,14.072-25.585,20.428-38.007c12.362-2.647,24.014-5.15,34.625-7.437
			C421.149,329.192,419.779,331.798,419.191,332.488z"/>
		<path style="fill:#C7232C;" d="M454.321,249.635c-6.985,10.774-13.701,21.733-21.098,32.218
			c-7.747,10.99-19.244,15.965-32.08,18.9c-0.556,0.124-1.113,0.258-1.679,0.381c7.098-15.337,13.516-30.21,19.316-44.589
			c11.486-3.409,22.983-6.839,34.49-10.259C455.268,245.989,455.392,247.997,454.321,249.635z"/>
		<path style="fill:#C7232C;" d="M486.606,155.215c-3.43,8.322-14.68,32.383-23.004,43.816
			c-7.366,10.094-17.307,16.727-29.237,20.477c-0.587,0.185-1.164,0.371-1.751,0.546c6.48-18.241,11.919-35.484,16.504-51.613
			c11.353-4.666,22.602-9.589,33.944-14.297c0.474-0.196,1.102-0.453,1.772-0.711C485.957,152.99,487.07,154.102,486.606,155.215z"
			/>
	</g>
</g>
<g>
</g>
<g>
</g>
<g>
</g>
<g>
</g>
<g>
</g>
<g>
</g>
<g>
</g>
<g>
</g>
<g>
</g>
<g>
</g>
<g>
</g>
<g>
</g>
<g>
</g>
<g>
</g>
<g>
</g>
</svg>
