<?xml version="1.0" encoding="iso-8859-1"?>
<!-- Generator: Adobe Illustrator 19.0.0, SVG Export Plug-In . SVG Version: 6.00 Build 0)  -->
<svg version="1.1" id="Capa_1" xmlns="http://www.w3.org/2000/svg" xmlns:xlink="http://www.w3.org/1999/xlink" x="0px" y="0px"
	 viewBox="0 0 512 512" style="enable-background:new 0 0 512 512;" xml:space="preserve">
<g>
	<g>
		<g>
			<path d="M485.26,295.844l-93.902-15.652l30.35-45.525H480c5.896,0,10.667-4.771,10.667-10.667s-4.771-10.667-10.667-10.667h-64
				c-3.563,0-6.896,1.781-8.875,4.75l-33.792,50.688l-24.292-36.438c-7.927-11.896-21.198-19-35.5-19h-157.75
				c-14.302,0-27.573,7.104-35.5,19l-30.875,46.323l-65.188,16.292C9.969,298.51,0,311.281,0,325.99v53.594
				c0,12.573,4.896,24.396,13.792,33.292c8.896,8.896,20.719,13.792,33.292,13.792h28.663c4.956,24.314,26.5,42.667,52.254,42.667
				s47.298-18.353,52.254-42.667h140.826c4.956,24.314,26.5,42.667,52.254,42.667s47.298-18.353,52.254-42.667h47.819
				c8.146,0,15.458-4.521,19.083-11.792l17.26-34.521c0.375-0.75,0.656-1.542,0.844-2.354l1.115-4.708
				c0.198-0.813,0.292-1.646,0.292-2.479v-43.406C512,311.688,500.75,298.417,485.26,295.844z M128,448c-17.646,0-32-14.354-32-32
				c0-17.646,14.354-32,32-32s32,14.354,32,32C160,433.646,145.646,448,128,448z M373.333,448c-17.646,0-32-14.354-32-32
				c0-17.646,14.354-32,32-32c17.646,0,32,14.354,32,32C405.333,433.646,390.979,448,373.333,448z M490.667,369.573l-17.26,35.76
				h-47.819c-4.956-24.314-26.5-42.667-52.254-42.667s-47.298,18.353-52.254,42.667H180.254
				c-4.956-24.314-26.5-42.667-52.254-42.667s-47.298,18.353-52.254,42.667H47.083c-6.875,0-13.344-2.677-18.208-7.542
				s-7.542-11.333-7.542-18.208V325.99c0-4.906,3.323-9.156,8.073-10.354l69.177-17.292c2.573-0.635,4.823-2.219,6.292-4.427
				l33.167-49.75c3.969-5.948,10.604-9.5,17.75-9.5h157.75c7.146,0,13.781,3.552,17.75,9.5l33.167,49.75
				c1.635,2.458,4.208,4.125,7.125,4.604l110.177,18.365c5.156,0.854,8.906,5.281,8.906,10.521V369.573z"/>
			<path d="M316.896,261.042c-1.948-3.135-5.375-5.042-9.063-5.042H161.5c-3.938,0-7.552,2.167-9.406,5.635l-22.833,42.667
				c-1.771,3.302-1.667,7.292,0.26,10.51c1.927,3.219,5.396,5.188,9.146,5.188h195.667c3.875,0,7.438-2.094,9.323-5.479
				c1.885-3.385,1.781-7.521-0.26-10.813L316.896,261.042z M156.469,298.667l11.417-21.333h134.021l13.25,21.333H156.469z"/>
			<path d="M341.333,192c5.896,0,10.667-4.771,10.667-10.667c0-5.896-4.771-10.667-10.667-10.667
				c-11.76,0-21.333-9.573-21.333-21.333c0-10.479,7.885-19.5,18.333-20.99c3.542-0.51,6.594-2.75,8.125-5.969
				c1.542-3.229,1.365-7.01-0.479-10.073c-3.083-5.156-4.646-10.635-4.646-16.302c0-17.646,14.354-32,32-32
				c10.083,0,19.396,4.729,25.552,12.969c1.698,2.281,4.24,3.781,7.052,4.177c2.781,0.438,5.667-0.333,7.938-2.063
				c3.802-2.896,8.229-4.417,12.792-4.417C438.427,74.667,448,84.24,448,96c0,5.896,4.771,10.667,10.667,10.667
				c17.646,0,32,14.354,32,32c0,17.646-14.354,32-32,32c-5.896,0-10.667,4.771-10.667,10.667c0,5.896,4.771,10.667,10.667,10.667
				C488.073,192,512,168.073,512,138.667c0-26.156-18.927-47.979-43.802-52.479c-4.448-18.813-21.385-32.854-41.531-32.854
				c-5.948,0-11.74,1.25-17.125,3.656c-9.792-9.188-22.563-14.323-36.208-14.323C343.927,42.667,320,66.594,320,96
				c0,5.156,0.792,10.302,2.323,15.281c-14.094,7.073-23.656,21.677-23.656,38.052C298.667,172.865,317.802,192,341.333,192z"/>
		</g>
	</g>
</g>
<g>
</g>
<g>
</g>
<g>
</g>
<g>
</g>
<g>
</g>
<g>
</g>
<g>
</g>
<g>
</g>
<g>
</g>
<g>
</g>
<g>
</g>
<g>
</g>
<g>
</g>
<g>
</g>
<g>
</g>
</svg>
