<?xml version="1.0"?>
<svg xmlns="http://www.w3.org/2000/svg" xmlns:xlink="http://www.w3.org/1999/xlink" xmlns:svgjs="http://svgjs.com/svgjs" version="1.1" width="512" height="512" x="0" y="0" viewBox="0 0 512 512" style="enable-background:new 0 0 512 512" xml:space="preserve" class=""><g><path xmlns="http://www.w3.org/2000/svg" d="m321.862 94.121h-91.468c-7.695 0-14.249-5.984-14.522-13.674-.287-8.073 6.173-14.708 14.182-14.708h150.634c7.695 0 14.248 5.983 14.522 13.673.287 8.073-6.172 14.709-14.182 14.709h50.3c11.763 0 21.299 9.536 21.299 21.299s-9.536 21.299-21.299 21.299h-24.296c17.809 0 32.246 14.437 32.246 32.246v122.735l-27.658-1.947v-108.761c0-4.327-3.508-7.835-7.835-7.835h-38.273c-9.927 0-18.319-7.783-18.591-17.707-.282-10.296 7.98-18.731 18.212-18.731h-57.91c-11.962 0-21.621-9.861-21.291-21.897.318-11.601 10.128-20.7 21.734-20.7h14.196z" fill="#dae4ea" data-original="#dae4ea" style="" class=""/><circle xmlns="http://www.w3.org/2000/svg" cx="125.401" cy="401.018" fill="#808b95" r="45.243" data-original="#808b95" style="" class=""/><circle xmlns="http://www.w3.org/2000/svg" cx="379.693" cy="401.018" fill="#808b95" r="45.243" data-original="#808b95" style="" class=""/><circle xmlns="http://www.w3.org/2000/svg" cx="379.693" cy="401.018" fill="#dae4ea" r="19.466" data-original="#dae4ea" style="" class=""/><circle xmlns="http://www.w3.org/2000/svg" cx="125.401" cy="401.018" fill="#dae4ea" r="19.466" data-original="#dae4ea" style="" class=""/><path xmlns="http://www.w3.org/2000/svg" d="m474.695 294.192-119.827-8.435-23.644-55.962c-6.554-15.512-21.757-25.593-38.596-25.593h-136.98c-16.916 0-32.173 10.172-38.678 25.787l-23.232 55.768-62.806 7.875c-10.481 1.314-18.345 10.225-18.345 20.788v8.557l3.236 51.679h39.084v22.349h25.437c2.032-23.106 21.423-41.23 45.056-41.23s43.024 18.124 45.056 41.23h164.18c2.032-23.106 21.423-41.23 45.056-41.23s43.024 18.124 45.056 41.23h25.624v-22.45h49.039v-25.016l-4.542-6.004 4.542-20.728v-2.096c.002-13.958-10.793-25.539-24.716-26.519z" fill="#f0233e" data-original="#e28086" style="" class=""/><g xmlns="http://www.w3.org/2000/svg" fill="#dd636e"><path d="m54.907 377.005v20h25.437c.642-7.304 3.023-14.107 6.72-20z" fill="#dd636e" data-original="#dd636e" style="" class=""/><path d="m163.737 377.005c3.697 5.893 6.078 12.696 6.72 20h164.18c.642-7.304 3.023-14.107 6.72-20z" fill="#dd636e" data-original="#dd636e" style="" class=""/><path d="m474.695 294.192-16.412-1.155c.733 2.433 1.129 5.01 1.129 7.673v18.131c0 26.792-18.121 49.34-42.772 56.089 4.487 6.347 7.39 13.896 8.109 22.074h25.624v-22.45h49.039v-25.016l-4.542-6.004 4.542-20.728v-2.096c.001-13.957-10.794-25.538-24.717-26.518z" fill="#dd636e" data-original="#dd636e" style="" class=""/></g><path xmlns="http://www.w3.org/2000/svg" d="m160.764 229.202c-9.921 0-18.868 5.966-22.683 15.123l-15.192 36.468c-.984 2.361.751 4.964 3.31 4.964h60.894c1.98 0 3.585-1.605 3.585-3.585v-49.385c0-1.98-1.605-3.585-3.585-3.585z" fill="#d5d8f1" data-original="#d5d8f1" style=""/><path xmlns="http://www.w3.org/2000/svg" d="m310.175 244.211c-3.844-9.097-12.76-15.009-22.636-15.009h-68.277c-1.98 0-3.585 1.605-3.585 3.585v49.385c0 1.98 1.605 3.585 3.585 3.585h103.059c2.566 0 4.301-2.617 3.303-4.98z" fill="#d5d8f1" data-original="#d5d8f1" style=""/><path xmlns="http://www.w3.org/2000/svg" d="m160.764 229.202c-.034.034-.053.053-.087.087v17.371c0 10.547-8.55 19.097-19.097 19.097h-12.428l-6.264 15.036c-.984 2.361.751 4.964 3.31 4.964h60.894c1.98 0 3.585-1.605 3.585-3.585v-49.385c0-1.98-1.605-3.585-3.585-3.585z" fill="#bec3ea" data-original="#bec3ea" style="" class=""/><path xmlns="http://www.w3.org/2000/svg" d="m310.176 244.212c-3.844-9.097-12.76-15.009-22.636-15.009h-5.256l4.236 10.026c5.319 12.59-3.924 26.529-17.591 26.529h-53.251v16.415c0 1.98 1.605 3.585 3.585 3.585h103.059c2.566 0 4.301-2.617 3.303-4.98z" fill="#bec3ea" data-original="#bec3ea" style="" class=""/><path xmlns="http://www.w3.org/2000/svg" d="m441.941 325.474v9.248c0 8.183 6.634 14.817 14.817 14.817h10.183v-26.733h-22.332c-1.474 0-2.668 1.195-2.668 2.668z" fill="#eaaa89" data-original="#eaaa89" style="" class=""/><path xmlns="http://www.w3.org/2000/svg" d="m466.941 349.539v-26.733h-7.674c-.629 9.336-3.452 18.069-7.973 25.679 1.692.672 3.532 1.053 5.464 1.053h10.183z" fill="#e4936b" data-original="#e4936b" style=""/><path xmlns="http://www.w3.org/2000/svg" d="m466.941 322.806h32.367v26.733h-32.367z" fill="#e7ecf1" data-original="#e7ecf1" style="" class=""/><path xmlns="http://www.w3.org/2000/svg" d="m39.588 335.817c0-7.091-5.749-12.84-12.84-12.84h-14.16v25.839h27z" fill="#f6f9f9" data-original="#f6f9f9" style=""/><path xmlns="http://www.w3.org/2000/svg" d="m12.587 348.817h27v25.839h-27z" fill="#eaaa89" data-original="#eaaa89" style="" class=""/><path xmlns="http://www.w3.org/2000/svg" d="m54.907 367.156h-47.407c-4.142 0-7.5 3.358-7.5 7.5v29.419c0 4.142 3.358 7.5 7.5 7.5h47.407c4.142 0 7.5-3.358 7.5-7.5v-29.419c0-4.142-3.358-7.5-7.5-7.5z" fill="#dae4ea" data-original="#dae4ea" style="" class=""/><path xmlns="http://www.w3.org/2000/svg" d="m504.5 367.055h-54.126c-4.142 0-7.5 3.358-7.5 7.5v29.521c0 4.142 3.358 7.5 7.5 7.5h54.126c4.142 0 7.5-3.358 7.5-7.5v-29.521c0-4.142-3.358-7.5-7.5-7.5z" fill="#c6d0da" data-original="#c6d0da" style="" class=""/><path xmlns="http://www.w3.org/2000/svg" d="m354.868 285.757 10.581.745 85.032-73.848c7.53-6.541 18.954-6.139 26.007.914 2.929 2.929 7.678 2.929 10.606 0 2.929-2.929 2.929-7.678 0-10.606-12.596-12.596-33-13.314-46.45-1.633l-88.847 77.162z" fill="#dd636e" data-original="#dd636e" style="" class=""/><path xmlns="http://www.w3.org/2000/svg" d="m250.02 318.257h-26.58c-4.142 0-7.5-3.358-7.5-7.5s3.358-7.5 7.5-7.5h26.58c4.142 0 7.5 3.358 7.5 7.5s-3.358 7.5-7.5 7.5z" fill="#c6d0da" data-original="#c6d0da" style="" class=""/></g></svg>
