<svg height="512" viewBox="0 0 64 64" width="512" xmlns="http://www.w3.org/2000/svg"><g id="Breakdown_car" data-name="Breakdown car"><path d="m61 30.69v12.31a2.006 2.006 0 0 1 -2 2h-54a2.006 2.006 0 0 1 -2-2v-15.31a4.058 4.058 0 0 1 .23-1.34l4.3-12.02a1.984 1.984 0 0 1 1.88-1.33h33.18a1.984 1.984 0 0 1 1.88 1.33l4.13 11.56a1.932 1.932 0 0 0 .64.89 2.026 2.026 0 0 0 .92.41l3.84.64 5.33.89a2.006 2.006 0 0 1 1.67 1.97z" fill="#57a4ff"/><path d="m61 30.69v12.31a2.006 2.006 0 0 1 -2 2h-4a2.006 2.006 0 0 0 2-2v-12.31a2.006 2.006 0 0 0 -1.67-1.97l-5.33-.89-3.84-.64a2.026 2.026 0 0 1 -.92-.41 1.932 1.932 0 0 1 -.64-.89l-4.13-11.56a1.984 1.984 0 0 0 -1.88-1.33h4a1.984 1.984 0 0 1 1.88 1.33l4.13 11.56a1.932 1.932 0 0 0 .64.89 2.026 2.026 0 0 0 .92.41l3.84.64 5.33.89a2.006 2.006 0 0 1 1.67 1.97z" fill="#006df0"/><path d="m61 31v4h-4a2.006 2.006 0 0 1 -2-2 2.015 2.015 0 0 1 2-2z" fill="#ffcd00"/><path d="m57 31h4v4h-4z" fill="#ddb200"/><path d="m41 17 4 10h-13v-10z" fill="#bdfdff"/><path d="m45 27h-4l-4-10h4z" fill="#46f8ff"/><path d="m19 17h13v10h-13z" fill="#bdfdff"/><path d="m28 17h4v10h-4z" fill="#46f8ff"/><path d="m19 17v10h-10l3.02-10z" fill="#bdfdff"/><circle cx="13" cy="45" fill="#898890" r="6"/><path d="m19 45a6 6 0 0 1 -6 6 5.47 5.47 0 0 1 -1-.09 5.993 5.993 0 0 0 0-11.82 5.47 5.47 0 0 1 1-.09 6 6 0 0 1 6 6z" fill="#57565c"/><circle cx="13" cy="45" fill="#c6c5ca" r="2"/><path d="m15 45a2 2 0 0 1 -3 1.73 2 2 0 0 0 0-3.46 2 2 0 0 1 3 1.73z" fill="#acabb1"/><circle cx="51" cy="45" fill="#898890" r="6"/><path d="m57 45a6 6 0 0 1 -6 6 5.47 5.47 0 0 1 -1-.09 5.993 5.993 0 0 0 0-11.82 5.47 5.47 0 0 1 1-.09 6 6 0 0 1 6 6z" fill="#57565c"/><circle cx="51" cy="45" fill="#c6c5ca" r="2"/><path d="m53 45a2 2 0 0 1 -3 1.73 2 2 0 0 0 0-3.46 2 2 0 0 1 3 1.73z" fill="#acabb1"/><path d="m15 17h4v10h-4z" fill="#46f8ff"/><path d="m35 30h4v2h-4z"/><path d="m14 30h4v2h-4z"/><path d="m13 42a3 3 0 1 0 3 3 3 3 0 0 0 -3-3zm0 4a1 1 0 1 1 1-1 1 1 0 0 1 -1 1z"/><path d="m51 42a3 3 0 1 0 3 3 3 3 0 0 0 -3-3zm0 4a1 1 0 1 1 1-1 1 1 0 0 1 -1 1z"/><path d="m59.38 19h2.62v-2h-3a.971.971 0 0 0 -.67.26l-8.89 8-4.02-11.27a3.022 3.022 0 0 0 -2.83-1.99h-33.18a3.022 3.022 0 0 0 -2.83 1.99l-4.29 12.02a5.073 5.073 0 0 0 -.29 1.68v15.31a3.009 3.009 0 0 0 3 3h1.08a6.991 6.991 0 0 0 13.84 0h24.16a6.991 6.991 0 0 0 13.84 0h1.08a3.009 3.009 0 0 0 3-3v-12.31a2.978 2.978 0 0 0 -2.51-2.95l-4.49-.75v-4.05zm-6.38 5.74v1.91l-1.79-.3zm-35.1 21.26a5.038 5.038 0 0 1 -.73 1.75l-.63-.63-1.42 1.42.63.63a5.038 5.038 0 0 1 -1.75.73v-.9h-2v.9a5.038 5.038 0 0 1 -1.75-.73l.63-.63-1.42-1.42-.63.63a5.038 5.038 0 0 1 -.73-1.75h.9v-2h-.9a5.038 5.038 0 0 1 .73-1.75l.63.63 1.42-1.42-.63-.63a5.038 5.038 0 0 1 1.75-.73v.9h2v-.9a5.038 5.038 0 0 1 1.75.73l-.63.63 1.42 1.42.63-.63a5.038 5.038 0 0 1 .73 1.75h-.9v2zm13.1-20h-11v-8h11zm24.9 20a5.038 5.038 0 0 1 -.73 1.75l-.63-.63-1.42 1.42.63.63a5.038 5.038 0 0 1 -1.75.73v-.9h-2v.9a5.038 5.038 0 0 1 -1.75-.73l.63-.63-1.42-1.42-.63.63a5.038 5.038 0 0 1 -.73-1.75h.9v-2h-.9a5.038 5.038 0 0 1 .73-1.75l.63.63 1.42-1.42-.63-.63a5.038 5.038 0 0 1 1.75-.73v.9h2v-.9a5.038 5.038 0 0 1 1.75.73l-.63.63 1.42 1.42.63-.63a5.038 5.038 0 0 1 .73 1.75h-.9v2zm4.1-12h-3a1 1 0 0 1 0-2h3zm-.84-4.29a.954.954 0 0 1 .55.29h-2.71a3 3 0 0 0 0 6h3v2h-3v2h3v3a1 1 0 0 1 -1 1h-1.08a6.991 6.991 0 0 0 -13.84 0h-11.08v-16h12a1 1 0 0 0 .93-1.37l-4-10a1 1 0 0 0 -.93-.63h-28.98a1.008 1.008 0 0 0 -.96.71l-3.02 10a1.017 1.017 0 0 0 .16.89 1 1 0 0 0 .8.4h22v16h-11.08a6.991 6.991 0 0 0 -13.84 0h-1.08a1 1 0 0 1 -1-1v-6h3v-2h-3v-2h3v-2h-3v-3.31a3.2 3.2 0 0 1 .17-1.01l4.3-12.02a1.006 1.006 0 0 1 .94-.66h33.18a1.006 1.006 0 0 1 .94.66l4.13 11.57a3.019 3.019 0 0 0 2.33 1.95zm-26.16-3.71v-8h7.32l3.2 8zm-15-8v8h-7.65l2.41-8z"/></g></svg>