<?xml version="1.0"?>
<svg xmlns="http://www.w3.org/2000/svg" xmlns:xlink="http://www.w3.org/1999/xlink" xmlns:svgjs="http://svgjs.com/svgjs" version="1.1" width="512" height="512" x="0" y="0" viewBox="0 0 512 512" style="enable-background:new 0 0 512 512" xml:space="preserve" class=""><g><path xmlns="http://www.w3.org/2000/svg" d="m162 437h187v34h-187z" fill="#ffffff" data-original="#4a5160" style="" class=""/><path xmlns="http://www.w3.org/2000/svg" d="m344.75 344h156.23a80.874 80.874 0 0 1 -156.23 0z" fill="#f3324c" data-original="#628ecc" style="" class=""/><path xmlns="http://www.w3.org/2000/svg" d="m342 317v6.07a80.672 80.672 0 0 0 2.75 20.93h156.23a80.779 80.779 0 0 0 3.02-20.93v-6.07z" fill="#ffffff" data-original="#80aaff" style="" class=""/><path xmlns="http://www.w3.org/2000/svg" d="m11.02 344h156.23a80.874 80.874 0 0 1 -156.23 0z" fill="#f3324c" data-original="#628ecc" style="" class=""/><path xmlns="http://www.w3.org/2000/svg" d="m8 317v6.07a80.779 80.779 0 0 0 3.02 20.93h156.23a80.672 80.672 0 0 0 2.75-20.93v-6.07z" fill="#ffffff" data-original="#80aaff" style="" class=""/><path xmlns="http://www.w3.org/2000/svg" d="m456.52 112.39a34.556 34.556 0 0 0 -16.13 15.54 19.125 19.125 0 0 1 -34.39-.145 34.159 34.159 0 0 0 -30.19-18.785h-107.81v-68h-24v68h-107.74a34.143 34.143 0 0 0 -30.16 18.745 19.265 19.265 0 0 1 -34.51.109 34.508 34.508 0 0 0 -16.1-15.482 9.932 9.932 0 0 0 -8.47 17.966 14.727 14.727 0 0 1 6.96 6.691 39.087 39.087 0 0 0 69.73-.074 14.3 14.3 0 0 1 12.55-7.955h107.74v224h24v-224h107.81a14.331 14.331 0 0 1 12.57 7.985 39.014 39.014 0 0 0 69.63.049 14.73 14.73 0 0 1 6.96-6.692 9.235 9.235 0 0 0 4.11-3.676 10.337 10.337 0 0 0 1.49-5.358 9.866 9.866 0 0 0 -14.05-8.918z" fill="#ffffff" data-original="#d8cd64" style="" class=""/><path xmlns="http://www.w3.org/2000/svg" d="m267.9 151.08a34.186 34.186 0 1 1 20.8-21.98 33.983 33.983 0 0 1 -20.8 21.98z" fill="#f3324c" data-original="#eb7288" style="" class=""/><circle xmlns="http://www.w3.org/2000/svg" cx="256" cy="118.99" fill="#fdfdfd" r="14.71" data-original="#c66177" style="" class=""/><path xmlns="http://www.w3.org/2000/svg" d="m192 406h128v31h-128z" fill="#ffffff" data-original="#6d7486" style="" class=""/><path xmlns="http://www.w3.org/2000/svg" d="m233 353h46v53h-46z" fill="#f3324c" data-original="#eb7288" style="" class=""/><path xmlns="http://www.w3.org/2000/svg" d="m162 437h30v34h-30z" fill="#ffffff" data-original="#6d7486" style="" class=""/><path xmlns="http://www.w3.org/2000/svg" d="m41.02 344h-30a80.853 80.853 0 0 0 93.112 58.524 80.956 80.956 0 0 1 -63.112-58.524z" fill="#f3324c" data-original="#4f77a8" style="" class=""/><path xmlns="http://www.w3.org/2000/svg" d="m38 323.07v-6.07h-30v6.07a80.779 80.779 0 0 0 3.02 20.93h30a80.779 80.779 0 0 1 -3.02-20.93z" fill="#f3324c" data-original="#628ecc" style="" class=""/><path xmlns="http://www.w3.org/2000/svg" d="m192 406h30v31h-30z" fill="#b0b5ca" data-original="#b0b5ca" style=""/><g xmlns="http://www.w3.org/2000/svg" fill="#284268"><path d="m256 98.281a20.709 20.709 0 1 0 20.709 20.709 20.732 20.732 0 0 0 -20.709-20.709zm0 29.418a8.709 8.709 0 1 1 8.709-8.709 8.719 8.719 0 0 1 -8.709 8.71z" fill="#939393" data-original="#284268" style="" class=""/><path d="m503.724 314h-9.858l-62.886-150.29a45.244 45.244 0 0 0 32.354-23.91 8.8 8.8 0 0 1 4.116-4 15.92 15.92 0 0 0 -13.45-28.855 40.809 40.809 0 0 0 -18.933 18.228 13.434 13.434 0 0 1 -11.869 7.435 13.576 13.576 0 0 1 -11.868-7.58 40.133 40.133 0 0 0 -35.517-22.028h-82.785c-3.756-9-11.028-15.745-19.028-20.011v-42.18a5.925 5.925 0 0 0 -6.1-5.809h-23.8a5.925 5.925 0 0 0 -6.1 5.809v42.18c-8 4.266-15.272 11.011-19.028 20.011h-82.71a40.117 40.117 0 0 0 -35.489 21.983 13.265 13.265 0 0 1 -23.858.11 40.725 40.725 0 0 0 -18.9-18.164 15.931 15.931 0 0 0 -13.465 28.877 8.77 8.77 0 0 1 4.1 3.981 45.324 45.324 0 0 0 32.375 23.913l-62.891 150.3h-9.858a6.2 6.2 0 0 0 -6.276 5.949v6.125c0 47.894 39.106 86.858 87 86.858s87-38.964 87-86.858v-6.125a5.964 5.964 0 0 0 -6.009-5.949h-9.857l-62.934-150.4a45.451 45.451 0 0 0 31.832-23.88 8.326 8.326 0 0 1 7.23-4.72h82.909a40.728 40.728 0 0 0 18.829 19.991v192.009h-4.813a6.158 6.158 0 0 0 -6.187 5.994v47.006h-34.769a6.521 6.521 0 0 0 -6.231 6.363v24.637h-24.166a5.572 5.572 0 0 0 -5.834 5.651v34.54a5.7 5.7 0 0 0 5.834 5.809h187.34a5.694 5.694 0 0 0 5.826-5.809v-34.54a5.566 5.566 0 0 0 -5.826-5.651h-23.174v-24.637a6.521 6.521 0 0 0 -6.231-6.363h-34.769v-47.006a6.158 6.158 0 0 0 -6.187-5.994h-4.813v-192.009a40.728 40.728 0 0 0 18.829-19.991h82.984a8.351 8.351 0 0 1 7.24 4.75 45.343 45.343 0 0 0 31.747 23.85l-62.934 150.4h-9.857a5.964 5.964 0 0 0 -6.009 5.949v6.125c0 47.894 39.106 86.858 87 86.858s87-38.964 87-86.858v-6.125a6.2 6.2 0 0 0 -6.276-5.949zm-414.59 86.93a74.977 74.977 0 0 1 -69.828-47.93h139.655a74.975 74.975 0 0 1 -69.827 47.93zm74.866-74.93v.074a76.254 76.254 0 0 1 -1.507 14.926h-146.718a76.47 76.47 0 0 1 -1.775-14.926v-.074zm-16.875-12h-115.983l57.992-138.571zm-10.863-191a20.273 20.273 0 0 0 -17.879 11.2 33.107 33.107 0 0 1 -59.078.05 20.806 20.806 0 0 0 -9.807-9.381 3.854 3.854 0 0 1 -2.072-3.543 3.8 3.8 0 0 1 1.774-3.246 3.879 3.879 0 0 1 3.768-.246 28.7 28.7 0 0 1 13.292 12.82 25.218 25.218 0 0 0 45.164-.146 28.159 28.159 0 0 1 24.838-15.508h79.695c-.112 2-.177 2.533-.177 3.781a37.088 37.088 0 0 0 .212 4.219zm113.738-76h12v32.207a41.408 41.408 0 0 0 -12 0zm93 396v22h-175v-22zm-29-31v19h-116v-19zm-41-53v41h-34v-41zm-23-12v-188.227a41.408 41.408 0 0 0 12 0v188.227zm6-199.79a28.22 28.22 0 1 1 28.22-28.22 28.251 28.251 0 0 1 -28.22 28.22zm137.709-12.978a20.291 20.291 0 0 0 -17.896-11.232h-79.805a37.088 37.088 0 0 0 .212-4.219c0-1.248-.065-1.781-.177-3.781h79.77a28.181 28.181 0 0 1 24.856 15.546 25.171 25.171 0 0 0 45.049.109 28.71 28.71 0 0 1 13.321-12.84 3.87 3.87 0 0 1 3.765.255 3.8 3.8 0 0 1 1.77 3.239 3.9 3.9 0 0 1 -2.082 3.574 20.862 20.862 0 0 0 -9.814 9.412 33 33 0 0 1 -58.969-.063zm29.157 41.2 57.992 138.568h-115.983zm0 225.5a74.975 74.975 0 0 1 -69.827-47.932h139.655a74.977 74.977 0 0 1 -69.828 47.93zm75.134-74.858a76.47 76.47 0 0 1 -1.775 14.926h-146.718a76.254 76.254 0 0 1 -1.507-14.926v-.074h150z" fill="#939393" data-original="#284268" style="" class=""/></g></g></svg>
