<?xml version="1.0"?>
<svg xmlns="http://www.w3.org/2000/svg" xmlns:xlink="http://www.w3.org/1999/xlink" xmlns:svgjs="http://svgjs.com/svgjs" version="1.1" width="512" height="512" x="0" y="0" viewBox="0 0 511.144 511.144" style="enable-background:new 0 0 512 512" xml:space="preserve" class=""><g><g xmlns="http://www.w3.org/2000/svg"><path d="m408.833 337.553c22.859 22.83 26.285 59.135 4.349 81.042-28.082 28.065-20.077 20.067-36.388 36.359-33.992 33.962-89.302 33.315-132.102 3.21-69.048-48.599-204.848-184.625-227.567-219.847-27.111-42.016-21.638-93.903 13.619-129.117 16.625-16.606 8.46-8.448 36.388-36.359 21.149-21.136 57.523-19.184 81.084 4.349l48.755 48.713c22.789 22.76 26.345 59.06 4.356 81.049l-16.603 16.575c-5.907 5.907-6.175 18.562 3.606 28.312l45.679 45.637c7.79 7.79 21.059 10.917 28.376 3.599l16.61-16.582c21.149-21.136 57.523-19.184 81.07 4.349z" fill="#6c6c6c" data-original="#ffec00" style="" class=""/><path d="m184.723 223.525c-3.019 3.019-3.932 6.788-4.116 9.701l-136.937-136.938 23.461-23.448c21.149-21.136 57.523-19.184 81.084 4.349l48.755 48.713c22.789 22.76 26.345 59.06 4.356 81.049z" fill="#d7d7d7" data-original="#ffd92e" style="" class=""/><path d="m408.833 337.553c22.859 22.83 26.285 59.135 4.349 81.042l-23.61 23.596-137.009-137.009c3.797-.205 7.262-1.549 9.822-4.108l16.61-16.582c21.149-21.136 57.523-19.184 81.07 4.349z" fill="#d7d7d7" data-original="#ffd92e" style="" class=""/><g fill="#00357b"><path d="m292.056 195.257c-4.935-1.652-8.626-5.396-10.128-10.27-3.804-12.346 2.396-11.656 49.825-79.76 6.069-8.715 9.983-16.479 11.643-23.091l.416-3.271c-.425-10.172-8.761-18.315-18.945-18.315-9.037 0-16.86 6.474-18.604 15.394-1.589 8.131-9.469 13.437-17.599 11.845-8.131-1.589-13.434-9.469-11.845-17.599 4.489-22.969 24.696-39.64 48.047-39.64 26.998 0 48.962 22.04 48.962 49.132 0 14.343-9.835 31.743-17.458 42.69-14.055 20.182-24.399 34.371-31.789 44.294 11.9.033 26.365-.009 39.993-.116 8.27-.017 15.052 6.599 15.117 14.883.065 8.283-6.598 15.052-14.882 15.117-32.838.256-67.364.512-72.753-1.293z" fill="#f3324c" data-original="#00357b" style="" class=""/><path d="m478.417 196.901c-8.318 0-15.074-6.775-15.002-15.13.066-7.673.134-16.182.199-25.053h-53.049c-11.4 0-18.647-12.261-13.131-22.251 10.782-19.526 46.564-83.971 54.295-93.447 15.683-19.224 40.107-9.461 41.974 12.924.405 4.858.305 40.028.113 72.774h2.327c8.284 0 15 6.716 15 15s-6.716 15-15 15h-2.527c-.085 11.4-.162 20.596-.203 25.313-.071 8.239-6.773 14.869-14.996 14.87zm-42.352-70.183h27.746c.106-18.279.178-35.901.179-48.989-7.412 12.631-17.543 30.434-27.925 48.989z" fill="#f3324c" data-original="#00357b" style="" class=""/></g></g></g></svg>
