<svg height="496pt" viewBox="0 0 496 496" width="496pt" xmlns="http://www.w3.org/2000/svg"><path d="m96 439.761719h-48v-80c0-8.839844 7.160156-16 16-16h48l96-96h160l96 96v96h-56" fill="#7a6ac3"/><path d="m368 247.761719h-136l-96 96h-48c-8.839844 0-16 7.160156-16 16v80h392v-96zm0 0" fill="#a795e6"/><path d="m48 359.761719v32h32v-48h-16c-8.839844 0-16 7.160156-16 16zm0 0" fill="#dbaf89"/><path d="m48 359.761719v8h32v-24h-16c-8.839844 0-16 7.160156-16 16zm0 0" fill="#cb9e78"/><path d="m192 439.761719c0 26.511719-21.492188 48-48 48s-48-21.488281-48-48c0-26.507813 21.492188-48 48-48s48 21.492187 48 48zm0 0" fill="#656665"/><path d="m408 439.761719c0 26.511719-21.492188 48-48 48s-48-21.488281-48-48c0-26.507813 21.492188-48 48-48s48 21.492187 48 48zm0 0" fill="#656665"/><path d="m160 439.761719c0 8.835937-7.164062 16-16 16s-16-7.164063-16-16c0-8.835938 7.164062-16 16-16s16 7.164062 16 16zm0 0" fill="#999"/><path d="m376 439.761719c0 8.835937-7.164062 16-16 16s-16-7.164063-16-16c0-8.835938 7.164062-16 16-16s16 7.164062 16 16zm0 0" fill="#999"/><path d="m280 343.761719v-64h-56l-40 40v24zm0 0" fill="#85b6cf"/><path d="m312 343.761719v-64h40l40 40v24zm0 0" fill="#85b6cf"/><path d="m240 279.761719-40 40v24h80v-64zm0 0" fill="#94cce7"/><path d="m352 279.761719h-24v64h64v-24zm0 0" fill="#94cce7"/><path d="m401.449219 184.785156c-.847657-2.878906-1.449219-5.871094-1.449219-9.023437 0-11.121094 5.679688-20.894531 14.289062-26.632813-3.929687-6.191406-6.289062-13.488281-6.289062-21.367187 0-10.910157 4.390625-20.785157 11.480469-28-7.089844-7.214844-11.480469-17.085938-11.480469-28 0-22.085938 17.910156-40 40-40s40 17.914062 40 40c0 10.914062-4.390625 20.785156-11.480469 28 7.089844 7.214843 11.480469 17.089843 11.480469 28 0 17.128906-10.824219 31.632812-25.960938 37.328125 1.191407 3.351562 1.960938 6.914062 1.960938 10.671875 0 17.671875-14.328125 32-32 32 0 13.257812-10.742188 24-24 24s-24-10.742188-24-24c0-10.96875 7.398438-20.113281 17.449219-22.976563zm0 0" fill="#656665"/><path d="m472 127.761719c0-10.910157-4.390625-20.785157-11.480469-28 7.089844-7.214844 11.480469-17.085938 11.480469-28 0-19.351563-13.742188-35.488281-32-39.191407-18.257812 3.703126-32 19.839844-32 39.191407 0 10.914062 4.390625 20.785156 11.480469 28-7.089844 7.214843-11.480469 17.089843-11.480469 28 0 7.878906 2.359375 15.175781 6.289062 21.367187-8.609374 5.738282-14.289062 15.511719-14.289062 26.632813 0 3.152343.601562 6.144531 1.449219 9.023437-10.050781 2.863282-17.449219 12.007813-17.449219 22.976563 0 10.433593 6.695312 19.222656 16 22.527343 9.304688-3.304687 16-12.09375 16-22.527343 17.671875 0 32-14.328125 32-32 0-3.757813-.769531-7.320313-1.960938-10.671875 15.136719-5.695313 25.960938-20.199219 25.960938-37.328125zm0 0" fill="#999"/><path d="m94.550781 264.785156c.847657-2.878906 1.449219-5.871094 1.449219-9.023437 0-11.121094-5.679688-20.894531-14.289062-26.632813 3.929687-6.191406 6.289062-13.488281 6.289062-21.367187 0-10.910157-4.390625-20.785157-11.480469-28 7.089844-7.214844 11.480469-17.085938 11.480469-28 0-22.085938-17.910156-40-40-40s-40 17.914062-40 40c0 10.914062 4.390625 20.785156 11.480469 28-7.089844 7.214843-11.480469 17.089843-11.480469 28 0 17.128906 10.824219 31.632812 25.960938 37.328125-1.191407 3.351562-1.960938 6.914062-1.960938 10.671875 0 17.671875 14.328125 32 32 32 0 13.257812 10.742188 24 24 24s24-10.742188 24-24c0-10.96875-7.398438-20.113281-17.449219-22.976563zm0 0" fill="#656665"/><path d="m24 207.761719c0-10.910157 4.390625-20.785157 11.480469-28-7.089844-7.214844-11.480469-17.085938-11.480469-28 0-19.351563 13.742188-35.488281 32-39.191407 18.257812 3.703126 32 19.839844 32 39.191407 0 10.914062-4.390625 20.785156-11.480469 28 7.089844 7.214843 11.480469 17.089843 11.480469 28 0 7.878906-2.359375 15.175781-6.289062 21.367187 8.609374 5.738282 14.289062 15.511719 14.289062 26.632813 0 3.152343-.601562 6.144531-1.449219 9.023437 10.050781 2.863282 17.449219 12.007813 17.449219 22.976563 0 10.433593-6.695312 19.222656-16 22.527343-9.304688-3.304687-16-12.09375-16-22.527343-17.671875 0-32-14.328125-32-32 0-3.757813.769531-7.320313 1.960938-10.671875-15.136719-5.695313-25.960938-20.199219-25.960938-37.328125zm0 0" fill="#999"/><path d="m232 167.761719h32v56h-32zm0 0" fill="#bc8f6f"/><path d="m232 167.761719h16v56h-16zm0 0" fill="#cb9e78"/><path d="m248 7.761719-104 160h104" fill="#dc6068"/><path d="m248 167.761719h104l-104-160" fill="#ca5057"/><path d="m144 463.761719c-13.230469 0-24-10.769531-24-24s10.769531-24 24-24 24 10.769531 24 24-10.769531 24-24 24zm0-32c-4.40625 0-8 3.59375-8 8 0 4.410156 3.59375 8 8 8s8-3.589844 8-8c0-4.40625-3.59375-8-8-8zm0 0"/><path d="m144 495.761719c-30.878906 0-56-25.121094-56-56 0-30.878907 25.121094-56 56-56s56 25.121093 56 56c0 30.878906-25.121094 56-56 56zm0-96c-22.054688 0-40 17.945312-40 40 0 22.054687 17.945312 40 40 40s40-17.945313 40-40c0-22.054688-17.945312-40-40-40zm0 0"/><path d="m360 463.761719c-13.230469 0-24-10.769531-24-24s10.769531-24 24-24 24 10.769531 24 24-10.769531 24-24 24zm0-32c-4.40625 0-8 3.59375-8 8 0 4.410156 3.59375 8 8 8s8-3.589844 8-8c0-4.40625-3.59375-8-8-8zm0 0"/><path d="m360 495.761719c-30.878906 0-56-25.121094-56-56 0-30.878907 25.121094-56 56-56s56 25.121093 56 56c0 30.878906-25.121094 56-56 56zm0-96c-22.054688 0-40 17.945312-40 40 0 22.054687 17.945312 40 40 40s40-17.945313 40-40c0-22.054688-17.945312-40-40-40zm0 0"/><path d="m192 431.761719h120v16h-120zm0 0"/><path d="m464 447.761719h-56v-16h48v-84.6875l-91.3125-91.3125h-153.375l-93.65625 93.65625c-1.496094 1.503906-3.535156 2.34375-5.65625 2.34375h-48c-4.40625 0-8 3.59375-8 8v72h40v16h-48c-4.414062 0-8-3.582031-8-8v-80c0-13.230469 10.769531-24 24-24h44.6875l93.65625-93.65625c1.496094-1.503907 3.535156-2.34375 5.65625-2.34375h160c2.121094 0 4.160156.839843 5.65625 2.34375l96 96c1.503906 1.496093 2.34375 3.535156 2.34375 5.65625v96c0 4.417969-3.585938 8-8 8zm0 0"/><path d="m80 399.761719h-32v-16h24v-40h16v48c0 4.417969-3.585938 8-8 8zm0 0"/><path d="m280 351.761719h-96c-4.414062 0-8-3.582031-8-8v-24c0-2.121094.839844-4.160157 2.34375-5.65625l40-40c1.496094-1.503907 3.535156-2.34375 5.65625-2.34375h56c4.414062 0 8 3.585937 8 8v64c0 4.417969-3.585938 8-8 8zm-88-16h80v-48h-44.6875l-35.3125 35.3125zm0 0"/><path d="m392 351.761719h-80c-4.414062 0-8-3.582031-8-8v-64c0-4.414063 3.585938-8 8-8h40c2.121094 0 4.160156.839843 5.65625 2.34375l40 40c1.503906 1.496093 2.34375 3.535156 2.34375 5.65625v24c0 4.417969-3.585938 8-8 8zm-72-16h64v-12.6875l-35.3125-35.3125h-28.6875zm0 0"/><path d="m256 367.761719h32v16h-32zm0 0"/><path d="m304 367.761719h32v16h-32zm0 0"/><path d="m88 319.761719c-15.113281 0-27.816406-10.527344-31.144531-24.640625-18.664063-3.375-32.855469-19.742188-32.855469-39.359375 0-2.085938.175781-4.167969.535156-6.265625-14.917968-8.398438-24.535156-24.382813-24.535156-41.734375 0-10.160157 3.167969-19.878907 9.039062-28-5.871093-8.121094-9.039062-17.839844-9.039062-28 0-26.472657 21.527344-48 48-48s48 21.527343 48 48c0 10.160156-3.167969 19.878906-9.039062 28 5.871093 8.121093 9.039062 17.839843 9.039062 28 0 6.65625-1.414062 13.214843-4.136719 19.320312 7.695313 7.472657 12.136719 17.761719 12.136719 28.679688 0 1.410156-.089844 2.824219-.265625 4.257812 9.851563 5.582031 16.265625 16.152344 16.265625 27.742188 0 17.648437-14.351562 32-32 32zm-40-200c-17.648438 0-32 14.351562-32 32 0 8.410156 3.265625 16.359375 9.191406 22.390625 3.046875 3.113281 3.046875 8.097656 0 11.210937-5.925781 6.039063-9.191406 13.992188-9.191406 22.398438 0 13.375 8.160156 25.097656 20.777344 29.839843 4.078125 1.535157 6.183594 6.054688 4.71875 10.167969-1 2.839844-1.496094 5.457031-1.496094 7.992188 0 13.230469 10.769531 24 24 24 4.414062 0 8 3.585937 8 8 0 8.824219 7.175781 16 16 16s16-7.175781 16-16c0-7.039063-4.792969-13.335938-11.648438-15.289063-2.054687-.582031-3.785156-1.964844-4.816406-3.832031-1.023437-1.871094-1.261718-4.078125-.664062-6.125.777344-2.585937 1.128906-4.738281 1.128906-6.753906 0-8.03125-4.007812-15.503907-10.726562-19.976563-3.617188-2.40625-4.648438-7.269531-2.320313-10.941406 3.304687-5.195312 5.046875-11.097656 5.046875-17.082031 0-8.40625-3.265625-16.359375-9.191406-22.390625-3.046875-3.113282-3.046875-8.097656 0-11.210938 5.925781-6.039062 9.191406-13.988281 9.191406-22.398437 0-17.648438-14.351562-32-32-32zm0 0"/><path d="m408 239.761719c-17.648438 0-32-14.351563-32-32 0-11.589844 6.414062-22.160157 16.265625-27.742188-.175781-1.433593-.265625-2.847656-.265625-4.257812 0-10.917969 4.441406-21.207031 12.136719-28.679688-2.722657-6.105469-4.136719-12.664062-4.136719-19.320312 0-10.160157 3.167969-19.878907 9.039062-28-5.871093-8.121094-9.039062-17.832031-9.039062-28 0-26.472657 21.527344-48 48-48s48 21.527343 48 48c0 10.160156-3.167969 19.878906-9.039062 28 5.871093 8.121093 9.039062 17.832031 9.039062 28 0 17.351562-9.617188 33.335937-24.535156 41.734375.359375 2.097656.535156 4.179687.535156 6.265625 0 19.617187-14.191406 35.984375-32.855469 39.359375-3.328125 14.113281-16.03125 24.640625-31.144531 24.640625zm40-200c-17.648438 0-32 14.351562-32 32 0 8.410156 3.265625 16.359375 9.183594 22.390625 3.054687 3.113281 3.054687 8.097656 0 11.210937-5.917969 6.039063-9.183594 13.992188-9.183594 22.398438 0 5.984375 1.742188 11.886719 5.039062 17.082031 2.335938 3.671875 1.304688 8.535156-2.320312 10.941406-6.710938 4.472656-10.71875 11.945313-10.71875 19.976563 0 2.015625.351562 4.167969 1.121094 6.753906.605468 2.046875.367187 4.253906-.664063 6.125-1.03125 1.875-2.761719 3.25-4.816406 3.832031-6.847656 1.953125-11.640625 8.25-11.640625 15.289063 0 8.824219 7.175781 16 16 16s16-7.175781 16-16c0-4.414063 3.585938-8 8-8 13.230469 0 24-10.769531 24-24 0-2.535157-.496094-5.152344-1.503906-7.992188-1.464844-4.113281.640625-8.632812 4.71875-10.167969 12.433594-4.671874 20.785156-16.671874 20.785156-29.839843 0-8.40625-3.265625-16.359375-9.183594-22.390625-3.054687-3.113282-3.054687-8.097656 0-11.210938 5.917969-6.039062 9.183594-13.988281 9.183594-22.398437 0-17.648438-14.351562-32-32-32zm0 0"/><path d="m352 175.761719h-208c-2.9375 0-5.632812-1.609375-7.03125-4.183594-1.402344-2.574219-1.273438-5.710937.328125-8.175781l104-160c2.949219-4.535156 10.464844-4.535156 13.414063 0l104 160c1.601562 2.464844 1.722656 5.601562.328124 8.175781-1.390624 2.574219-4.101562 4.183594-7.039062 4.183594zm-193.257812-16h178.515624l-89.257812-137.320313zm0 0"/><path d="m240 127.761719h16v16h-16zm0 0"/><path d="m240 63.761719h16v48h-16zm0 0"/><path d="m224 167.761719h16v56h-16zm0 0"/><path d="m256 167.761719h16v56h-16zm0 0"/></svg>