<?xml version="1.0"?>
<svg xmlns="http://www.w3.org/2000/svg" xmlns:xlink="http://www.w3.org/1999/xlink" xmlns:svgjs="http://svgjs.com/svgjs" version="1.1" width="512" height="512" x="0" y="0" viewBox="0 0 512 512" style="enable-background:new 0 0 512 512" xml:space="preserve" class=""><g><title xmlns="http://www.w3.org/2000/svg">Car Repair</title><path xmlns="http://www.w3.org/2000/svg" d="M486,276.28l-51.44.02-16.82-31h.01s26.19.11,38.92.11,23.16,6.17,26.24,15.44A64.231,64.231,0,0,1,486,276.28Z" style="" fill="#f3324c" data-original="#6fe3ff" class=""/><path xmlns="http://www.w3.org/2000/svg" d="M472.11,320.29l-11.83,89.49a19.348,19.348,0,0,1-19.3,19.29H70.51a19.346,19.346,0,0,1-19.29-19.29L39.89,320.29c0-19.92,13.89-37.95,33.8-37.99l-.09.16H437.83v.01C457.77,282.47,472.11,300.35,472.11,320.29Zm-39.52,34.65a20,20,0,1,0-20,20A20,20,0,0,0,432.59,354.94Zm-83.97,7.79-6.39-18.78c-3.42-10.05-14.9-18.27-25.51-18.27H194.78c-10.62,0-22,8.25-25.29,18.34l-6.11,18.71Zm-229.21-7.79a20,20,0,1,0-20,20A19.994,19.994,0,0,0,119.41,354.94Z" style="" fill="#dfdfdf" data-original="#e48e66" class=""/><path xmlns="http://www.w3.org/2000/svg" d="M446,69.31l-.01.01-31.15-.11L397.2,94.42l16.57,24.88h32.19a56.151,56.151,0,0,1-102.85-5.39H168.89A56.151,56.151,0,0,1,66,119.22h.01l31.15.11L114.8,94.12,98.23,69.23H66.04a56.151,56.151,0,0,1,102.85,5.39H343.11A56.151,56.151,0,0,1,446,69.31Z" style="" fill="#f3324c" data-original="#6fe3ff" class=""/><path xmlns="http://www.w3.org/2000/svg" d="M438.92,430.65v33.57a9.656,9.656,0,0,1-9.65,9.65h-29.3a9.654,9.654,0,0,1-9.64-9.65V429.07h48.59Z" style="" fill="#ffffff" data-original="#f8ec7d" class=""/><path xmlns="http://www.w3.org/2000/svg" d="M73.69,282.3l3.42-6.06,17.35-30.75,18.43-32.66c10.11-20.84,26.23-38.43,47.88-38.43H352.85c21.65,0,35.65,17.59,47.34,38.55l17.55,32.35,16.82,31,3.34,6.16H385v-1.33a40,40,0,0,0-80,0v1.33H73.6Z" style="" fill="#ffffff" data-original="#f8ec7d" class=""/><circle xmlns="http://www.w3.org/2000/svg" cx="412.59" cy="354.94" r="20" style="" fill="#f3324c" data-original="#6fe3ff" class=""/><path xmlns="http://www.w3.org/2000/svg" d="M385,281.13v1.33H305v-1.33a40,40,0,0,1,80,0Z" style="" fill="#f3324c" data-original="#6fe3ff" class=""/><path xmlns="http://www.w3.org/2000/svg" d="M342.23,343.95l6.39,18.78H163.38l6.11-18.71c3.29-10.09,14.67-18.34,25.29-18.34H316.72C327.33,325.68,338.81,333.9,342.23,343.95Z" style="" fill="#ffffff" data-original="#f8ec7d" class=""/><path xmlns="http://www.w3.org/2000/svg" d="M121.67,430.65v33.57a9.656,9.656,0,0,1-9.65,9.65H82.73a9.656,9.656,0,0,1-9.65-9.65V429.07h48.59Z" style="" fill="#ffffff" data-original="#f8ec7d" class=""/><circle xmlns="http://www.w3.org/2000/svg" cx="99.41" cy="354.94" r="20" style="" fill="#f3324c" data-original="#6fe3ff" class=""/><path xmlns="http://www.w3.org/2000/svg" d="M94.46,245.49,77.11,276.24l-.03-.02L26,276.28a64.231,64.231,0,0,1,3.09-15.43c3.08-9.27,13.5-15.44,26.24-15.44s39.09.06,39.09.06Z" style="" fill="#f3324c" data-original="#6fe3ff" class=""/><path xmlns="http://www.w3.org/2000/svg" d="M445.965,76h.025a6.791,6.791,0,0,0,6.278-9.888A62.6,62.6,0,0,0,395.71,31.28,63.7,63.7,0,0,0,338.46,68H173.54a63.662,63.662,0,0,0-57.25-36.68A62.759,62.759,0,0,0,59.778,66.2a6.691,6.691,0,0,0,.308,6.646A6.85,6.85,0,0,0,66.04,76H94.481l11.844,17.906-12.8,18.354L66,112.191a7.019,7.019,0,0,0-6.268,10.139A63.15,63.15,0,0,0,173.54,121H338.46a63.158,63.158,0,0,0,113.762,1.45,7.316,7.316,0,0,0-.308-6.971A7.159,7.159,0,0,0,445.96,112H417.519L405.675,94.368l12.8-18.38ZM414.84,62a7.1,7.1,0,0,0-5.736,3.092L391.465,90.355a7.04,7.04,0,0,0-.091,7.919l16.57,24.743A6.874,6.874,0,0,0,413.77,126h19.224a48.192,48.192,0,0,1-37.284,17.25,49.244,49.244,0,0,1-46.042-31.818A6.894,6.894,0,0,0,343.11,107H168.89a6.961,6.961,0,0,0-6.558,4.507,49.051,49.051,0,0,1-83.358,14.6L97.135,126h.025a6.851,6.851,0,0,0,5.736-2.822L120.535,98.05a6.928,6.928,0,0,0,.091-7.85L104.057,65.216A7.091,7.091,0,0,0,98.23,62H79.009c9.2-11,22.669-16.985,37.281-16.985A49.59,49.59,0,0,1,162.333,77.2,7.233,7.233,0,0,0,168.89,82H343.11a7.177,7.177,0,0,0,6.557-4.741A49.45,49.45,0,0,1,395.71,45.225a48.7,48.7,0,0,1,37.325,16.992L414.865,62Z" style="" fill="#6c6c6c" data-original="#63316d" class=""/><path xmlns="http://www.w3.org/2000/svg" d="M99.41,327.94a27,27,0,1,0,27,27A27.031,27.031,0,0,0,99.41,327.94Zm0,40a13,13,0,1,1,13-13A13.015,13.015,0,0,1,99.41,367.94Z" style="" fill="#6c6c6c" data-original="#63316d" class=""/><path xmlns="http://www.w3.org/2000/svg" d="M412.59,327.94a27,27,0,1,0,27,27A27.031,27.031,0,0,0,412.59,327.94Zm0,40a13,13,0,1,1,13-13A13.014,13.014,0,0,1,412.59,367.94Z" style="" fill="#6c6c6c" data-original="#63316d" class=""/><path xmlns="http://www.w3.org/2000/svg" d="M456.67,238.41c-9.544,0-26.854-.063-34.754-.094L406.3,209.341C395.361,189.721,379.4,167,352.85,167H160.77c-21.628,0-40.829,15.178-54.082,42.377l-16.3,28.984c-7.884-.017-25.394,0-35.06,0-15.892,0-28.8,7.967-32.88,20.249a71.352,71.352,0,0,0-3.442,17.32,6.7,6.7,0,0,0,1.927,5.036A6.872,6.872,0,0,0,26,283h.008l24.281.111c-10.583,8.055-17.4,21.583-17.4,37.109a7.538,7.538,0,0,0,.056.914l11.239,89.1A26.543,26.543,0,0,0,66,435.689V464.22A16.849,16.849,0,0,0,82.73,481h29.29A17.066,17.066,0,0,0,129,464.22V436H383v28.22A17.061,17.061,0,0,0,399.97,481h29.3A16.849,16.849,0,0,0,446,464.22V435.6a26.289,26.289,0,0,0,21.315-25.324l11.754-89.069a6.848,6.848,0,0,0,.051-.917c0-15.351-7.153-28.919-18.02-37l24.9-.01a7,7,0,0,0,6.987-7.339,71.3,71.3,0,0,0-3.438-17.3C485.47,246.352,472.562,238.41,456.67,238.41ZM118.986,216.041c.072-.126.139-.341.2-.47C125.436,202.691,139.146,181,160.77,181H352.85c15.231,0,27.56,10.425,41.187,34.858L426.141,275h-34.5a46.988,46.988,0,0,0-93.292,0H85.587ZM377.5,275h-65c2.7-15,16.24-27.33,32.5-27.33S374.806,260,377.5,275ZM35.733,263.057c2.116-6.369,9.991-10.647,19.6-10.647,7.125,0,18.519.019,27.169.035l-9.468,16.779-38.97.047A56.27,56.27,0,0,1,35.733,263.057ZM115,464.22a3.068,3.068,0,0,1-2.98,2.78H82.73A2.837,2.837,0,0,1,80,464.22V436h35ZM429.27,467h-29.3a3.063,3.063,0,0,1-2.97-2.78V436h35v28.22A2.837,2.837,0,0,1,429.27,467Zm24.07-58.137a6.5,6.5,0,0,0-.06.882A12.28,12.28,0,0,1,440.98,422H70.51a12.274,12.274,0,0,1-12.29-12.255,6.692,6.692,0,0,0-.055-.861L46.893,319.86c.178-14.661,9.642-29.907,25.5-30.752A7.268,7.268,0,0,0,73.6,289H437.637c.065,0,.128.24.193.24,14.912,0,27.067,13.7,27.277,30.5ZM438.725,269.3l-9.2-16.953c8.635.03,20.035.065,27.143.065,9.606,0,17.481,4.278,19.6,10.655a56.5,56.5,0,0,1,1.672,6.218Z" style="" fill="#6c6c6c" data-original="#63316d" class=""/><path xmlns="http://www.w3.org/2000/svg" d="M163.38,370H348.62a7.19,7.19,0,0,0,6.627-9.457l-6.39-18.654C344.465,328.983,330.349,319,316.72,319H194.78c-13.677,0-27.709,10.018-31.944,23.007l-6.11,18.631a7.2,7.2,0,0,0,.988,6.378A7.09,7.09,0,0,0,163.38,370Zm12.766-23.516C178.492,339.287,187.2,333,194.78,333H316.72c7.608,0,16.431,6.3,18.883,13.5l3.241,9.5H173.03Z" style="" fill="#6c6c6c" data-original="#63316d" class=""/><path xmlns="http://www.w3.org/2000/svg" d="M373.06,380H144.61a7,7,0,0,0,0,14H373.06a7,7,0,0,0,0-14Z" style="" fill="#6c6c6c" data-original="#63316d" class=""/></g></svg>
