<?xml version="1.0"?>
<svg xmlns="http://www.w3.org/2000/svg" xmlns:xlink="http://www.w3.org/1999/xlink" xmlns:svgjs="http://svgjs.com/svgjs" version="1.1" width="512" height="512" x="0" y="0" viewBox="0 0 64 64" style="enable-background:new 0 0 512 512" xml:space="preserve" class=""><g><g xmlns="http://www.w3.org/2000/svg"><g><path d="m50.59 5h-3.58c-1.109 0-2 .9-2 2 0 1.11.891 2 2 2h3.58c-.78 1.77-2.53 3-4.58 3s-3.81-1.24-4.59-3c-.26-.61-.41-1.29-.41-2s.15-1.39.41-2c.78-1.76 2.54-3 4.59-3s3.8 1.24 4.58 3z" fill="#ffffff" data-original="#e6e9ed" style="" class=""/></g><g><path d="m19 5h22.42c-.26.61-.41 1.29-.41 2s.15 1.39.41 2h-9.42-13c-1.1 0-2-.9-2-2 0-1.11.9-2 2-2z" fill="#fd3752" data-original="#ccd1d9" style="" class=""/></g><g><path d="m26 54h-3.5c-.83 0-1.5-.67-1.5-1.5s.67-1.5 1.5-1.5 3.5 1 3.5 3z" fill="#ffffff" data-original="#ffce54" style="" class=""/></g><g><path d="m41 58h5v4h-5z" fill="#ffffff" data-original="#656d78" style="" class=""/></g><g><path d="m43.5 43-.5-4h9v23h-6v-4-8l-2-3z" fill="#d5d5d5" data-original="#545c66" style="" class=""/></g><g><path d="m23 58h18v4h-18z" fill="#d5d5d5" data-original="#545c66" style="" class=""/></g><g><path d="m18 58h5v4h-5z" fill="#ffffff" data-original="#656d78" style="" class=""/></g><g><path d="m21 52.5c0 .83.67 1.5 1.5 1.5h3.5c0-2-2.67-3-3.5-3s-1.5.67-1.5 1.5zm22 0c0-.83-.67-1.5-1.5-1.5s-3.5 1-3.5 3h3.5c.83 0 1.5-.67 1.5-1.5zm3-2.5v8h-5-18-5v-8l2-3h24z" fill="#fd3752" data-original="#ed5565" style="" class=""/></g><g><path d="m41.5 51c.83 0 1.5.67 1.5 1.5s-.67 1.5-1.5 1.5h-3.5c0-2 2.67-3 3.5-3z" fill="#ffffff" data-original="#ffce54" style="" class=""/></g><g><path d="m52 35v4h-9-22-9v-4z" fill="#ffffff" data-original="#656d78" style="" class=""/></g><g><path d="m43.5 43 .5 4h-24l.5-4 .5-4h22z" fill="#ffffff" data-original="#5d9cec" style="" class=""/></g><g><path d="m58 27.9v34.1h-6v-23-4-4h-40v4 4 23h-6v-34.1l26-10.9z" fill="#ffffff" data-original="#e6e9ed" style="" class=""/></g><g><path d="m12 31h40v4h-40z" fill="#ffffff" data-original="#656d78" style="" class=""/></g><g><path d="m20.5 43-.5 4-2 3v8 4h-6v-23h9z" fill="#d5d5d5" data-original="#545c66" style="" class=""/></g><g><path d="m63 26v4l-5-2.1-26-10.9-26 10.9-5 2.1v-4l31-13z" fill="#ffffff" data-original="#656d78" style="" class=""/></g><g><path d="m20 47-2 3h28l-2-3z" fill="#ffffff" data-original="#da4453" style="" class=""/></g></g><g xmlns="http://www.w3.org/2000/svg"><g><g><path d="m1 27c-.391 0-.762-.23-.922-.613-.214-.51.025-1.096.535-1.309l31-13c.509-.217 1.096.026 1.309.535.214.51-.025 1.096-.535 1.309l-31 13c-.126.054-.258.078-.387.078z" fill="#6c6c6c" data-original="#000000" style="" class=""/></g><g><path d="m63 27c-.129 0-.261-.024-.387-.078l-31-13c-.51-.213-.749-.799-.535-1.309.212-.509.801-.753 1.309-.535l31 13c.51.213.749.799.535 1.309-.16.383-.531.613-.922.613z" fill="#6c6c6c" data-original="#000000" style="" class=""/></g><g><path d="m1 31c-.391 0-.762-.23-.922-.613-.214-.51.025-1.096.535-1.309l31-13c.509-.216 1.096.026 1.309.535.214.51-.025 1.096-.535 1.309l-31 13c-.126.054-.258.078-.387.078z" fill="#6c6c6c" data-original="#000000" style="" class=""/></g><g><path d="m63 31c-.129 0-.261-.024-.387-.078l-31-13c-.51-.213-.749-.799-.535-1.309.212-.509.801-.752 1.309-.535l31 13c.51.213.749.799.535 1.309-.16.383-.531.613-.922.613z" fill="#6c6c6c" data-original="#000000" style="" class=""/></g><g><path d="m1 31c-.553 0-1-.447-1-1v-4c0-.553.447-1 1-1s1 .447 1 1v4c0 .553-.447 1-1 1z" fill="#6c6c6c" data-original="#000000" style="" class=""/></g><g><path d="m63 31c-.553 0-1-.447-1-1v-4c0-.553.447-1 1-1s1 .447 1 1v4c0 .553-.447 1-1 1z" fill="#6c6c6c" data-original="#000000" style="" class=""/></g><g><path d="m6 63c-.553 0-1-.447-1-1v-34.096c0-.553.447-1 1-1s1 .447 1 1v34.096c0 .553-.447 1-1 1z" fill="#6c6c6c" data-original="#000000" style="" class=""/></g><g><path d="m58 63c-.553 0-1-.447-1-1v-34.096c0-.553.447-1 1-1s1 .447 1 1v34.096c0 .553-.447 1-1 1z" fill="#6c6c6c" data-original="#000000" style="" class=""/></g><g><path d="m63 63h-62c-.553 0-1-.447-1-1s.447-1 1-1h62c.553 0 1 .447 1 1s-.447 1-1 1z" fill="#6c6c6c" data-original="#000000" style="" class=""/></g><g><path d="m52 63c-.553 0-1-.447-1-1v-30h-38v30c0 .553-.447 1-1 1s-1-.447-1-1v-31c0-.553.447-1 1-1h40c.553 0 1 .447 1 1v31c0 .553-.447 1-1 1z" fill="#6c6c6c" data-original="#000000" style="" class=""/></g><g><path d="m52 36h-40c-.553 0-1-.447-1-1s.447-1 1-1h40c.553 0 1 .447 1 1s-.447 1-1 1z" fill="#6c6c6c" data-original="#000000" style="" class=""/></g><g><path d="m52 40h-40c-.553 0-1-.447-1-1s.447-1 1-1h40c.553 0 1 .447 1 1s-.447 1-1 1z" fill="#6c6c6c" data-original="#000000" style="" class=""/></g><g><g><path d="m18 63c-.553 0-1-.447-1-1v-4c0-.553.447-1 1-1s1 .447 1 1v4c0 .553-.447 1-1 1z" fill="#6c6c6c" data-original="#000000" style="" class=""/></g><g><path d="m23 63c-.553 0-1-.447-1-1v-4c0-.553.447-1 1-1s1 .447 1 1v4c0 .553-.447 1-1 1z" fill="#6c6c6c" data-original="#000000" style="" class=""/></g><g><path d="m41 63c-.553 0-1-.447-1-1v-4c0-.553.447-1 1-1s1 .447 1 1v4c0 .553-.447 1-1 1z" fill="#6c6c6c" data-original="#000000" style="" class=""/></g><g><path d="m46 63c-.553 0-1-.447-1-1v-4c0-.553.447-1 1-1s1 .447 1 1v4c0 .553-.447 1-1 1z" fill="#6c6c6c" data-original="#000000" style="" class=""/></g><g><path d="m46 59h-28c-.553 0-1-.447-1-1s.447-1 1-1h28c.553 0 1 .447 1 1s-.447 1-1 1z" fill="#6c6c6c" data-original="#000000" style="" class=""/></g><g><path d="m18 59c-.553 0-1-.447-1-1v-8c0-.553.447-1 1-1s1 .447 1 1v8c0 .553-.447 1-1 1z" fill="#6c6c6c" data-original="#000000" style="" class=""/></g><g><path d="m46 59c-.553 0-1-.447-1-1v-7.998c0-.553.447-1 1-1s1 .447 1 1v7.998c0 .553-.447 1-1 1z" fill="#6c6c6c" data-original="#000000" style="" class=""/></g><g><path d="m29 55c-.553 0-1-.447-1-1v-1c0-.553.447-1 1-1s1 .447 1 1v1c0 .553-.447 1-1 1z" fill="#6c6c6c" data-original="#000000" style="" class=""/></g><g><path d="m32 55c-.553 0-1-.447-1-1v-1c0-.553.447-1 1-1s1 .447 1 1v1c0 .553-.447 1-1 1z" fill="#6c6c6c" data-original="#000000" style="" class=""/></g><g><path d="m35 55c-.553 0-1-.447-1-1v-1c0-.553.447-1 1-1s1 .447 1 1v1c0 .553-.447 1-1 1z" fill="#6c6c6c" data-original="#000000" style="" class=""/></g><g><path d="m20.001 48c-.041 0-.083-.003-.125-.008-.548-.068-.937-.568-.868-1.116l1-8c.069-.548.562-.93 1.116-.868.548.068.937.568.868 1.116l-1 8c-.063.506-.494.876-.991.876z" fill="#6c6c6c" data-original="#000000" style="" class=""/></g><g><path d="m43.999 48c-.497 0-.928-.37-.991-.876l-1-8c-.068-.548.32-1.048.868-1.116.55-.062 1.048.32 1.116.868l1 8c.068.548-.32 1.048-.868 1.116-.042.005-.084.008-.125.008z" fill="#6c6c6c" data-original="#000000" style="" class=""/></g><g><path d="m26.02 55c-.005 0-.013.001-.02 0h-3.5c-1.379 0-2.5-1.121-2.5-2.5s1.121-2.5 2.5-2.5c1.305 0 4.309 1.278 4.491 3.761.019.077.029.157.029.239 0 .553-.448 1-1 1zm-3.52-3c-.275 0-.5.225-.5.5s.225.5.5.5h2.027c-.623-.631-1.681-1-2.027-1z" fill="#6c6c6c" data-original="#000000" style="" class=""/></g><g><path d="m41.5 55h-3.5c-.553 0-1-.447-1-1 0-2.639 3.154-4 4.5-4 1.379 0 2.5 1.121 2.5 2.5s-1.121 2.5-2.5 2.5zm-2.027-2h2.027c.275 0 .5-.225.5-.5s-.225-.5-.5-.5c-.346 0-1.404.369-2.027 1z" fill="#6c6c6c" data-original="#000000" style="" class=""/></g><g><path d="m17.999 51c-.19 0-.383-.055-.554-.168-.46-.307-.584-.927-.277-1.387l2-3c.305-.459.926-.583 1.387-.277.46.307.584.927.277 1.387l-2 3c-.192.289-.51.445-.833.445z" fill="#6c6c6c" data-original="#000000" style="" class=""/></g><g><path d="m46.001 51.002c-.323 0-.641-.156-.833-.445l-2-3.002c-.307-.46-.182-1.081.277-1.387.46-.306 1.081-.182 1.387.277l2 3.002c.307.46.182 1.081-.277 1.387-.171.113-.364.168-.554.168z" fill="#6c6c6c" data-original="#000000" style="" class=""/></g><g><path d="m44 48h-24c-.553 0-1-.447-1-1s.447-1 1-1h24c.553 0 1 .447 1 1s-.447 1-1 1z" fill="#6c6c6c" data-original="#000000" style="" class=""/></g><g><path d="m46 44h-2.5c-.553 0-1-.447-1-1s.447-1 1-1h2.5c.553 0 1 .447 1 1s-.447 1-1 1z" fill="#6c6c6c" data-original="#000000" style="" class=""/></g><g><path d="m20.5 44h-2.5c-.553 0-1-.447-1-1s.447-1 1-1h2.5c.553 0 1 .447 1 1s-.447 1-1 1z" fill="#6c6c6c" data-original="#000000" style="" class=""/></g></g></g><g><g><path d="m46.008 13c-3.309 0-6-2.691-6-6s2.691-6 6-6c2.313 0 4.415 1.335 5.411 3.418.117.163.186.364.186.582 0 .553-.447 1-1 1-.005 0-.012.001-.02 0h-3.578c-.552 0-1 .448-1 1s.448 1 1 1h3.578c.338 0 .652.17.837.453.185.282.215.639.079.948-.957 2.186-3.113 3.599-5.493 3.599zm0-10c-2.206 0-4 1.794-4 4s1.794 4 4 4c.991 0 1.924-.368 2.641-1h-1.641c-1.654 0-3-1.346-3-3s1.346-3 3-3h1.64c-.717-.632-1.65-1-2.64-1z" fill="#6c6c6c" data-original="#000000" style="" class=""/></g><g><path d="m19 10c-1.654 0-3-1.346-3-3s1.346-3 3-3c.553 0 1 .447 1 1s-.447 1-1 1c-.552 0-1 .448-1 1s.448 1 1 1c.553 0 1 .447 1 1s-.447 1-1 1z" fill="#6c6c6c" data-original="#000000" style="" class=""/></g><g><path d="m41.424 10h-22.424c-.553 0-1-.447-1-1s.447-1 1-1h22.424c.553 0 1 .447 1 1s-.447 1-1 1z" fill="#6c6c6c" data-original="#000000" style="" class=""/></g><g><path d="m41.424 6h-22.424c-.553 0-1-.447-1-1s.447-1 1-1h22.424c.553 0 1 .447 1 1s-.447 1-1 1z" fill="#6c6c6c" data-original="#000000" style="" class=""/></g></g><g><path d="m32 14c-.553 0-1-.447-1-1v-4c0-.553.447-1 1-1s1 .447 1 1v4c0 .553-.447 1-1 1z" fill="#6c6c6c" data-original="#000000" style="" class=""/></g></g></g></svg>
