<svg height="512" viewBox="0 0 512 512" width="512" xmlns="http://www.w3.org/2000/svg"><g id="Filled_outline" data-name="Filled outline"><path d="m152 321.684v-131.368a87.824 87.824 0 0 0 43.693-105.441l-51.693 51.276a19.39 19.39 0 0 1 -13.741 5.6 19.389 19.389 0 0 1 -13.6-5.679l-28.73-28.73a19.388 19.388 0 0 1 -5.679-13.6 19.39 19.39 0 0 1 5.599-13.742l51.276-51.693a87.706 87.706 0 0 0 -38.015-3.632c-41.427 5.137-74.359 40.073-76.937 81.738a87.913 87.913 0 0 0 47.827 83.903v131.368a87.824 87.824 0 0 0 -43.693 105.441l51.693-51.276a19.39 19.39 0 0 1 13.741-5.6 19.389 19.389 0 0 1 13.6 5.679l28.73 28.73a19.388 19.388 0 0 1 5.679 13.6 19.39 19.39 0 0 1 -5.6 13.741l-51.275 51.694a87.706 87.706 0 0 0 38.015 3.632c41.427-5.137 74.359-40.073 76.937-81.738a87.913 87.913 0 0 0 -47.827-83.903z" fill="#d6d6d4"/><path d="m152 321.684v-100.351l-80 80v20.351a87.824 87.824 0 0 0 -43.693 105.441l51.693-51.276a19.39 19.39 0 0 1 27.345.076l28.73 28.729a19.391 19.391 0 0 1 .076 27.346l-51.276 51.693a87.706 87.706 0 0 0 38.015 3.632c41.427-5.137 74.359-40.073 76.937-81.738a87.913 87.913 0 0 0 -47.827-83.903z" fill="#c7c7c5"/><path d="m104 184h16v144h-16z" fill="#b0b0ae"/><path d="m488 400v-70.37a48 48 0 0 0 -41.212-47.517l-70.788-10.113v-48h-80v48l-74.057 15.869a48 48 0 0 0 -37.943 46.931v65.2" fill="#fec9a3"/><path d="m296 224v27.856a71.963 71.963 0 0 0 80 0v-27.856z" fill="#feb784"/><path d="m446.788 282.112-70.788-10.112-17.143 48h-45.714l-17.143-48-74.058 15.869a48 48 0 0 0 -37.942 46.931v65.2h304v-70.37a48 48 0 0 0 -41.212-47.518z" fill="#e0e0de"/><path d="m488 329.63v86.37h-56v80h-192v-72h-56v-89.2a48 48 0 0 1 37.94-46.93l74.06-15.87 40 112 40-112 70.79 10.11a48.017 48.017 0 0 1 41.21 47.52z" fill="#425b82"/><path d="m488 329.63v86.37h-56v80h-192v-37.76c91.59-36.41 168.66-75.08 233.16-163.31a47.9 47.9 0 0 1 14.84 34.7z" fill="#3c5174"/><g fill="#334562"><path d="m328 384h16v112h-16z"/><path d="m360 376h72v16h-72z"/><path d="m296 368h16v16h-16z"/><path d="m424 352h16v128h-16z"/><path d="m232 352h16v128h-16z"/></g><path d="m265.871 278.456 6.129 73.544 43.661-24.949-19.661-63.051z" fill="#49648e"/><path d="m356.339 327.051 43.661 24.949 6.306-75.671-30.306-12.329z" fill="#49648e"/><path d="m216 488h24l152-32h40l16-16h40v-56h-40l-56 24-208 16v32a32 32 0 0 0 32 32z" fill="#feb784"/><path d="m456 488h-24l-152-32h-40l-16-16h-40v-56h40l56 24 208 16v32a32 32 0 0 1 -32 32z" fill="#fec9a3"/><path d="m416 128h-8v48h8a24 24 0 1 0 0-48z" fill="#feb784"/><path d="m256.4 128h-.4a24 24 0 0 0 0 48h8v-48z" fill="#feb784"/><path d="m408 120v56a72.006 72.006 0 0 1 -72 72 73.884 73.884 0 0 1 -7.48-.38 72.025 72.025 0 0 1 -64.52-71.62v-56a72.006 72.006 0 0 1 72-72q3 0 5.94.24a.01.01 0 0 1 .01.01 72 72 0 0 1 66.05 71.75z" fill="#fec9a3"/><path d="m408 120v56a72.006 72.006 0 0 1 -72 72 73.884 73.884 0 0 1 -7.48-.38 87.994 87.994 0 0 0 50.48-79.62v-48a88.1 88.1 0 0 0 -37.05-71.75 72 72 0 0 1 66.05 71.75z" fill="#fec093"/><path d="m301.8 89.157a174.36 174.36 0 0 0 68.4 0l5.8-1.157 32 37.333v-5.333a72 72 0 0 0 -144 0v5.331l32-37.331z" fill="#7a432a"/><path d="m328.938 200h-16.938v-16h16.938a99.077 99.077 0 0 0 28.742-4.215l4.64 15.313a115.016 115.016 0 0 1 -33.382 4.902z" fill="#f7a468"/><circle cx="372" cy="147.998" fill="#7a432a" r="12"/><circle cx="300" cy="147.996" fill="#7a432a" r="12"/><path d="m417.77 113.06a24.289 24.289 0 0 1 -28.27 23.86l-21.94-3.66a192.325 192.325 0 0 0 -63.12 0l-21.94 3.66a24.247 24.247 0 0 1 -26.5-32.92h160a24.361 24.361 0 0 1 1.77 9.06z" fill="#49648e"/><path d="m416 72v32h-160v-32a48 48 0 0 1 48-48h64a47.982 47.982 0 0 1 15.18 2.46c.89.3 1.77.62 2.63.97a47.98 47.98 0 0 1 30.19 44.57z" fill="#425b82"/><path d="m416 72v32h-136c48-16 81.59-44.03 105.81-76.57a47.98 47.98 0 0 1 30.19 44.57z" fill="#3c5174"/><path d="m304 72h64v32h-64z" fill="#e0e0de"/><path d="m304 88h64v16h-64z" fill="#d6d6d4"/><path d="m417.77 113.06a24.289 24.289 0 0 1 -28.27 23.86l-21.94-3.66a191.346 191.346 0 0 0 -20.52-2.29c16.84-7.09 30.66-15.9 40.81-26.97h28.15a24.361 24.361 0 0 1 1.77 9.06z" fill="#425b82"/><path d="m447.927 274.16-39.563-5.63-24.364-9.912v-18.662a79.509 79.509 0 0 0 31.6-55.956h.4a32 32 0 0 0 8.712-62.785 31.856 31.856 0 0 0 -.712-18.609v-30.606a56 56 0 0 0 -56-56h-64a56 56 0 0 0 -56 56v30.606a31.856 31.856 0 0 0 -.712 18.609 32 32 0 0 0 8.712 62.785h.4a79.512 79.512 0 0 0 31.6 55.961v19l-24.8 11.9-42.983 9.16a56.472 56.472 0 0 0 -43.889 48.861 96.831 96.831 0 0 0 -16.328-11.945v-121.863a95.757 95.757 0 0 0 43.283-112.682 8 8 0 0 0 -13.238-3.192l-51.64 51.24a11.6 11.6 0 0 1 -8.165 3.319 11.337 11.337 0 0 1 -7.943-3.337l-28.72-28.722a11.338 11.338 0 0 1 -3.337-7.94 11.576 11.576 0 0 1 3.279-8.125l51.28-51.68a8 8 0 0 0 -3.195-13.24 95.944 95.944 0 0 0 -77.604 174.354v121.857a95.757 95.757 0 0 0 -43.283 112.682 8 8 0 0 0 13.238 3.192l51.64-51.24a11.6 11.6 0 0 1 8.165-3.319 11.337 11.337 0 0 1 7.943 3.337l28.72 28.719a11.338 11.338 0 0 1 3.337 7.944 11.576 11.576 0 0 1 -3.279 8.125l-51.281 51.679a8 8 0 0 0 3.2 13.24c33.137 10.825 70.861 1.908 95.845-22.107a40.063 40.063 0 0 0 37.755 26.822h24c.555 0 88-18.393 88-18.393v18.393h16v-18.351l86.352 18.18a8.074 8.074 0 0 0 1.648.171h24a40.045 40.045 0 0 0 40-40v-126.4a56.386 56.386 0 0 0 -48.073-55.44zm-111.927 86.026-11.519-32.186h23zm-32-110.9a79.6 79.6 0 0 0 64 0v13.5l-15.348 49.214h-33.3l-15.352-49.219zm62.1 73.34 14.948-47.934 16.8 6.834-4.775 57.3-26.928-15.387.256-.706zm2.78-197.256a199.584 199.584 0 0 0 -65.76 0l-21.94 3.656a16.277 16.277 0 0 1 -18.905-17.026h147.45a16.277 16.277 0 0 1 -18.905 17.026zm-8.88-29.37h-48v-16h48zm72 56a16.035 16.035 0 0 1 -16 16v-31.9c.032-.032.066-.061.1-.092a16.015 16.015 0 0 1 15.9 15.992zm-168-80a40 40 0 0 1 40-40h64a40 40 0 0 1 40 40v24h-32v-24a8 8 0 0 0 -8-8h-64a8 8 0 0 0 -8 8v24h-32zm-19.3 91.3a15.983 15.983 0 0 1 11.22-27.3l.08.082v31.918a16.108 16.108 0 0 1 -11.3-4.7zm27.3 12.7v-31.383a32.557 32.557 0 0 0 11.811.192l4.891-.816a12 12 0 1 0 20.713-3.413 183.523 183.523 0 0 1 53.17 0 12.006 12.006 0 1 0 20.713 3.413l4.891.816c3.436.691 9.742.23 11.811-.188v31.379a64 64 0 0 1 -128 0zm19.117 99.216 14.772 47.367-.3.108.272.748-26.931 15.387-4.63-55.541zm-67.53 20.448 35.067-7.473 5.373 64.474a8 8 0 0 0 4.248 6.415c1.167.614 6.466.568 7.694-.134l35.385-20.221 16.646 46.659v18.284l-46.065-3.543-33.935-14.543v-33.582h-16v26.725l-4.849-2.078a8 8 0 0 0 -3.151-.647h-32v-41.2a40.314 40.314 0 0 1 31.587-39.136zm-101.658 183.753a80.871 80.871 0 0 1 -21.316-.235l41.266-41.588a27.522 27.522 0 0 0 7.881-19.354 27.082 27.082 0 0 0 -8.023-19.257l-28.72-28.72a27.079 27.079 0 0 0 -19.257-8.023 27.555 27.555 0 0 0 -19.4 7.921l-41.541 41.225a79.86 79.86 0 0 1 42.823-82.586 8 8 0 0 0 4.358-7.12v-131.36a8 8 0 0 0 -4.354-7.121 80.208 80.208 0 0 1 -43.5-76.309c2.311-37.65 32.392-69.6 69.925-74.307a80.914 80.914 0 0 1 21.316.235l-41.266 41.588a27.522 27.522 0 0 0 -7.881 19.354 27.082 27.082 0 0 0 8.023 19.257l28.72 28.72a27.079 27.079 0 0 0 19.257 8.023 27.555 27.555 0 0 0 19.395-7.921l41.546-41.225a79.86 79.86 0 0 1 -42.823 82.586 8 8 0 0 0 -4.358 7.12v131.36a8 8 0 0 0 4.352 7.12 81 81 0 0 1 27.648 23.325v95.475a80.235 80.235 0 0 1 -54.071 31.817zm117.236.583h-23.165a24.027 24.027 0 0 1 -24-24v-8h28.687l13.656 13.657a8 8 0 0 0 5.657 2.343h39.167l17.932 3.775zm240.835-24a24.027 24.027 0 0 1 -24 24h-23.167l-151.185-31.829c-.542-.113-38.335-.171-38.335-.171l-13.656-13.657a8 8 0 0 0 -5.657-2.343h-32v-40h30.357s56.155 23.909 57.03 23.977l200.613 15.431zm0-40.639-71.938-5.534 41.585-17.827h30.353zm0-39.361h-32c-1.087 0-8 2.732-8 2.732v-26.732h-16v24h-64v16h49.052l-18.986 8.125-46.066 3.559v-18.3l16.646-46.66 35.385 20.221a8 8 0 0 0 11.942-6.281l5.6-67.232 32.073 4.568a40.292 40.292 0 0 1 34.354 39.6z"/><path d="m296 368h16v16h-16z"/><path d="m362.319 195.1-4.638-15.313a99.062 99.062 0 0 1 -28.747 4.213h-16.934v16h16.934a115.032 115.032 0 0 0 33.385-4.9z"/><path d="m104 184h16v144h-16z"/></g></svg>