<?xml version="1.0" encoding="utf-8"?>
<!-- Generator: Adobe Illustrator 22.0.0, SVG Export Plug-In . SVG Version: 6.00 Build 0)  -->
<svg xmlns="http://www.w3.org/2000/svg" xmlns:xlink="http://www.w3.org/1999/xlink" version="1.1" id="Layer_2" x="0px" y="0px" viewBox="0 0 256 256" style="enable-background:new 0 0 256 256;" xml:space="preserve" width="512" height="512">
<style type="text/css">
	.st0{fill:#87796F;}
	.st1{fill:#3A312A;}
	.st2{fill:#D7E057;}
	.st3{fill:#F16C7A;}
	.st4{fill:#8AC6DD;}
	.st5{fill:#FCE8CB;}
	.st6{fill:#695B51;}
	.st7{fill:#D34E5C;}
	.st8{fill:#6CA8BF;}
	.st9{fill:#B9C239;}
	.st10{fill:#DECAAD;}
	.st11{fill:#B9BC39;}
	.st12{fill-rule:evenodd;clip-rule:evenodd;fill:#87796F;}
	.st13{fill-rule:evenodd;clip-rule:evenodd;fill:#FCE8CB;}
	.st14{fill-rule:evenodd;clip-rule:evenodd;fill:#F16C7A;}
	.st15{fill:#F5978A;}
</style>
<g>
	<g>
		<g>
			<path class="st4" d="M195.095,16.738c-23.597,0-42.925,18.272-44.612,41.439l-0.037,6c1.399,23.445,20.853,42.027,44.649,42.027     c24.705,0,44.733-20.028,44.733-44.733C239.828,36.766,219.8,16.738,195.095,16.738z"/>
		</g>
	</g>
	<g>
		<g>
			<path class="st1" d="M195.095,15.238c-24.106,0-44.359,18.813-46.111,42.93l-0.038,6c0,0.033,0.001,0.066,0.003,0.099     c1.455,24.357,21.725,43.437,46.146,43.437c25.493,0,46.233-20.74,46.233-46.233S220.588,15.238,195.095,15.238z      M195.095,104.704c-22.82,0-41.764-17.816-43.149-40.567l0.034-5.851c1.635-22.457,20.573-40.048,43.115-40.048     c23.839,0,43.233,19.394,43.233,43.233S218.934,104.704,195.095,104.704z"/>
		</g>
	</g>
	<g>
		<g>
			<path class="st2" d="M49.012,62.962c-0.974,11.564-13.025,13.389-13.025,13.389C46.335,76.838,48.913,90.41,48.913,90.41     c0.221-9.677,13.321-14.202,13.321-14.202C52.421,75.621,49.012,62.962,49.012,62.962z"/>
		</g>
	</g>
	<g>
		<g>
			<path class="st1" d="M62.324,74.71C53.719,74.196,50.492,62.686,50.46,62.57c-0.191-0.702-0.851-1.165-1.584-1.102     c-0.725,0.066-1.298,0.642-1.359,1.367c-0.86,10.215-11.313,11.964-11.754,12.033c-0.763,0.115-1.313,0.79-1.273,1.561     c0.04,0.77,0.657,1.384,1.428,1.421c9.028,0.425,11.499,12.718,11.522,12.842c0.137,0.711,0.759,1.217,1.472,1.217     c0.042,0,0.085-0.001,0.127-0.005c0.764-0.064,1.357-0.693,1.375-1.459c0.195-8.508,12.192-12.777,12.313-12.819     c0.675-0.235,1.092-0.914,0.994-1.623C63.622,75.294,63.038,74.753,62.324,74.71z M48.758,85.057     c-1.356-3.131-3.709-6.908-7.587-8.877c2.931-1.405,6.409-3.913,8.202-8.272c1.551,3.071,4.2,6.88,8.334,8.722     C54.7,78.27,50.785,81.035,48.758,85.057z"/>
		</g>
	</g>
	<g>
		<g>
			<path class="st2" d="M27.314,79.942c-0.689,8.179-9.212,9.47-9.212,9.47c7.318,0.344,9.142,9.944,9.142,9.944     c0.156-6.844,9.422-10.045,9.422-10.045C29.724,88.896,27.314,79.942,27.314,79.942z"/>
		</g>
	</g>
	<g>
		<g>
			<path class="st1" d="M36.755,87.814c-5.766-0.345-7.973-8.186-7.994-8.265c-0.19-0.702-0.852-1.167-1.582-1.102     c-0.726,0.065-1.299,0.643-1.36,1.368c-0.579,6.871-7.646,8.067-7.942,8.114c-0.763,0.115-1.313,0.79-1.273,1.561     c0.04,0.77,0.657,1.384,1.427,1.421c6.036,0.284,7.724,8.644,7.739,8.726c0.135,0.713,0.759,1.22,1.472,1.22     c0.042,0,0.083-0.001,0.125-0.005c0.765-0.063,1.358-0.693,1.376-1.461c0.131-5.709,8.331-8.634,8.413-8.662     c0.676-0.234,1.094-0.913,0.996-1.622C38.054,88.398,37.47,87.857,36.755,87.814z M27.17,94.609     c-0.924-1.886-2.34-3.947-4.447-5.28c1.856-1.042,3.697-2.63,4.871-4.917c1.057,1.874,2.654,3.954,4.941,5.224     C30.685,90.737,28.546,92.377,27.17,94.609z"/>
		</g>
	</g>
	<g>
		<g>
			<path class="st2" d="M27.314,53.285c-0.689,8.179-9.212,9.47-9.212,9.47c7.318,0.344,9.142,9.944,9.142,9.944     c0.156-6.844,9.422-10.045,9.422-10.045C29.724,62.239,27.314,53.285,27.314,53.285z"/>
		</g>
	</g>
	<g>
		<g>
			<path class="st1" d="M36.755,61.157c-5.766-0.345-7.973-8.186-7.994-8.265c-0.19-0.702-0.852-1.167-1.582-1.102     c-0.726,0.065-1.299,0.643-1.36,1.368c-0.579,6.871-7.646,8.067-7.942,8.114c-0.763,0.115-1.313,0.79-1.273,1.561     c0.04,0.77,0.657,1.384,1.428,1.421c6.035,0.284,7.723,8.644,7.739,8.726c0.135,0.713,0.759,1.22,1.473,1.22     c0.041,0,0.083-0.001,0.125-0.005c0.765-0.063,1.358-0.693,1.376-1.461c0.131-5.709,8.331-8.634,8.413-8.662     c0.676-0.234,1.094-0.913,0.996-1.622C38.054,61.741,37.47,61.2,36.755,61.157z M27.17,67.952     c-0.924-1.886-2.34-3.948-4.447-5.28c1.856-1.041,3.697-2.63,4.871-4.916c1.057,1.874,2.654,3.954,4.941,5.224     C30.685,64.08,28.547,65.719,27.17,67.952z"/>
		</g>
	</g>
	<g>
		<g>
			<path class="st3" d="M203.022,159.02c-0.49-0.05-0.98-0.08-1.47-0.1c-0.69-0.04-1.38-0.06-2.08-0.06l-37.16-34.97l-8.48-7.98     c-2.37-1.9-5.33-2.94-8.37-2.94H43.552c-5.56,0-10.55,3.44-12.53,8.63l-3.994,10.482l-5.304,13.921l-4.022,10.557     c-0.58,1.52-0.88,3.14-0.88,4.77v39.828h222.88V199.1C239.702,178.08,223.582,160.81,203.022,159.02z"/>
		</g>
	</g>
	<g>
		<g>
			<path class="st1" d="M203.174,157.528c-0.521-0.053-1.041-0.085-1.534-0.105c-0.521-0.03-1.043-0.05-1.568-0.058l-45.211-42.547     c-0.029-0.027-0.06-0.053-0.09-0.078c-2.631-2.108-5.937-3.27-9.309-3.27H43.552c-6.143,0-11.742,3.856-13.932,9.596     l-3.994,10.482c-0.295,0.774,0.094,1.641,0.868,1.936c0.773,0.295,1.641-0.094,1.936-0.868l3.993-10.481     c1.749-4.584,6.221-7.665,11.128-7.665h101.91c2.674,0,5.294,0.914,7.387,2.574l45.595,42.908     c0.278,0.262,0.646,0.408,1.028,0.408c0.671,0,1.332,0.019,2.021,0.06c0.459,0.018,0.919,0.046,1.399,0.095     c19.8,1.724,35.31,18.673,35.31,38.586v0.558H18.322V161.33c0-1.451,0.263-2.875,0.782-4.236l4.023-10.557     c0.295-0.774-0.094-1.641-0.868-1.936c-0.775-0.296-1.642,0.094-1.936,0.868L16.3,156.026c-0.649,1.702-0.979,3.487-0.979,5.304     v39.828c0,0.829,0.671,1.5,1.5,1.5h222.88c0.828,0,1.5-0.671,1.5-1.5V199.1C241.202,177.645,224.488,159.383,203.174,157.528z"/>
		</g>
	</g>
	<g>
		<g>
			<path class="st4" d="M101.225,124H44.783c-2.211,0-4.184,1.39-4.927,3.473l-8.765,24.558c-1.216,3.407,1.31,6.99,4.927,6.99     h65.208c3.082,0,5.581-2.499,5.581-5.581V129.58C106.807,126.499,104.308,124,101.225,124z"/>
		</g>
	</g>
	<g>
		<g>
			<path class="st1" d="M101.226,122.5h-6.303c-0.829,0-1.5,0.671-1.5,1.5s0.671,1.5,1.5,1.5h6.303c2.25,0,4.081,1.831,4.081,4.081     v23.859c0,2.25-1.831,4.081-4.081,4.081H36.018c-1.23,0-2.342-0.577-3.05-1.582c-0.708-1.005-0.878-2.246-0.464-3.404     l8.765-24.558c0.529-1.482,1.941-2.477,3.515-2.477h35.818c0.829,0,1.5-0.671,1.5-1.5s-0.671-1.5-1.5-1.5H44.783     c-2.838,0-5.386,1.796-6.34,4.468l-8.765,24.558c-0.735,2.059-0.422,4.354,0.837,6.141c1.259,1.787,3.316,2.854,5.503,2.854     h65.208c3.904,0,7.081-3.177,7.081-7.081v-23.859C108.307,125.676,105.13,122.5,101.226,122.5z"/>
		</g>
	</g>
	<g>
		<g>
			<path class="st4" d="M162.312,123.89h-38.71c-3.08,0-5.58,2.5-5.58,5.58v23.97c0,3.08,2.5,5.58,5.58,5.58l75.87-0.16     L162.312,123.89z"/>
		</g>
	</g>
	<g>
		<g>
			<path class="st1" d="M200.5,157.768l-37.16-34.97c-0.278-0.262-0.646-0.408-1.028-0.408h-38.709c-3.904,0-7.08,3.176-7.08,7.08     v23.97c0,3.904,3.176,7.08,7.08,7.08h0.003l75.87-0.16c0.614-0.001,1.166-0.377,1.392-0.949     C201.093,158.84,200.947,158.188,200.5,157.768z M123.6,157.52c-2.249-0.001-4.078-1.831-4.078-4.08v-23.97     c0-2.25,1.83-4.08,4.08-4.08h38.115l33.98,31.978L123.6,157.52z"/>
		</g>
	</g>
	<g>
		<g>
			<path class="st0" d="M240.223,201.158H16.301c-2.862,0-5.182,2.32-5.182,5.182s2.32,5.181,5.182,5.181h223.923     c2.862,0,5.182-2.32,5.182-5.181S243.085,201.158,240.223,201.158z"/>
		</g>
	</g>
	<g>
		<g>
			<path class="st1" d="M240.224,199.658H16.301c-3.684,0-6.682,2.998-6.682,6.682s2.998,6.681,6.682,6.681h223.923     c3.685,0,6.682-2.997,6.682-6.681S243.908,199.658,240.224,199.658z M240.224,210.021H16.301c-2.03,0-3.682-1.651-3.682-3.681     c0-2.03,1.651-3.682,3.682-3.682h223.923c2.03,0,3.682,1.651,3.682,3.682C243.905,208.37,242.254,210.021,240.224,210.021z"/>
		</g>
	</g>
	<g>
		<g>
			<circle class="st0" cx="51.055" cy="211.676" r="27.586"/>
		</g>
	</g>
	<g>
		<g>
			<path class="st1" d="M51.055,182.59c-16.038,0-29.086,13.048-29.086,29.086s13.048,29.086,29.086,29.086     s29.086-13.048,29.086-29.086S67.093,182.59,51.055,182.59z M51.055,237.762c-14.384,0-26.086-11.702-26.086-26.086     s11.702-26.086,26.086-26.086c14.384,0,26.086,11.702,26.086,26.086S65.439,237.762,51.055,237.762z"/>
		</g>
	</g>
	<g>
		<g>
			
				<ellipse transform="matrix(0.3827 -0.9239 0.9239 0.3827 -164.0456 177.8399)" class="st5" cx="51.055" cy="211.676" rx="12.217" ry="12.217"/>
		</g>
	</g>
	<g>
		<g>
			<path class="st1" d="M51.055,197.958c-7.564,0-13.717,6.153-13.717,13.717s6.153,13.717,13.717,13.717     c7.564,0,13.717-6.153,13.717-13.717S58.619,197.958,51.055,197.958z M51.055,222.393c-5.91,0-10.717-4.808-10.717-10.717     s4.808-10.717,10.717-10.717c5.91,0,10.717,4.808,10.717,10.717S56.965,222.393,51.055,222.393z"/>
		</g>
	</g>
	<g>
		<g>
			<circle class="st0" cx="205.468" cy="211.676" r="27.586"/>
		</g>
	</g>
	<g>
		<g>
			<path class="st1" d="M205.469,182.59c-16.038,0-29.086,13.048-29.086,29.086s13.048,29.086,29.086,29.086     c16.038,0,29.086-13.048,29.086-29.086S221.507,182.59,205.469,182.59z M205.469,237.762c-14.384,0-26.086-11.702-26.086-26.086     s11.702-26.086,26.086-26.086s26.086,11.702,26.086,26.086S219.852,237.762,205.469,237.762z"/>
		</g>
	</g>
	<g>
		<g>
			<circle class="st5" cx="205.468" cy="211.676" r="12.217"/>
		</g>
	</g>
	<g>
		<g>
			<path class="st1" d="M205.469,197.958c-7.564,0-13.718,6.153-13.718,13.717s6.153,13.717,13.718,13.717     c7.563,0,13.717-6.153,13.717-13.717S213.032,197.958,205.469,197.958z M205.469,222.393c-5.91,0-10.718-4.808-10.718-10.717     s4.808-10.717,10.718-10.717c5.909,0,10.717,4.808,10.717,10.717S211.378,222.393,205.469,222.393z"/>
		</g>
	</g>
	<g>
		<g>
			<path class="st0" d="M39.383,166.093h-6.794c-1.816,0-3.288,1.472-3.288,3.288v6.794c0,1.816,1.472,3.288,3.288,3.288h6.794     c1.816,0,3.288-1.472,3.288-3.288v-6.794C42.671,167.565,41.199,166.093,39.383,166.093z"/>
		</g>
	</g>
	<g>
		<g>
			<path class="st1" d="M39.383,164.593h-6.794c-2.64,0-4.788,2.148-4.788,4.789v6.794c0,2.64,2.148,4.788,4.788,4.788h6.794     c2.64,0,4.788-2.148,4.788-4.788v-6.794C44.171,166.741,42.023,164.593,39.383,164.593z M41.171,176.175     c0,0.986-0.802,1.788-1.788,1.788h-6.794c-0.986,0-1.788-0.802-1.788-1.788v-6.794c0-0.986,0.802-1.789,1.788-1.789h6.794     c0.986,0,1.788,0.802,1.788,1.789V176.175z"/>
		</g>
	</g>
	<g>
		<g>
			<path class="st2" d="M230.637,165.572h-11c-3.659,0-6.625,2.966-6.625,6.625s2.966,6.625,6.625,6.625h11     c3.659,0,6.625-2.966,6.625-6.625S234.296,165.572,230.637,165.572z"/>
		</g>
	</g>
	<g>
		<g>
			<path class="st1" d="M230.637,164.072h-11c-4.48,0-8.125,3.645-8.125,8.125s3.645,8.125,8.125,8.125h11     c4.481,0,8.125-3.645,8.125-8.125S235.117,164.072,230.637,164.072z M230.637,177.322h-11c-2.826,0-5.125-2.299-5.125-5.125     s2.299-5.125,5.125-5.125h11c2.826,0,5.125,2.299,5.125,5.125S233.463,177.322,230.637,177.322z"/>
		</g>
	</g>
	<g>
		<g>
			<path class="st2" d="M15.476,165.572h-4.881v13.25h4.881c3.659,0,6.625-2.966,6.625-6.625S19.135,165.572,15.476,165.572z"/>
		</g>
	</g>
	<g>
		<g>
			<path class="st1" d="M15.476,164.072h-4.881c-0.829,0-1.5,0.671-1.5,1.5v13.25c0,0.829,0.671,1.5,1.5,1.5h4.881     c4.48,0,8.125-3.645,8.125-8.125S19.956,164.072,15.476,164.072z M15.476,177.322h-3.381v-10.25h3.381     c2.826,0,5.125,2.299,5.125,5.125S18.302,177.322,15.476,177.322z"/>
		</g>
	</g>
	<g>
		<g>
			<path class="st1" d="M195.137,26.117c-0.828,0-1.5,0.671-1.5,1.5v67.708c0,0.829,0.672,1.5,1.5,1.5c0.828,0,1.5-0.671,1.5-1.5     V27.617C196.637,26.789,195.965,26.117,195.137,26.117z"/>
		</g>
	</g>
	<g>
		<g>
			<path class="st1" d="M210.972,33.556c-0.586-0.586-1.535-0.586-2.121,0l-13.714,13.713l-13.713-13.713     c-0.586-0.586-1.535-0.586-2.121,0c-0.586,0.585-0.586,1.535,0,2.121l14.773,14.774c0.281,0.281,0.663,0.439,1.06,0.439     c0.398,0,0.779-0.158,1.061-0.439l14.774-14.774C211.558,35.091,211.558,34.142,210.972,33.556z"/>
		</g>
	</g>
	<g>
		<g>
			<path class="st1" d="M210.972,87.266l-14.774-14.774c-0.562-0.562-1.559-0.562-2.121,0l-14.773,14.774     c-0.586,0.586-0.586,1.536,0,2.121c0.586,0.586,1.535,0.586,2.121,0l13.713-13.713l13.714,13.713     c0.293,0.293,0.677,0.439,1.06,0.439s0.768-0.146,1.061-0.439C211.558,88.801,211.558,87.851,210.972,87.266z"/>
		</g>
	</g>
	<g>
		<g>
			<path class="st1" d="M228.991,59.971h-67.709c-0.828,0-1.5,0.671-1.5,1.5s0.672,1.5,1.5,1.5h67.709c0.828,0,1.5-0.671,1.5-1.5     S229.819,59.971,228.991,59.971z"/>
		</g>
	</g>
	<g>
		<g>
			<path class="st1" d="M209.339,61.471l13.714-13.713c0.586-0.585,0.586-1.535,0-2.121c-0.586-0.586-1.535-0.586-2.121,0     l-14.774,14.774c-0.281,0.281-0.439,0.663-0.439,1.061s0.158,0.779,0.439,1.061l14.774,14.774     c0.293,0.293,0.677,0.439,1.061,0.439s0.768-0.146,1.06-0.439c0.586-0.586,0.586-1.536,0-2.121L209.339,61.471z"/>
		</g>
	</g>
	<g>
		<g>
			<path class="st1" d="M184.116,60.411l-14.773-14.774c-0.586-0.586-1.535-0.586-2.121,0c-0.586,0.585-0.586,1.535,0,2.121     l13.713,13.713l-13.713,13.713c-0.586,0.586-0.586,1.536,0,2.121c0.293,0.293,0.677,0.439,1.06,0.439     c0.384,0,0.768-0.146,1.061-0.439l14.773-14.774C184.702,61.946,184.702,60.996,184.116,60.411z"/>
		</g>
	</g>
	<g>
		<g>
			<path class="st8" d="M195.092,18.241c-2.55,0-5.06,0.23-7.5,0.66c15.11,2.65,27.55,13.17,32.9,27.17l0.44-0.44     c0.58-0.58,1.53-0.58,2.12,0c0.59,0.59,0.59,1.54,0,2.13l-1.48,1.48c1.01,3.42,1.61,7.01,1.73,10.73h5.69     c0.83,0,1.5,0.67,1.5,1.5c0,0.83-0.67,1.5-1.5,1.5h-5.69c-0.12,3.72-0.72,7.31-1.73,10.73l1.48,1.48c0.59,0.59,0.59,1.54,0,2.12     c-0.29,0.3-0.68,0.44-1.06,0.44s-0.77-0.14-1.06-0.44l-0.43-0.43c-5.36,14-17.8,24.53-32.92,27.18c2.44,0.43,4.95,0.65,7.51,0.65     c23.84,0,43.24-19.39,43.24-43.23C238.332,37.632,218.932,18.241,195.092,18.241z"/>
		</g>
	</g>
	<g>
		<g>
			<path class="st7" d="M152.852,117.042c-2.1-1.66-4.72-2.57-7.39-2.57h-15c2.67,0,5.29,0.91,7.39,2.57l5.68,5.35h15     L152.852,117.042z"/>
		</g>
	</g>
	<g>
		<g>
			<path class="st7" d="M211.512,172.201c0-3.53,2.26-6.53,5.4-7.65c-4.28-2.19-9.01-3.6-14.02-4.04c-0.48-0.05-0.94-0.07-1.4-0.09     c-0.69-0.04-1.35-0.06-2.01-0.06c-0.01,0-0.01,0-0.01,0l-13.77,0.03c0.26,0,0.52,0.01,0.79,0.03c0.46,0.02,0.92,0.04,1.4,0.09     c5.01,0.44,9.74,1.85,14.02,4.04c-3.14,1.12-5.4,4.12-5.4,7.65c0,4.47,3.64,8.12,8.13,8.12h11c0.69,0,1.36-0.09,2-0.25     C214.122,179.181,211.512,175.981,211.512,172.201z"/>
		</g>
	</g>
	<g>
		<g>
			<polygon class="st8" points="161.722,125.392 146.722,125.392 180.702,157.372 195.702,157.372    "/>
		</g>
	</g>
	<g>
		<g>
			<path class="st6" d="M240.223,202.658h-7.107c0.765,2.34,1.244,4.807,1.388,7.363h5.719c2.03,0,3.682-1.651,3.682-3.682     S242.253,202.658,240.223,202.658z"/>
		</g>
	</g>
	<g>
		<g>
			<path class="st7" d="M233.062,179.951c-0.77,0.24-1.58,0.37-2.42,0.37h-11c-0.49,0-0.98-0.04-1.45-0.13     c1.28,2.25,2.34,4.63,3.14,7.12c4.61,3.02,8.31,7.3,10.61,12.35h6.26v-0.56C238.202,192.192,236.332,185.632,233.062,179.951z"/>
		</g>
	</g>
</g>
</svg>
