<?xml version="1.0" encoding="iso-8859-1"?>
<!-- Generator: Adobe Illustrator 16.0.0, SVG Export Plug-In . SVG Version: 6.00 Build 0)  -->
<!DOCTYPE svg PUBLIC "-//W3C//DTD SVG 1.1//EN" "http://www.w3.org/Graphics/SVG/1.1/DTD/svg11.dtd">
<svg version="1.1" id="Capa_1" xmlns="http://www.w3.org/2000/svg" xmlns:xlink="http://www.w3.org/1999/xlink" x="0px" y="0px"
	 width="800px" height="800.001px" viewBox="0 0 800 800.001" style="enable-background:new 0 0 800 800.001;" xml:space="preserve"
	>
<g>
	<path d="M538.884,218.715c19.842,35.765,33.224,105.815,41.045,214.018c1.188,17.316-12.547,32.247-30.739,33.464
		c-0.791,0-1.537,0.043-2.328,0.043c-17.184,0-31.75-12.629-32.959-29.21c-7.295-101.647-18.677-151.083-27.399-175.041
		l12.15,185.501c0,0.304-0.153,0.52-0.177,0.78l46.691,306.984c3.274,21.396-12.37,41.275-34.958,44.356
		c-2.043,0.304-4.021,0.391-6.021,0.391c-20.191,0-37.857-14.062-40.803-33.55l-47.263-310.325l-41.638,306.636
		c-2.726,19.749-20.456,34.158-40.913,34.158c-1.779,0-3.561-0.044-5.339-0.347c-22.697-2.735-38.649-22.354-35.729-43.794
		l40.43-297.607l13.03-172.697c-8.372,28.516-17.996,74.999-26.543,151.038c-1.691,15.582-15.205,26.995-31.179,27.776
		l-3.911,27.476l17.556,2.171l-24.959,180.596L220,664.455l25.004-180.639l20.676,2.561l4.197-29.297
		c-10.811-6.076-17.622-17.576-16.216-30.164c12.128-107.896,28.323-177.384,49.548-212.411
		c23.159-38.193,64.884-52.863,93.316-56.639c3.69-0.694,7.624-1.129,11.799-1.39l-28.938,196.179l32.3,32.681l29.574-31.553
		l-15.774-196.915c2.307,0.216,4.568,0.434,6.768,0.694c0.9-0.044,1.626-0.392,2.526-0.349
		C461.563,158.561,513.616,173.101,538.884,218.715z M494.742,74.88c0.812-40.581-33.179-74.044-76.002-74.869
		c-42.824-0.693-78.133,31.511-78.99,72.049c-0.747,40.536,33.222,74,76.046,74.824C458.664,147.666,493.929,115.375,494.742,74.88z
		"/>
</g>
<g>
</g>
<g>
</g>
<g>
</g>
<g>
</g>
<g>
</g>
<g>
</g>
<g>
</g>
<g>
</g>
<g>
</g>
<g>
</g>
<g>
</g>
<g>
</g>
<g>
</g>
<g>
</g>
<g>
</g>
</svg>
