<?xml version="1.0"?>
<svg xmlns="http://www.w3.org/2000/svg" xmlns:xlink="http://www.w3.org/1999/xlink" xmlns:svgjs="http://svgjs.com/svgjs" version="1.1" width="512" height="512" x="0" y="0" viewBox="0 0 512 512" style="enable-background:new 0 0 512 512" xml:space="preserve" class=""><g><g xmlns="http://www.w3.org/2000/svg" id="outline"><path d="M252.422,159.155l16,8a8,8,0,1,0,7.156-14.31L264,147.056V128a8,8,0,0,0-16,0v24A8,8,0,0,0,252.422,159.155Z" fill="#e3324a" data-original="#000000" style=""/><path d="M464,240h24a8,8,0,0,0,8-8V168a8,8,0,0,0-8-8H311.419a56,56,0,1,0-110.838,0H24a8,8,0,0,0-8,8v64a8,8,0,0,0,8,8H48V392H24a8,8,0,0,0,0,16H488a8,8,0,0,0,0-16H464ZM448,360H425.869a23.933,23.933,0,0,0,4.509-24.657A7.954,7.954,0,0,0,432,330.527V296a7.97,7.97,0,0,0-2.333-5.645l-.01-.012-26.728-26.728A25.831,25.831,0,0,0,384.544,256H313a26.127,26.127,0,0,0-20.8,10.4l-16.941,22.589-27.674,4.421A27.877,27.877,0,0,0,224,321.059V344a8,8,0,0,0,8,8h17.376a24.015,24.015,0,0,0,4.755,8H208V240H448ZM240,336V321.059a11.948,11.948,0,0,1,10.107-11.85L282.722,304H344v32H294.624a24,24,0,0,0-45.248,0Zm144.544-64a9.936,9.936,0,0,1,7.071,2.929L404.686,288H360V272ZM360,336V304h56v17.376A23.985,23.985,0,0,0,385.376,336Zm56,8a8,8,0,1,1-8-8A8.009,8.009,0,0,1,416,344Zm-72-56H296l9-12a10.046,10.046,0,0,1,8-4h31Zm-64,56a8,8,0,1,1-8-8A8.009,8.009,0,0,1,280,344Zm14.624,8h90.752a24.015,24.015,0,0,0,4.755,8H289.869A24.015,24.015,0,0,0,294.624,352ZM256,112a40,40,0,1,1-40,40A40.045,40.045,0,0,1,256,112ZM32,176H205.414a56.251,56.251,0,0,0,11.448,16H56a8,8,0,0,0,0,16H456a8,8,0,0,0,0-16H295.138a56.251,56.251,0,0,0,11.448-16H480v48H32Zm32,64H192V392H176V280a8,8,0,0,0-8-8H88a8,8,0,0,0-8,8V392H64Zm32,64V288h64v16Zm0,16h24v72H96Zm40,72V320h24v72Zm72,0V376H448v16Z" fill="#e3324a" data-original="#000000" style=""/></g></g></svg>
