<?xml version="1.0"?>
<svg xmlns="http://www.w3.org/2000/svg" xmlns:xlink="http://www.w3.org/1999/xlink" xmlns:svgjs="http://svgjs.com/svgjs" version="1.1" width="512" height="512" x="0" y="0" viewBox="0 0 64 64" style="enable-background:new 0 0 512 512" xml:space="preserve" class=""><g><g xmlns="http://www.w3.org/2000/svg" id="Fill_Outline" data-name="Fill Outline"><g id="Color"><g><path d="m19 3h36v20h-36z" fill="#f1f1f1" data-original="#c4f236" style="" class=""/><path d="m49 3v3a12 12 0 0 1 -12 12h-18v5h36v-20z" fill="#ffffff" data-original="#a1d51c" style="" class=""/><path d="m16 27h42v8h-42z" fill="#93999a" data-original="#93999a" style="" class=""/><path d="m16 27v2h39a4 4 0 0 1 -4 4h-35v2h42v-8z" fill="#656b76" data-original="#656b76" style=""/><path d="m5 39h36v22h-36z" fill="#f1f1f1" data-original="#4891d3" style="" class=""/><path d="m5 39v22h36v-22zm14 18h-12v-13a3 3 0 0 1 3-3h25a16 16 0 0 1 -16 16z" fill="#cfcdcd" data-original="#2d72bc" style="" class=""/><g fill="#57b7eb"><path d="m39 39h10v22h-10z" fill="#f3324c" data-original="#57b7eb" style="" class=""/><path d="m49 39h10v22h-10z" fill="#f3324c" data-original="#57b7eb" style="" class=""/></g><path d="m39 53-8 8h8z" fill="#f1f1f1" data-original="#4891d3" style="" class=""/><path d="m5 39v11l11-11z" fill="#f3324c" data-original="#57b7eb" style="" class=""/><path d="m13 23h48v4h-48z" fill="#d0d8da" data-original="#d0d8da" style="" class=""/><path d="m3 35h58v4h-58z" fill="#d0d8da" data-original="#d0d8da" style="" class=""/><g><path d="m29 31h4v4h-4z" fill="#f3324c" data-original="#57b7eb" style="" class=""/><path d="m25 31h4v4h-4z" fill="#f3324c" data-original="#57b7eb" style="" class=""/><path d="m33 31h4v4h-4z" fill="#f3324c" data-original="#57b7eb" style="" class=""/><path d="m21 31h4v4h-4z" fill="#f3324c" data-original="#57b7eb" style="" class=""/><path d="m41 31h4v4h-4z" fill="#f3324c" data-original="#57b7eb" style="" class=""/><path d="m37 31h4v4h-4z" fill="#f3324c" data-original="#57b7eb" style="" class=""/><path d="m49 31h4v4h-4z" fill="#f3324c" data-original="#57b7eb" style="" class=""/><path d="m45 31h4v4h-4z" fill="#f3324c" data-original="#57b7eb" style="" class=""/><g fill="#4891d3"><path d="m49 35h4v-4z" fill="#f1f1f1" data-original="#4891d3" style="" class=""/><path d="m45 35h4v-4z" fill="#f1f1f1" data-original="#4891d3" style="" class=""/><path d="m41 35h4v-4z" fill="#f1f1f1" data-original="#4891d3" style="" class=""/><path d="m37 35h4v-4z" fill="#f1f1f1" data-original="#4891d3" style="" class=""/><path d="m33 35h4v-4z" fill="#f1f1f1" data-original="#4891d3" style="" class=""/><path d="m29 35h4v-4z" fill="#f1f1f1" data-original="#4891d3" style="" class=""/><path d="m25 35h4v-4z" fill="#f1f1f1" data-original="#4891d3" style="" class=""/><path d="m21 35h4v-4z" fill="#f1f1f1" data-original="#4891d3" style="" class=""/><path d="m51 33h-2v2h4v-2.555a3.955 3.955 0 0 1 -2 .555z" fill="#f1f1f1" data-original="#4891d3" style="" class=""/><path d="m21 33h28v2h-28z" fill="#f1f1f1" data-original="#4891d3" style="" class=""/></g><path d="m49 35h4v-2.555a3.955 3.955 0 0 1 -2 .555z" fill="#cfcdcd" data-original="#2d72bc" style="" class=""/><path d="m47 33-2 2h4v-2z" fill="#cfcdcd" data-original="#2d72bc" style="" class=""/><path d="m43 33-2 2h4v-2z" fill="#cfcdcd" data-original="#2d72bc" style="" class=""/><path d="m39 33-2 2h4v-2z" fill="#cfcdcd" data-original="#2d72bc" style="" class=""/><path d="m35 33-2 2h4v-2z" fill="#cfcdcd" data-original="#2d72bc" style="" class=""/><path d="m31 33-2 2h4v-2z" fill="#cfcdcd" data-original="#2d72bc" style="" class=""/><path d="m27 33-2 2h4v-2z" fill="#cfcdcd" data-original="#2d72bc" style="" class=""/><path d="m23 33-2 2h4v-2z" fill="#cfcdcd" data-original="#2d72bc" style="" class=""/></g><path d="m19 19h4v4h-4z" fill="#f3324c" data-original="#57b7eb" style="" class=""/><g fill="#4891d3"><path d="m39 53v8h10v-18z" fill="#f1f1f1" data-original="#4891d3" style="" class=""/><path d="m49 53v8h10v-18z" fill="#f1f1f1" data-original="#4891d3" style="" class=""/><path d="m39 39v22h10v-22zm8 13a6 6 0 0 1 -6 6v-15a2 2 0 0 1 2-2h4z" fill="#f1f1f1" data-original="#4891d3" style="" class=""/></g><path d="m47 52a6 6 0 0 1 -6 6v-7l-2 2v8h10v-18l-2 2z" fill="#cfcdcd" data-original="#2d72bc" style="" class=""/><path d="m49 39v22h10v-22zm8 13a6 6 0 0 1 -6 6v-15a2 2 0 0 1 2-2h4z" fill="#f1f1f1" data-original="#4891d3" style="" class=""/><path d="m57 52a6 6 0 0 1 -6 6v-7l-2 2v8h10v-18l-2 2z" fill="#cfcdcd" data-original="#2d72bc" style="" class=""/><path d="m7 44a3 3 0 0 1 3-3h4l2-2h-11v11l2-2z" fill="#f1f1f1" data-original="#4891d3" style="" class=""/><g><path d="m15 48h15a3 3 0 0 1 3 3v3a0 0 0 0 1 0 0h-24a0 0 0 0 1 0 0 6 6 0 0 1 6-6z" fill="#ffffff" data-original="#f9e109" style="" class=""/><path d="m30 48h-3.422a5 5 0 0 1 -4.578 3h-12.191a5.97 5.97 0 0 0 -.809 3h24v-3a3 3 0 0 0 -3-3z" fill="#f3324c" data-original="#fcbc04" style="" class=""/><circle cx="15" cy="54" fill="#d0d8da" r="2" data-original="#d0d8da" style="" class=""/><circle cx="27" cy="54" fill="#d0d8da" r="2" data-original="#d0d8da" style="" class=""/><circle cx="15" cy="54" fill="#93999a" r="1" data-original="#93999a" style="" class=""/><circle cx="27" cy="54" fill="#93999a" r="1" data-original="#93999a" style="" class=""/><path d="m28.3 54h4.7v-3a2.975 2.975 0 0 0 -.438-1.54 16.032 16.032 0 0 1 -4.262 4.54z" fill="#ffffff" data-original="#e59730" style="" class=""/><path d="m27 56a2 2 0 0 0 2-2 1.956 1.956 0 0 0 -.063-.474 16.006 16.006 0 0 1 -3.232 1.987 1.986 1.986 0 0 0 1.295.487z" fill="#93999a" data-original="#93999a" style="" class=""/><path d="m26.755 54.95a.952.952 0 0 0 .245.05.986.986 0 0 0 .957-.788q-.583.396-1.202.738z" fill="#656b76" data-original="#656b76" style=""/></g><path d="m58.445 35a3.982 3.982 0 0 1 -3.445 2h-52v2h58v-4z" fill="#93999a" data-original="#93999a" style="" class=""/><path d="m58.445 23a3.982 3.982 0 0 1 -3.445 2h-42v2h48v-4z" fill="#93999a" data-original="#93999a" style="" class=""/><g><path d="m31 11h20a0 0 0 0 1 0 0 6 6 0 0 1 -6 6h-20a0 0 0 0 1 0 0 6 6 0 0 1 6-6z" fill="#ffffff" data-original="#f9e109" style="" class=""/><path d="m32 11h15l-4.891-3.261a6.78 6.78 0 0 0 -10.109 3.261z" fill="#f3324c" data-original="#57b7eb" style="" class=""/><path d="m42.109 7.739a6.738 6.738 0 0 0 -2.782-1.066l-4.327 4.327h12z" fill="#f1f1f1" data-original="#4891d3" style="" class=""/><path d="m46.191 11a5.992 5.992 0 0 1 -5.191 3h-15.191a5.97 5.97 0 0 0 -.809 3h20a6 6 0 0 0 6-6z" fill="#f3324c" data-original="#fcbc04" style="" class=""/><path d="m41.789 17h3.211a6 6 0 0 0 6-6h-3.1a12.031 12.031 0 0 1 -6.111 6z" fill="#ffffff" data-original="#e59730" style="" class=""/><circle cx="32" cy="17" fill="#d0d8da" r="2" data-original="#d0d8da" style="" class=""/><circle cx="43" cy="17" fill="#d0d8da" r="2" data-original="#d0d8da" style="" class=""/><g fill="#93999a"><circle cx="32" cy="17" r="1" fill="#93999a" data-original="#93999a" style="" class=""/><circle cx="43" cy="17" r="1" fill="#93999a" data-original="#93999a" style="" class=""/><path d="m43 19a1.992 1.992 0 0 0 1.311-3.5 11.988 11.988 0 0 1 -3.282 1.791 2 2 0 0 0 1.971 1.709z" fill="#93999a" data-original="#93999a" style="" class=""/></g><path d="m44 17a.992.992 0 0 0 -.565-.89 12.024 12.024 0 0 1 -1.411.771.964.964 0 0 0 -.024.119 1 1 0 0 0 2 0z" fill="#656b76" data-original="#656b76" style=""/><path d="m33.723 18h-3.446a1.984 1.984 0 0 0 3.446 0z" fill="#93999a" data-original="#93999a" style="" class=""/></g></g></g><g id="Outlines_copy" data-name="Outlines copy"><g fill="#464a51"><path d="m20.707 43.293a1 1 0 0 0 -1.414 0l-3.707 3.707h-.586a7.009 7.009 0 0 0 -7 7 1 1 0 0 0 1 1h3.184a2.982 2.982 0 0 0 5.632 0h3.184a1 1 0 0 0 0-2h-3.184a2.982 2.982 0 0 0 -5.632 0h-2.084a5.008 5.008 0 0 1 4.9-4h6v1a1 1 0 0 0 2 0v-1h7a2 2 0 0 1 2 2v2h-2.184a3 3 0 1 0 0 2h3.184a1 1 0 0 0 1-1v-3a4 4 0 0 0 -4-4h-.382l.277-.553a1 1 0 0 0 -1.79-.894l-.723 1.447h-3.764l.277-.553a1 1 0 0 0 -1.79-.894l-.723 1.447h-2.968l2.293-2.293a1 1 0 0 0 0-1.414zm-5.707 9.707a1 1 0 1 1 -1 1 1 1 0 0 1 1-1zm12 2a1 1 0 1 1 1-1 1 1 0 0 1 -1 1z" fill="#9f9f9f" data-original="#464a51" style="" class=""/><path d="m54 52v-4a1 1 0 0 0 -2 0v4a1 1 0 0 0 2 0z" fill="#9f9f9f" data-original="#464a51" style="" class=""/><path d="m46 52v-4a1 1 0 0 0 -2 0v4a1 1 0 0 0 2 0z" fill="#9f9f9f" data-original="#464a51" style="" class=""/><path d="m61 28a1 1 0 0 0 0-2h-47v-2h47a1 1 0 0 0 0-2h-5v-19a1 1 0 0 0 -1-1h-36a1 1 0 0 0 0 2h35v2h-2a1 1 0 0 0 0 2h2v10h-3a1 1 0 0 0 0 2h3v2h-30v-3a1 1 0 0 0 -1-1h-3v-10h4a1 1 0 0 0 0-2h-5a1 1 0 0 0 -1 1v15h-5a1 1 0 0 0 -1 1v4a1 1 0 0 0 1 1h2v6h-12a1 1 0 0 0 -1 1v4a1 1 0 0 0 1 1h1v4a1 1 0 0 0 2 0v-4h7.586l-5.293 5.293a1 1 0 1 0 1.414 1.414l6.707-6.707h13.172l-.793.793a1 1 0 1 0 1.414 1.414l2.207-2.207h4.172l-4.793 4.793a1 1 0 1 0 1.414 1.414l6.207-6.207h18.586v20h-8v-17a1 1 0 0 0 -2 0v17h-8v-15a1 1 0 0 0 -2 0v7.586l-7.414 7.414h-10.172l1.293-1.293a1 1 0 0 0 -1.414-1.414l-2.707 2.707h-10.172l2.293-2.293a1 1 0 0 0 -1.414-1.414l-2.293 2.293v-10.586a1 1 0 0 0 -2 0v13a1 1 0 0 0 1 1h54a1 1 0 0 0 1-1v-21h1a1 1 0 0 0 1-1v-4a1 1 0 0 0 -1-1h-2v-6zm-41-8h2v2h-2zm18 35.414v4.586h-4.586zm22-17.414h-56v-2h56zm-32-6v2h-2v-2zm4 0v2h-2v-2zm4 0v2h-2v-2zm4 0v2h-2v-2zm4 0v2h-2v-2zm4 0v2h-2v-2zm4 0v2h-2v-2zm-28 2h-2v-2h2zm33 0h-3v-3a1 1 0 0 0 -1-1h-32a1 1 0 0 0 -1 1v3h-3v-6h40z" fill="#9f9f9f" data-original="#464a51" style="" class=""/><path d="m45.794 15.93a3.007 3.007 0 1 0 .039 2.016 7.008 7.008 0 0 0 6.167-6.946 1 1 0 0 0 -1-1h-3.7l-4.636-3.093a7.77 7.77 0 0 0 -11.315 3.093h-.349a7.009 7.009 0 0 0 -7 7 1 1 0 0 0 1 1h4.184a2.982 2.982 0 0 0 5.632 0h2.184a1 1 0 0 0 0-2h-2.184a2.982 2.982 0 0 0 -5.632 0h-3.084a5.008 5.008 0 0 1 4.9-4h6v1a1 1 0 0 0 2 0v-1h10.9a5.008 5.008 0 0 1 -4.106 3.93zm-2.794 2.07a1 1 0 1 1 1-1 1 1 0 0 1 -1 1zm-11-2a1 1 0 1 1 -1 1 1 1 0 0 1 1-1zm1.657-6a5.786 5.786 0 0 1 7.9-1.429l2.143 1.429z" fill="#9f9f9f" data-original="#464a51" style="" class=""/></g></g></g></g></svg>
