<?xml version="1.0"?>
<svg xmlns="http://www.w3.org/2000/svg" xmlns:xlink="http://www.w3.org/1999/xlink" xmlns:svgjs="http://svgjs.com/svgjs" version="1.1" width="512" height="512" x="0" y="0" viewBox="0 0 512 512" style="enable-background:new 0 0 512 512" xml:space="preserve" class=""><g transform="matrix(1.05,0,0,1.05,-12.800000000000011,-12.598855590820278)"><g xmlns="http://www.w3.org/2000/svg" id="filled_outline" data-name="filled outline"><path d="m56 232h384v168h-384z" fill="#ffffff" data-original="#d18d28" style="" class=""/><path d="m200 232h256v168h-256z" fill="#eaeae8" data-original="#eaeae8" style="" class=""/><path d="m408 344h-176v-22.941a20 20 0 0 1 16.846-19.75l33.241-5.309h141.913l6 6v34z" fill="#fd3752" data-original="#0296e5" style="" class=""/><path d="m424 296h-144l18.6-24.8a18 18 0 0 1 14.4-7.2h71.544a18 18 0 0 1 12.728 5.272z" fill="#efefef" data-original="#6ee7f5" style="" class=""/><path d="m344 264h16v32h-16z" fill="#65d3e0" data-original="#65d3e0" style=""/><path d="m344 296h16v48h-16z" fill="#0a6fa2" data-original="#0a6fa2" style=""/><circle cx="272" cy="344" fill="#b9b9b9" r="20" data-original="#b9b9b9" style="" class=""/><circle cx="272" cy="344" fill="#eaeae8" r="12" data-original="#eaeae8" style="" class=""/><circle cx="408" cy="344" fill="#b9b9b9" r="20" data-original="#b9b9b9" style="" class=""/><circle cx="408" cy="344" fill="#eaeae8" r="12" data-original="#eaeae8" style="" class=""/><path d="m24 168h464v64h-464z" fill="#ffffff" data-original="#ea9d2d" style="" class=""/><path d="m88 312h80v88h-80z" fill="#fd3752" data-original="#0296e5" style="" class=""/><path d="m192 364h264v36h-264z" fill="#ffffff" data-original="#d18d28" style="" class=""/><path d="m88 280h80v32h-80z" fill="#b9b9b9" data-original="#b9b9b9" style="" class=""/><path d="m120 312h16v88h-16z" fill="#0a6fa2" data-original="#0a6fa2" style=""/><path d="m488 408h-464a8 8 0 0 1 0-16h464a8 8 0 0 1 0 16z" fill="#b9b9b9" data-original="#b9b9b9" style="" class=""/><path d="m456 208h-400a8 8 0 0 1 0-16h400a8 8 0 0 1 0 16z" fill="#ffffff" data-original="#d18d28" style="" class=""/><circle cx="256" cy="152" fill="#fd3752" r="56" data-original="#0296e5" style="" class=""/><circle cx="256" cy="152" fill="#fd3752" r="40" data-original="#fdfefb" style="" class=""/><path d="m271.994 168a7.973 7.973 0 0 1 -3.572-.847l-16-8a8 8 0 0 1 -4.422-7.153v-24a8 8 0 0 1 16 0v19.056l11.578 5.789a8 8 0 0 1 -3.584 15.155z" fill="#fd3752" data-original="#0296e5" style="" class=""/><path d="m200 232h256v9.621h-256z" fill="#cbcbcb" data-original="#cbcbcb" style=""/><path d="m252.422 159.155 16 8a8 8 0 1 0 7.156-14.31l-11.578-5.789v-19.056a8 8 0 0 0 -16 0v24a8 8 0 0 0 4.422 7.155z" fill="#6c6c6c" data-original="#000000" style="" class=""/><path d="m464 240h24a8 8 0 0 0 8-8v-64a8 8 0 0 0 -8-8h-176.581a56 56 0 1 0 -110.838 0h-176.581a8 8 0 0 0 -8 8v64a8 8 0 0 0 8 8h24v152h-24a8 8 0 0 0 0 16h464a8 8 0 0 0 0-16h-24zm-16 120h-22.131a23.933 23.933 0 0 0 4.509-24.657 7.954 7.954 0 0 0 1.622-4.816v-34.527a7.97 7.97 0 0 0 -2.333-5.645l-.01-.012-26.728-26.728a25.831 25.831 0 0 0 -18.385-7.615h-71.544a26.127 26.127 0 0 0 -20.8 10.4l-16.941 22.589-27.674 4.421a27.877 27.877 0 0 0 -23.585 27.649v22.941a8 8 0 0 0 8 8h17.376a24.015 24.015 0 0 0 4.755 8h-46.131v-120h240zm-208-24v-14.941a11.948 11.948 0 0 1 10.107-11.85l32.615-5.209h61.278v32h-49.376a24 24 0 0 0 -45.248 0zm144.544-64a9.936 9.936 0 0 1 7.071 2.929l13.071 13.071h-44.686v-16zm-24.544 64v-32h56v17.376a23.985 23.985 0 0 0 -30.624 14.624zm56 8a8 8 0 1 1 -8-8 8.009 8.009 0 0 1 8 8zm-72-56h-48l9-12a10.046 10.046 0 0 1 8-4h31zm-64 56a8 8 0 1 1 -8-8 8.009 8.009 0 0 1 8 8zm14.624 8h90.752a24.015 24.015 0 0 0 4.755 8h-100.262a24.015 24.015 0 0 0 4.755-8zm-38.624-240a40 40 0 1 1 -40 40 40.045 40.045 0 0 1 40-40zm-224 64h173.414a56.251 56.251 0 0 0 11.448 16h-160.862a8 8 0 0 0 0 16h400a8 8 0 0 0 0-16h-160.862a56.251 56.251 0 0 0 11.448-16h173.414v48h-448zm32 64h128v152h-16v-112a8 8 0 0 0 -8-8h-80a8 8 0 0 0 -8 8v112h-16zm32 64v-16h64v16zm0 16h24v72h-24zm40 72v-72h24v72zm72 0v-16h240v16z" fill="#6c6c6c" data-original="#000000" style="" class=""/></g></g></svg>
