<?xml version="1.0"?>
<svg xmlns="http://www.w3.org/2000/svg" xmlns:xlink="http://www.w3.org/1999/xlink" xmlns:svgjs="http://svgjs.com/svgjs" version="1.1" width="512" height="512" x="0" y="0" viewBox="0 0 512 512" style="enable-background:new 0 0 512 512" xml:space="preserve" class=""><g><title xmlns="http://www.w3.org/2000/svg">value customers users viewer</title><path xmlns="http://www.w3.org/2000/svg" d="M362,344.33l9.81-5.18,59.05-31.84,7.09-3.83a32.235,32.235,0,0,1,42.94,11.74L341.73,410.77a97.447,97.447,0,0,1-60.61,8.56l-80.44-14.82a29.933,29.933,0,0,0-21.89,2.91l-43.56,27.54-30.44-99.83.26-.08a52.177,52.177,0,0,0,25.25-12.36l13.33-11.86a89.08,89.08,0,0,1,92.33-9.02l5.52,2.67a63.605,63.605,0,0,0,27.7,6.35h53.53A39.809,39.809,0,0,1,362,344.33Z" style="" fill="#ffffff" data-original="#f7caa5" class=""/><path xmlns="http://www.w3.org/2000/svg" d="M436,194.71v38.94H329.49V189.16a44.265,44.265,0,0,0-7.52-24.75,38.778,38.778,0,0,1,23.48-8.63,33.529,33.529,0,0,0,52.9,1.3,8.184,8.184,0,0,1,1.1-1.24A38.952,38.952,0,0,1,436,194.71Z" style="" fill="#f5f5f5" data-original="#f8ec7d" class=""/><path xmlns="http://www.w3.org/2000/svg" d="M430.81,307.22l.05.09-59.05,31.84L362,344.33a39.648,39.648,0,0,0-13-23.57l37.95-20.45,9.66-5.21C408.54,289.05,424.2,295.59,430.81,307.22Z" style="" fill="#ffffff" data-original="#edb288" class=""/><path xmlns="http://www.w3.org/2000/svg" d="M406.35,90.87v17.31a34.61,34.61,0,0,1-69.22,0V90.87a34.61,34.61,0,1,1,69.22,0Z" style="" fill="#f5f5f5" data-original="#f8ec7d" class=""/><path xmlns="http://www.w3.org/2000/svg" d="M386.48,299.43l.47.88L349,320.76a39.566,39.566,0,0,0-26.29-9.93H310.84l31.56-17.16A36.47,36.47,0,0,1,386.48,299.43Z" style="" fill="#ffffff" data-original="#edb288" class=""/><path xmlns="http://www.w3.org/2000/svg" d="M321.97,164.41a44.265,44.265,0,0,1,7.52,24.75v64.26H182.67V189.16a44.481,44.481,0,0,1,43.37-44.48,38.307,38.307,0,0,0,60.44,1.49,10.509,10.509,0,0,1,1.25-1.42A44.5,44.5,0,0,1,321.97,164.41Z" style="" fill="#f0233e" data-original="#e48e66" class=""/><path xmlns="http://www.w3.org/2000/svg" d="M295.62,70.53V90.3a39.54,39.54,0,1,1-79.08,0V70.53a39.54,39.54,0,1,1,79.08,0Z" style="" fill="#f0233e" data-original="#e48e66" class=""/><path xmlns="http://www.w3.org/2000/svg" d="M188.49,163.22l1.56,1.39a44.311,44.311,0,0,0-7.38,24.55v44.49H76V194.71a38.943,38.943,0,0,1,37.96-38.93,33.539,33.539,0,0,0,52.91,1.3,8.516,8.516,0,0,1,1.09-1.24A38.71,38.71,0,0,1,188.49,163.22Z" style="" fill="#f5f5f5" data-original="#f8ec7d" class=""/><path xmlns="http://www.w3.org/2000/svg" d="M174.87,90.87v17.31a34.61,34.61,0,0,1-69.22,0V90.87a34.61,34.61,0,0,1,69.22,0Z" style="" fill="#f5f5f5" data-original="#f8ec7d" class=""/><path xmlns="http://www.w3.org/2000/svg" d="M135.23,434.96l14.04,46.05H52.59L31.11,304.85H95.56l9.23,30.28Zm-26.48,15.23a12.89,12.89,0,1,0-12.89,12.89A12.889,12.889,0,0,0,108.75,450.19Z" style="" fill="#f0233e" data-original="#e48e66" class=""/><circle xmlns="http://www.w3.org/2000/svg" cx="95.86" cy="450.19" r="12.89" style="" fill="#f5f5f5" data-original="#f8ec7d" class=""/><path xmlns="http://www.w3.org/2000/svg" d="M435.1,298.2l-2.371,1.279c-9.578-11.636-26.182-16.145-38.832-9.732l-.133.07-5.6,3.016a42.523,42.523,0,0,0-48.7-4.4L309.313,304.83H269.18a57.927,57.927,0,0,1-25.086-5.751l-5.523-2.672a94.72,94.72,0,0,0-98.549,9.629c-.13.1-.258.2-.38.312l-13.334,11.863a46.147,46.147,0,0,1-17.436,9.726L101.3,303.1a6,6,0,0,0-5.739-4.25H31.11a6,6,0,0,0-5.956,6.726l21.48,176.16a6,6,0,0,0,5.956,5.274h96.68a6,6,0,0,0,5.739-7.75l-12.7-41.674,39.55-25a23.845,23.845,0,0,1,17.371-2.25c.122.03.244.057.368.079l80.458,14.824a104.15,104.15,0,0,0,64.342-9.088,5.867,5.867,0,0,0,.734-.43l139.159-95.55a6,6,0,0,0,1.744-8.041A38.175,38.175,0,0,0,435.1,298.2Zm-35.713,2.219c7.318-3.668,16.526-.66,22.4,4.958l-52.783,28.467-3.087,1.63a45.834,45.834,0,0,0-7.21-13.134Zm-54.119-1.479c.047-.026.1-.053.142-.081a30.515,30.515,0,0,1,31.039.29l-26.8,14.444a45.632,45.632,0,0,0-17.162-7.7ZM57.9,475.01,37.887,310.85H91.116l50.052,164.16Zm280.789-69.432a92.069,92.069,0,0,1-56.484,7.852l-80.263-14.788a35.8,35.8,0,0,0-26.086,3.543c-.092.052-.184.106-.274.164l-36.909,23.335-26.3-86.25a58.154,58.154,0,0,0,21.911-12.261l13.143-11.694a82.763,82.763,0,0,1,85.916-8.268l5.52,2.671a70.011,70.011,0,0,0,30.313,6.948h53.53a33.813,33.813,0,0,1,33.2,27.5l-38.79-1.76a232.479,232.479,0,0,0-42.224,1.952,6,6,0,1,0,1.648,11.886,219.855,219.855,0,0,1,40.034-1.849l45.651,2.07c.09,0,.18.006.271.006a6,6,0,0,0,6-6c0-.967-.039-1.932-.1-2.894l6.257-3.3L440.8,308.759a26.188,26.188,0,0,1,31.535,5.053Z" style="" fill="#6c6c6c" data-original="#63316d" class=""/><path xmlns="http://www.w3.org/2000/svg" d="M76.97,450.19A18.89,18.89,0,1,0,95.86,431.3,18.911,18.911,0,0,0,76.97,450.19Zm18.89-6.89a6.89,6.89,0,1,1-6.89,6.89A6.9,6.9,0,0,1,95.86,443.3Z" style="" fill="#6c6c6c" data-original="#63316d" class=""/><path xmlns="http://www.w3.org/2000/svg" d="M301.62,90.3V70.53a45.54,45.54,0,0,0-91.08,0V90.3a45.54,45.54,0,1,0,91.08,0Zm-79.08,0V70.53a33.54,33.54,0,1,1,67.08,0V90.3a33.54,33.54,0,1,1-67.08,0Z" style="" fill="#6c6c6c" data-original="#63316d" class=""/><path xmlns="http://www.w3.org/2000/svg" d="M182.67,259.42H329.49a6,6,0,0,0,6-6V239.65H436a6,6,0,0,0,6-6V194.71a44.992,44.992,0,0,0-42.186-44.859c-.121-.007-.243-.011-.364-.011-2.954,0-4.445,1.839-5.738,3.433a27.529,27.529,0,0,1-43.439-1.061,5.984,5.984,0,0,0-4.971-2.43,44.468,44.468,0,0,0-22.067,6.431A50.824,50.824,0,0,0,288.1,138.761c-.122-.007-.243-.011-.366-.011-2.953,0-4.455,1.849-5.889,3.615a32.307,32.307,0,0,1-50.975-1.25,5.943,5.943,0,0,0-4.977-2.433,50.588,50.588,0,0,0-37.028,17.589,44.709,44.709,0,0,0-20.541-6.42c-.12-.007-.24-.011-.36-.011-2.948,0-4.439,1.841-5.728,3.432a27.539,27.539,0,0,1-43.449-1.06,5.985,5.985,0,0,0-4.971-2.43A44.945,44.945,0,0,0,70,194.71v38.94a6,6,0,0,0,6,6H176.67v13.77A6,6,0,0,0,182.67,259.42ZM372.4,175.37a39.437,39.437,0,0,0,29.527-13.245A32.986,32.986,0,0,1,430,194.71v32.94H335.49V189.16a50.257,50.257,0,0,0-5.529-22.975,32.447,32.447,0,0,1,12.778-4.214A39.11,39.11,0,0,0,372.4,175.37ZM223.3,150.86a44.313,44.313,0,0,0,66.933.164,38.793,38.793,0,0,1,26.738,16.7c.012.02.025.04.039.059a38.3,38.3,0,0,1,6.482,21.374v58.26H188.67V189.16a38.482,38.482,0,0,1,34.628-38.3ZM82,227.65V194.71a33.171,33.171,0,0,1,29.252-32.735,39.544,39.544,0,0,0,59.2.15,32.689,32.689,0,0,1,11.712,4.129,50.328,50.328,0,0,0-5.489,22.906v38.49Z" style="" fill="#6c6c6c" data-original="#63316d" class=""/><path xmlns="http://www.w3.org/2000/svg" d="M412.35,108.18V90.87a40.61,40.61,0,0,0-81.22,0v17.31a40.61,40.61,0,0,0,81.22,0Zm-69.22,0V90.87a28.61,28.61,0,1,1,57.22,0v17.31a28.61,28.61,0,0,1-57.22,0Z" style="" fill="#6c6c6c" data-original="#63316d" class=""/><path xmlns="http://www.w3.org/2000/svg" d="M180.87,108.18V90.87a40.61,40.61,0,0,0-81.22,0v17.31a40.61,40.61,0,0,0,81.22,0Zm-69.22,0V90.87a28.61,28.61,0,0,1,57.22,0v17.31a28.61,28.61,0,0,1-57.22,0Z" style="" fill="#6c6c6c" data-original="#63316d" class=""/></g></svg>
