<svg id="Layer_1" enable-background="new 0 0 512 512" height="512" viewBox="0 0 512 512" width="512" xmlns="http://www.w3.org/2000/svg"><path d="m508.692 351.393c-11.073-28.205-36.266-48.563-65.665-53.801.987-3.751 1.846-7.577 2.591-11.466h13.177c15.592 0 28.277-12.688 28.277-28.283 0-15.611-12.685-28.311-28.277-28.311h-10.741c-.585-6.394-1.459-12.824-2.575-19.262-.032-.34-.09-.671-.165-.996-5.044-28.406-15.15-56.932-29.522-83.065h19.277c11.105 0 20.464-3.048 27.065-8.815 6.232-5.445 9.664-12.966 9.664-21.178 0-15.617-12.872-32.215-36.728-32.215h-373.711c-33.833-.001-61.359 27.53-61.359 61.371v240.5c0 13.641 11.096 24.739 24.734 24.739h11.989c7.348 32.038 36.234 56.028 70.673 56.028 34.425 0 63.301-23.989 70.645-56.028h73.077c4.141 0 7.498-3.357 7.498-7.499s-3.357-7.499-7.498-7.499h-71.277c.005-.336.026-.669.026-1.007 0-39.736-32.511-72.062-72.471-72.062-39.976 0-72.5 32.326-72.5 72.062 0 .338.021.67.026 1.007h-10.188c-5.369 0-9.737-4.37-9.737-9.74v-112.213h99.231c40.137 0 64.975 30.674 78.747 56.412 11.723 21.857 27.432 23.99 47.003 23.99 1.33 0 2.683-.011 4.049-.025.049.001.097.007.146.007.079 0 .155-.009.233-.012.893-.01 1.786-.02 2.694-.031 2.707-.035 5.537-.071 8.497-.071h77.9c1.423 0 2.81.007 4.163.013 21.066.108 39.264.176 47.334-28.417 7.906-28.063 11.052-57.145 9.467-87.055h37.166c.55 3.713 1.006 7.419 1.366 11.113-14.813.872-26.599 13.21-26.599 28.257 0 14.143 10.432 25.893 24.003 27.96-8.014 38.453-29.334 69.348-62.083 89.81h-82.553c-4.141 0-7.498 3.357-7.498 7.499s3.357 7.499 7.498 7.499h77.624c3.728 32.26 31.19 57.391 64.425 57.391 33.236 0 60.698-25.132 64.427-57.392 6.791-.029 12.433-2.834 15.893-7.909 6.019-8.831 4.064-22.384.562-31.306zm-401.296-33.85c31.692 0 57.475 25.598 57.475 57.063 0 31.449-25.783 57.034-57.475 57.034-31.708 0-57.503-25.586-57.503-57.034 0-31.465 25.795-57.063 57.503-57.063zm-10.616-78.881v-46.572c0-5.434 4.419-9.854 9.851-9.854 5.447 0 9.879 4.42 9.879 9.854v46.624c-.76-.018-1.512-.052-2.282-.052zm109.413 64.327c-13.701-25.605-37.302-55.494-74.687-62.699v-48.2c0-13.704-11.159-24.852-24.875-24.852-13.701 0-24.847 11.148-24.847 24.852v46.572h-19.645v-89.019c0-12.922 10.51-23.435 23.429-23.435h58.566c4.141 0 7.498-3.357 7.498-7.499s-3.357-7.499-7.498-7.499h-58.566c-21.188 0-38.426 17.241-38.426 38.433v89.019h-32.146v-113.29c0-25.57 20.798-46.373 46.363-46.373h373.708c14.115 0 21.732 8.87 21.732 17.216 0 2.701-.787 6.608-4.534 9.882-3.828 3.345-9.775 5.113-17.199 5.113h-32.316-224.003c-4.141 0-7.498 3.357-7.498 7.499s3.357 7.499 7.498 7.499h57.928v58.992 133.849c-15.051-.21-23.18-2.449-30.482-16.06zm49.404 15.944h-3.926v-126.234h10.106c5.588 0 10.134 4.547 10.134 10.137v58.552c0 26.866 21.206 26.866 30.262 26.866h8.504c8.449 0 15.322 6.875 15.322 15.326v15.354h-70.402zm114.962-17.477c-4.701 16.657-11.249 17.538-29.564 17.501v-15.378c0-16.721-13.601-30.325-30.318-30.325h-8.504c-12.196 0-15.265-1.397-15.265-11.867v-58.552c0-13.86-11.274-25.135-25.131-25.135h-10.106v-51.492h107.809c10.62 28.821 17.088 57.04 19.4 84.5-.003.089-.013.176-.013.265 0 .531.057 1.048.162 1.548.644 8.293.914 16.516.797 24.665l-12.408-12.757c-1.411-1.451-3.35-2.27-5.374-2.27h-22.877c-4.141 0-7.498 3.357-7.498 7.499s3.357 7.499 7.498 7.499h19.71l19.845 20.402c-1.408 14.911-4.122 29.554-8.163 43.897zm22.712-97.982c-2.643-25.234-8.597-51.026-17.854-77.266h23.101c14.293 24.098 24.671 50.631 30.386 77.266zm28.118 54.369c0-7.34 5.958-13.313 13.28-13.313h24.124c7.323 0 13.28 5.972 13.28 13.313 0 7.325-5.958 13.285-13.28 13.285h-24.123c-7.323-.001-13.281-5.96-13.281-13.285zm6.421 175.158c-24.954 0-45.686-18.427-49.313-42.39h13.913c3.463 16.37 18.018 28.695 35.4 28.695s31.937-12.325 35.4-28.695h13.913c-3.628 23.964-24.359 42.39-49.313 42.39zm-19.795-42.39h39.588c-3.037 7.991-10.752 13.696-19.794 13.696s-16.757-5.704-19.794-13.696zm87.724-16.361c-.301.442-.928 1.362-3.608 1.362h-98.279c20.397-16.98 35.46-38.443 44.639-63.559 25.136 3.767 46.839 20.871 56.242 44.821 2.589 6.596 3.04 14.391 1.006 17.376z"/><path d="m107.396 408.163c18.593 0 33.72-15.054 33.72-33.557s-15.127-33.557-33.72-33.557c-18.609 0-33.748 15.054-33.748 33.557s15.139 33.557 33.748 33.557zm0-52.115c10.324 0 18.723 8.326 18.723 18.558s-8.399 18.558-18.723 18.558c-10.34 0-18.752-8.326-18.752-18.558s8.412-18.558 18.752-18.558z"/></svg>