<?xml version="1.0"?>
<svg xmlns="http://www.w3.org/2000/svg" xmlns:xlink="http://www.w3.org/1999/xlink" xmlns:svgjs="http://svgjs.com/svgjs" version="1.1" width="512" height="512" x="0" y="0" viewBox="0 0 512.002 512.002" style="enable-background:new 0 0 512 512" xml:space="preserve" class=""><g>
<g xmlns="http://www.w3.org/2000/svg">
	<path style="" d="M168.66,423.911c-7.387-35.206-28.225-66.138-58.076-86.21l-33.736-22.684   c-1.291,0.98-2.509,2.088-3.62,3.343c-9.037,10.201-8.997,25.468-0.086,35.641c-10.398-11.137-16.188-25.805-16.188-41.046v-2.581   c-5.296,1.002-10.294,3.688-14.102,7.987l0,0c-9.037,10.201-8.997,25.468-0.086,35.641c-10.398-11.137-16.188-25.805-16.188-41.046   V189.939c0-7.08-3.176-13.537-8.294-17.885c-5.021,4.263-8.282,10.619-8.282,17.885v155.052c0,18.125,5.636,35.802,16.128,50.582   l17.833,25.121l42.664,60.099L101.681,502h83.363L168.66,423.911z" fill="#e3324a" data-original="#feda9b" class=""/>
	<path style="" d="M494.763,172.994c-4.502,4.314-7.255,10.357-7.255,16.944v123.016   c0,15.241-5.789,29.91-16.188,41.046c8.911-10.172,8.951-25.439-0.086-35.641c-4.305-4.859-10.127-7.665-16.186-8.293v2.887   c0,15.241-5.79,29.91-16.188,41.046c8.911-10.172,8.951-25.439-0.086-35.641c-0.835-0.942-1.74-1.786-2.679-2.574l-32.594,21.915   c-29.852,20.072-50.689,51.004-58.076,86.21L329.041,502h81.28l15.055-21.207l42.664-60.099l17.833-25.121   c10.492-14.78,16.128-32.457,16.128-50.582V189.938C502.001,183.189,499.187,177.226,494.763,172.994z" fill="#e3324a" data-original="#feda9b" class=""/>
</g>
<g xmlns="http://www.w3.org/2000/svg">
	<path style="" d="M280.138,211.681c4.774-4.957,10.949-8.618,18.014-10.311l25.534-6.119l0.011,0.017l-0.011-0.017   v-15.589h31.182v15.639l0,0l25.468,6.084c16.653,3.978,28.402,18.864,28.402,35.986v18.676h-56.453L280.138,211.681z" fill="#209586" data-original="#7d9bff" class=""/>
	<path style="" d="M213.977,201.319l-18.154-4.351l-18.274,4.366c-16.654,3.978-28.402,18.864-28.402,35.986v18.676   h10.698l72.146-44.366C227.217,206.673,221.042,203.012,213.977,201.319z" fill="#209586" data-original="#7d9bff" class=""/>
</g>
<path xmlns="http://www.w3.org/2000/svg" style="" d="M257.748,219.593l27.648-6.626l-7.651-1.828l-43.432-0.07l-35.566,8.523  c-23.179,5.555-39.524,26.28-39.524,50.115v35.959h59v-35.959C218.224,245.873,234.569,225.148,257.748,219.593z" fill="#ffffff" data-original="#ffffff" class=""/>
<path xmlns="http://www.w3.org/2000/svg" style="" d="M313.218,219.614l-27.822-6.647l-27.648,6.626c-23.179,5.555-39.524,26.28-39.524,50.115v35.959  h134.554v-35.929C352.778,245.889,336.414,225.155,313.218,219.614z" fill="#209586" data-original="#72d8ff" class=""/>
<polygon xmlns="http://www.w3.org/2000/svg" style="" points="255.516,189.357 234.314,189.357 234.314,211.07 256.04,260.5 266.644,236.386   255.516,211.07 " fill="#ffffff" data-original="#ffffff" class=""/>
<polygon xmlns="http://www.w3.org/2000/svg" style="" points="277.746,189.357 255.516,189.357 255.516,211.07 266.644,236.386 277.746,211.14 " fill="#fcb17e" data-original="#fcb17e"/>
<path xmlns="http://www.w3.org/2000/svg" style="" d="M273.487,189.817c18.158-6.98,31.051-24.575,31.051-45.191v-30.075h-62.102v30.075  C242.437,165.242,255.33,182.837,273.487,189.817z" fill="#ffefd5" data-original="#ffefd5" class=""/>
<path xmlns="http://www.w3.org/2000/svg" style="" d="M273.487,67.219c-18.158,6.98-31.051,24.575-31.051,45.191v10.481  c11.52-2.447,22.019-8.667,29.717-17.854l0,0l20.38,11.974c4.307-2.467,8.279-5.539,11.784-9.162  C302.577,89.227,290.29,73.678,273.487,67.219z" fill="#209586" data-original="#b3b6c3" class=""/>
<path xmlns="http://www.w3.org/2000/svg" style="" d="M207.628,124.367c0-13.92-8.187-25.924-20.006-31.473c-11.819,5.549-20.006,17.552-20.006,31.473  v8.18c13.068-0.876,25.771-4.839,37.051-11.598l0,0l2.582,10.278c0.126-0.024,0.252-0.046,0.378-0.071L207.628,124.367  L207.628,124.367z" fill="#209586" data-original="#ffb954" class=""/>
<path xmlns="http://www.w3.org/2000/svg" style="" d="M187.622,178.969c11.819-5.549,20.006-17.552,20.006-31.473v-21.592h-40.012v21.592  C167.616,161.417,175.803,173.42,187.622,178.969z" fill="#ffefd5" data-original="#ffefd5" class=""/>
<path xmlns="http://www.w3.org/2000/svg" style="" d="M353.507,92.719c-12.086,5.442-20.506,17.583-20.506,31.699v6.587  c0.142,0.03,0.282,0.064,0.424,0.093L335.961,121c11.567,6.931,24.632,10.912,38.052,11.649v-8.231  C374.013,110.303,365.594,98.162,353.507,92.719z" fill="#209586" data-original="#ffb954" class=""/>
<path xmlns="http://www.w3.org/2000/svg" style="" d="M352.882,179.528c12.423-5.299,21.131-17.622,21.131-31.981v-21.592h-42.262v21.592  C331.751,161.906,340.459,174.229,352.882,179.528z" fill="#ffefd5" data-original="#ffefd5" class=""/>
<path xmlns="http://www.w3.org/2000/svg" d="M35.809,426.482c1.95,2.747,5.032,4.212,8.163,4.212c2.002,0,4.023-0.6,5.78-1.847c4.503-3.197,5.563-9.439,2.365-13.943  l-17.833-25.121c-9.344-13.163-14.283-28.652-14.283-44.794V189.938c0-4.108,1.838-7.939,5.042-10.511  c3.203-2.571,7.34-3.536,11.354-2.645c6.215,1.379,10.556,6.789,10.556,13.156v123.016c0,17.414,6.398,34.005,18.021,46.913  c0.498,0.597,1.01,1.188,1.551,1.761c6.641,7.037,14.449,15.329,21.803,23.145l10.295,10.957c0.033,0.035,0.069,0.065,0.103,0.099  c8.807,9.367,15.302,16.284,15.438,16.428c3.779,4.025,10.109,4.225,14.135,0.444c4.026-3.781,4.225-10.109,0.443-14.135  c-0.182-0.194-11.888-12.659-25.256-26.868l-22.929-24.403c-0.058-0.062-0.111-0.127-0.169-0.189  c-5.376-6.43-5.309-15.753,0.326-22.115c4.985-5.626,13.449-6.706,19.686-2.513L135.38,346  c27.848,18.725,46.979,47.123,53.869,79.965l16.385,78.089c0.989,4.713,5.146,7.948,9.777,7.948c0.68,0,1.371-0.07,2.063-0.215  c5.405-1.134,8.867-6.436,7.733-11.841l-16.385-78.088c-7.967-37.972-30.087-70.806-62.283-92.455l-34.981-23.522  c-14.027-9.43-32.881-7.402-44.605,4.553V189.938c0-15.816-10.783-29.254-26.223-32.681c-9.965-2.214-20.243,0.184-28.204,6.571  c-7.96,6.387-12.525,15.904-12.525,26.11V344.99c0,20.313,6.216,39.806,17.975,56.371L35.809,426.482z" fill="#6c6c6c" data-original="#000000" style="" class=""/>
<path xmlns="http://www.w3.org/2000/svg" d="M80.837,472.639c-4.503,3.197-5.563,9.439-2.365,13.943l15.055,21.207c1.95,2.747,5.032,4.212,8.163,4.212  c2.002,0,4.023-0.6,5.78-1.847c4.503-3.197,5.563-9.439,2.365-13.943L94.78,475.004C91.584,470.5,85.341,469.441,80.837,472.639z" fill="#6c6c6c" data-original="#000000" style="" class=""/>
<path xmlns="http://www.w3.org/2000/svg" d="M60.077,443.436c-4.495,3.208-5.539,9.453-2.332,13.948l0.064,0.09c1.952,2.735,5.027,4.193,8.149,4.193  c2.01,0,4.039-0.604,5.8-1.861c4.495-3.208,5.539-9.453,2.332-13.948l-0.064-0.09C70.816,441.272,64.572,440.228,60.077,443.436z" fill="#6c6c6c" data-original="#000000" style="" class=""/>
<path xmlns="http://www.w3.org/2000/svg" d="M512.001,344.991V189.938c0-10.206-4.565-19.723-12.525-26.11s-18.243-8.781-28.203-6.571  c-15.44,3.426-26.224,16.865-26.224,32.681v120.496c-11.723-11.955-30.579-13.983-44.605-4.553l-34.981,23.521  c-32.197,21.648-54.316,54.483-62.283,92.455l-16.384,78.089c-1.134,5.405,2.328,10.706,7.733,11.84  c0.692,0.145,1.384,0.215,2.063,0.215c4.632,0,8.788-3.236,9.777-7.949l16.384-78.089c6.891-32.841,26.021-61.24,53.869-79.964  l34.981-23.521c6.235-4.194,14.699-3.114,19.686,2.512c5.628,6.354,5.703,15.662,0.347,22.092c-0.064,0.07-0.125,0.142-0.189,0.212  l-23.339,24.839c-13.197,14.028-24.666,26.24-24.847,26.432c-3.781,4.026-3.582,10.354,0.443,14.135  c4.026,3.781,10.354,3.582,14.135-0.444c0.136-0.144,6.631-7.061,15.438-16.428c0.033-0.034,0.07-0.064,0.103-0.099l10.295-10.957  c7.354-7.816,15.162-16.108,21.803-23.145c0.541-0.573,1.053-1.164,1.551-1.761c11.622-12.908,18.021-29.499,18.021-46.913V189.938  c0-6.367,4.341-11.777,10.557-13.156c4.013-0.89,8.149,0.075,11.354,2.645c3.204,2.571,5.042,6.402,5.042,10.511V344.99  c0,16.142-4.939,31.631-14.283,44.794l-75.551,106.427c-3.197,4.503-2.138,10.746,2.365,13.943c1.758,1.247,3.778,1.847,5.78,1.847  c3.13,0,6.213-1.466,8.163-4.212l75.551-106.427C505.785,384.797,512.001,365.304,512.001,344.991z" fill="#6c6c6c" data-original="#000000" style="" class=""/>
<path xmlns="http://www.w3.org/2000/svg" d="M264.311,300.12c-0.359-0.55-0.78-1.06-1.24-1.52c-0.46-0.47-0.97-0.88-1.52-1.25c-0.54-0.36-1.13-0.67-1.73-0.92  s-1.229-0.44-1.869-0.57c-1.29-0.26-2.62-0.26-3.91,0c-0.641,0.13-1.271,0.32-1.87,0.57c-0.601,0.25-1.18,0.56-1.72,0.92  c-0.551,0.37-1.061,0.78-1.521,1.25c-0.47,0.46-0.88,0.97-1.25,1.52c-0.36,0.54-0.67,1.12-0.92,1.72s-0.44,1.23-0.57,1.87  c-0.13,0.65-0.189,1.31-0.189,1.96s0.06,1.31,0.189,1.95c0.13,0.64,0.32,1.27,0.57,1.87s0.56,1.19,0.92,1.73  c0.37,0.55,0.78,1.06,1.25,1.52c0.46,0.46,0.97,0.88,1.521,1.24c0.54,0.36,1.119,0.67,1.72,0.92c0.6,0.25,1.229,0.44,1.87,0.57  c0.649,0.13,1.31,0.2,1.96,0.2c0.649,0,1.31-0.07,1.95-0.2s1.27-0.32,1.869-0.57c0.601-0.25,1.19-0.56,1.73-0.92  c0.55-0.36,1.06-0.78,1.52-1.24s0.881-0.97,1.24-1.52c0.36-0.54,0.67-1.13,0.92-1.73s0.44-1.23,0.57-1.87  c0.13-0.64,0.2-1.3,0.2-1.95s-0.07-1.31-0.2-1.96c-0.13-0.64-0.32-1.27-0.57-1.87S264.671,300.66,264.311,300.12z" fill="#6c6c6c" data-original="#000000" style="" class=""/>
<path xmlns="http://www.w3.org/2000/svg" d="M313.001,265c-5.522,0-10,4.477-10,10v20.667h-11.333c-5.522,0-10,4.477-10,10s4.478,10,10,10h61.11c5.522,0,10-4.477,10-10  v-35.929c0-1.239-0.05-2.467-0.122-3.69h46.082c5.522,0,10-4.477,10-10v-18.676c0-21.84-14.836-40.638-36.079-45.712l-17.791-4.25  v-3.19c11.563-8.1,19.145-21.513,19.145-36.671v-14.763v-6.83v-1.537c0-24.679-20.077-44.756-44.756-44.756  c-11.075,0-21.215,4.052-29.038,10.74C301.509,69.074,280.551,54,256.128,54c-24.454,0-45.434,15.113-54.124,36.484  c-7.835-6.736-18.012-10.822-29.132-10.822c-24.679,0-44.756,20.077-44.756,44.756v1.537v6.83v14.763  c0,15.158,7.582,28.571,19.145,36.671v3.19l-17.791,4.25c-21.242,5.075-36.078,23.872-36.078,45.712v18.676c0,5.523,4.478,10,10,10  h45.952c-0.071,1.213-0.12,2.432-0.12,3.661v35.958c0,5.523,4.478,10,10,10h60.11c5.522,0,10-4.477,10-10s-4.478-10-10-10h-10.333  V275c0-5.523-4.478-10-10-10s-10,4.477-10,10v20.667h-19.777v-25.958c0-19.287,13.1-35.896,31.854-40.39l27.442-6.576l18.365,41.782  c1.596,3.631,5.188,5.976,9.153,5.976h0.001c3.966,0,7.558-2.344,9.154-5.975l18.346-41.72l27.355,6.535  c18.772,4.485,31.883,21.096,31.883,40.397v25.929H323V275C323.001,269.477,318.523,265,313.001,265z M224.313,194.345  c-2.569-1.133-5.247-2.039-8.007-2.7l-17.864-4.281v-3.116c3.224-2.253,6.139-4.916,8.667-7.918  c4.466,6.88,10.334,12.763,17.204,17.244V194.345z M148.116,147.547v-4.763h13.957c12.243,0,24.323-2.427,35.555-7.081v11.843  c0,13.65-11.105,24.756-24.756,24.756S148.116,161.198,148.116,147.547z M217.718,144.625v-10.562h13.669  c15.858,0,30.936-5.897,42.492-16.415l20.622,12.116v3.02v13.304c-0.773,20.503-17.684,36.947-38.373,36.947  C234.948,183.036,217.718,165.805,217.718,144.625z M287.745,194.377V193.7c6.926-4.478,12.846-10.376,17.347-17.286  c2.511,2.968,5.401,5.602,8.594,7.834v3.116l-17.865,4.281C293.036,192.313,290.335,193.23,287.745,194.377z M314.501,147.547v-1.46  c0.012-0.487,0.037-0.972,0.037-1.462v-8.906c11.221,4.644,23.288,7.066,35.518,7.066h13.957v4.763  c0,13.65-11.105,24.756-24.756,24.756S314.501,161.198,314.501,147.547z M339.257,99.662c13.102,0,23.858,10.231,24.702,23.123  h-13.903c-11.688,0-23.19-2.814-33.529-8.172C320.331,105.825,329.088,99.662,339.257,99.662z M217.718,112.41  c0-21.179,17.23-38.41,38.41-38.41c19.103,0,34.992,14.018,37.926,32.306l-16.835-9.891c-4.211-2.474-9.593-1.545-12.73,2.2  c-8.227,9.818-20.292,15.449-33.102,15.449h-13.669L217.718,112.41L217.718,112.41z M172.872,99.662  c10.169,0,18.926,6.164,22.73,14.95c-10.34,5.358-21.841,8.172-33.529,8.172H148.17C149.014,109.893,159.771,99.662,172.872,99.662z   M196.418,209.869c-19.674,4.714-35.136,18.431-42.495,36.178h-40.532v-8.676c0-12.546,8.522-23.345,20.725-26.26l25.468-6.084  c4.501-1.075,7.677-5.098,7.677-9.726v-3.362c1.84,0.231,3.71,0.364,5.611,0.364c1.887,0,3.744-0.131,5.57-0.359v2.853  c-0.007,0.149-0.01,0.298-0.011,0.447c-0.002,3.281,1.611,6.495,4.573,8.411c1.116,0.723,2.322,1.193,3.553,1.428l14.917,3.574  L196.418,209.869z M256.042,235.653l-11.729-26.683v-7.136c3.817,0.787,7.768,1.202,11.814,1.202c3.977,0,7.861-0.403,11.617-1.164  v7.166L256.042,235.653z M315.542,209.888l-5.021-1.199l14.997-3.594c1.248-0.232,2.474-0.708,3.605-1.44  c2.957-1.913,4.565-5.127,4.565-8.408c0-0.078-0.001-0.157-0.003-0.235v-3.068c1.827,0.228,3.683,0.359,5.57,0.359  c1.901,0,3.771-0.133,5.611-0.364v3.362c0,4.628,3.176,8.651,7.677,9.726l25.468,6.084c12.203,2.916,20.726,13.714,20.726,26.26  v8.676h-40.67C350.701,228.3,335.228,214.591,315.542,209.888z" fill="#6c6c6c" data-original="#000000" style="" class=""/>
<path xmlns="http://www.w3.org/2000/svg" d="M265.995,24.963V10c0-5.523-4.478-10-10-10c-5.522,0-10,4.477-10,10v14.963c0,5.523,4.478,10,10,10  C261.517,34.963,265.995,30.486,265.995,24.963z" fill="#6c6c6c" data-original="#000000" style="" class=""/>
<path xmlns="http://www.w3.org/2000/svg" d="M205.024,46.767c1.952,1.951,4.51,2.926,7.067,2.926c2.561,0,5.121-0.978,7.074-2.932c3.903-3.907,3.9-10.239-0.007-14.142  l-10.49-10.48c-3.907-3.904-10.238-3.901-14.142,0.006s-3.9,10.239,0.007,14.142L205.024,46.767z" fill="#6c6c6c" data-original="#000000" style="" class=""/>
<path xmlns="http://www.w3.org/2000/svg" d="M292.673,32.822c-3.903,3.907-3.9,10.239,0.007,14.142c1.952,1.95,4.51,2.925,7.067,2.925c2.561,0,5.122-0.978,7.074-2.933  l10.409-10.419c3.903-3.907,3.9-10.239-0.007-14.142c-3.907-3.903-10.24-3.901-14.142,0.007L292.673,32.822z" fill="#6c6c6c" data-original="#000000" style="" class=""/>
<g xmlns="http://www.w3.org/2000/svg">
</g>
<g xmlns="http://www.w3.org/2000/svg">
</g>
<g xmlns="http://www.w3.org/2000/svg">
</g>
<g xmlns="http://www.w3.org/2000/svg">
</g>
<g xmlns="http://www.w3.org/2000/svg">
</g>
<g xmlns="http://www.w3.org/2000/svg">
</g>
<g xmlns="http://www.w3.org/2000/svg">
</g>
<g xmlns="http://www.w3.org/2000/svg">
</g>
<g xmlns="http://www.w3.org/2000/svg">
</g>
<g xmlns="http://www.w3.org/2000/svg">
</g>
<g xmlns="http://www.w3.org/2000/svg">
</g>
<g xmlns="http://www.w3.org/2000/svg">
</g>
<g xmlns="http://www.w3.org/2000/svg">
</g>
<g xmlns="http://www.w3.org/2000/svg">
</g>
<g xmlns="http://www.w3.org/2000/svg">
</g>
</g></svg>
