<?xml version="1.0"?>
<svg xmlns="http://www.w3.org/2000/svg" xmlns:xlink="http://www.w3.org/1999/xlink" xmlns:svgjs="http://svgjs.com/svgjs" version="1.1" width="512" height="512" x="0" y="0" viewBox="0 0 511.951 511.951" style="enable-background:new 0 0 512 512" xml:space="preserve" class=""><g>
<g xmlns="http://www.w3.org/2000/svg">
	<g>
		<g>
			<path style="" d="M111.514,415.236H76.439c-24.095,0-43.628,19.533-43.628,43.628v45.588h122.331v-45.588     C155.142,434.769,135.609,415.236,111.514,415.236z" fill="#ebeef2" data-original="#ebeef2" class=""/>
			<path style="" d="M111.514,415.236H97.898c19.926,0,36.08,19.533,36.08,43.628v45.588h21.165v-45.588     C155.142,434.769,135.609,415.236,111.514,415.236z" fill="#d1d6de" data-original="#d1d6de" class=""/>
			<polygon style="" points="99.185,415.236 88.768,415.236 74.367,464.183 93.977,484.267 113.586,464.183    " fill="#e3324a" data-original="#ed5575" class=""/>
			<g>
				<path style="" d="M93.977,272.676L93.977,272.676c-27.505,0-49.802,22.297-49.802,49.802v24.01      c0,27.505,22.297,49.802,49.802,49.802l0,0c27.505,0,49.802-22.297,49.802-49.802v-24.01      C143.779,294.973,121.481,272.676,93.977,272.676z" fill="#f9c295" data-original="#f9c295" class=""/>
				<path style="" d="M93.976,272.676c-2.171,0-4.305,0.154-6.403,0.424c18.901,3.144,33.511,24.044,33.511,49.378      v24.01c0,25.334-14.61,46.234-33.511,49.378c2.098,0.269,4.232,0.424,6.403,0.424c27.505,0,49.802-22.297,49.802-49.802v-24.01      C143.779,294.973,121.481,272.676,93.976,272.676z" fill="#e59f6a" data-original="#e59f6a" class=""/>
				<path style="" d="M126.379,284.682c0-0.002,0.001-0.004,0.001-0.006c-0.092-0.079-0.188-0.152-0.281-0.23      c-0.382-0.322-0.767-0.64-1.158-0.951c-0.178-0.142-0.358-0.281-0.539-0.42c-0.358-0.277-0.72-0.55-1.087-0.817      c-0.213-0.156-0.428-0.311-0.644-0.463c-0.336-0.237-0.674-0.469-1.016-0.697c-0.251-0.168-0.502-0.336-0.756-0.5      c-0.306-0.197-0.616-0.389-0.928-0.579c-0.294-0.181-0.588-0.362-0.886-0.536c-0.263-0.154-0.53-0.301-0.796-0.45      c-0.35-0.197-0.7-0.394-1.056-0.583c-0.183-0.097-0.37-0.188-0.554-0.282c-6.809-3.501-14.522-5.49-22.707-5.49      c-27.505,0-49.802,22.297-49.802,49.802v4.604c7.334,3.236,15.437,5.046,23.967,5.046c17.518,0,33.258-7.586,44.138-19.642      c6.88,10.601,18.293,17.987,31.499,19.394v-9.401C143.778,307.351,137.026,293.812,126.379,284.682z" fill="#209586" data-original="#444966" class=""/>
				<path style="" d="M143.486,317.108c-0.035-0.324-0.082-0.644-0.123-0.966c-0.071-0.559-0.144-1.117-0.234-1.67      c-0.053-0.328-0.115-0.654-0.175-0.98c-0.099-0.544-0.203-1.087-0.32-1.625c-0.069-0.317-0.144-0.631-0.218-0.945      c-0.13-0.547-0.268-1.091-0.416-1.631c-0.08-0.292-0.163-0.583-0.248-0.873c-0.167-0.566-0.344-1.128-0.529-1.685      c-0.084-0.253-0.168-0.506-0.256-0.757c-0.214-0.608-0.441-1.21-0.677-1.806c-0.076-0.192-0.149-0.385-0.227-0.575      c-0.285-0.693-0.585-1.379-0.9-2.056c-0.041-0.088-0.079-0.178-0.12-0.266c-3.018-6.393-7.356-12.04-12.664-16.592      c0-0.002,0.001-0.004,0.001-0.006c-0.001-0.001-0.003-0.002-0.004-0.004c-0.091-0.077-0.185-0.15-0.276-0.227      c-0.382-0.322-0.767-0.64-1.158-0.951c-0.178-0.142-0.358-0.281-0.539-0.42c-0.358-0.277-0.72-0.55-1.087-0.817      c-0.213-0.156-0.428-0.311-0.644-0.463c-0.336-0.237-0.674-0.469-1.016-0.698c-0.251-0.168-0.502-0.336-0.756-0.5      c-0.307-0.197-0.617-0.389-0.928-0.579c-0.294-0.181-0.588-0.362-0.886-0.536c-0.263-0.154-0.53-0.301-0.796-0.45      c-0.35-0.197-0.7-0.394-1.056-0.583c-0.183-0.097-0.37-0.188-0.553-0.282c-3.387-1.741-6.998-3.107-10.778-4.041      c-0.076-0.019-0.154-0.035-0.23-0.053c-0.801-0.194-1.61-0.365-2.425-0.52c-0.227-0.043-0.455-0.082-0.682-0.122      c-0.678-0.119-1.362-0.221-2.049-0.312c-0.284-0.037-0.567-0.076-0.852-0.108c-0.67-0.077-1.346-0.135-2.025-0.185      c-0.275-0.02-0.548-0.047-0.824-0.063c-0.937-0.053-1.879-0.085-2.829-0.086c-0.004,0-0.009,0-0.013,0c-0.002,0-0.005,0-0.007,0      c-0.704,0-1.402,0.024-2.099,0.053c-0.312,0.014-0.625,0.028-0.935,0.048c-0.27,0.016-0.538,0.041-0.807,0.061      c-0.856,0.069-1.708,0.153-2.553,0.261c18.862,3.138,33.448,23.959,33.509,49.222c6.313,5.198,14.122,8.644,22.696,9.557v-9.401      c0-0.907-0.027-1.807-0.075-2.702c-0.015-0.279-0.044-0.554-0.063-0.832C143.597,318.329,143.552,317.716,143.486,317.108z" fill="#efefef" data-original="#2e344c" class=""/>
			</g>
		</g>
		<g>
			<path style="" d="M273.513,150.012h-35.075c-24.095,0-43.628,19.533-43.628,43.628v45.588h122.331V193.64     C317.141,169.545,297.608,150.012,273.513,150.012z" fill="#ebeef2" data-original="#ebeef2" class=""/>
			<path style="" d="M273.513,150.012h-13.616c19.926,0,36.08,19.533,36.08,43.628v45.588h21.165V193.64     C317.141,169.545,297.608,150.012,273.513,150.012z" fill="#d1d6de" data-original="#d1d6de" class=""/>
			<polygon style="" points="261.184,150.012 250.767,150.012 236.366,198.959 255.976,219.043 275.585,198.959    " fill="#e3324a" data-original="#ed5575" class=""/>
			<g>
				<path style="" d="M255.976,7.451L255.976,7.451c-27.505,0-49.802,22.297-49.802,49.802v24.01      c0,27.505,22.297,49.802,49.802,49.802l0,0c27.505,0,49.802-22.297,49.802-49.802v-24.01      C305.778,29.748,283.48,7.451,255.976,7.451z" fill="#f9c295" data-original="#f9c295" class=""/>
				<path style="" d="M255.976,7.451c-2.171,0-4.305,0.154-6.403,0.424c18.901,3.144,33.511,24.044,33.511,49.378      v24.01c0,25.334-14.61,46.234-33.511,49.378c2.098,0.269,4.232,0.424,6.403,0.424c27.505,0,49.802-22.297,49.802-49.802v-24.01      C305.778,29.748,283.48,7.451,255.976,7.451z" fill="#e59f6a" data-original="#e59f6a" class=""/>
				<path style="" d="M288.379,19.458c0-0.002,0.001-0.004,0.001-0.006c-0.092-0.079-0.188-0.152-0.28-0.23      c-0.382-0.322-0.767-0.64-1.158-0.951c-0.178-0.142-0.358-0.281-0.539-0.42c-0.358-0.277-0.72-0.55-1.087-0.817      c-0.213-0.156-0.428-0.311-0.644-0.463c-0.336-0.237-0.674-0.469-1.016-0.697c-0.251-0.168-0.502-0.336-0.756-0.5      c-0.306-0.197-0.616-0.389-0.928-0.579c-0.294-0.181-0.588-0.362-0.886-0.536c-0.263-0.154-0.53-0.301-0.796-0.45      c-0.35-0.197-0.7-0.394-1.056-0.583c-0.183-0.097-0.37-0.188-0.554-0.282c-6.809-3.501-14.522-5.49-22.707-5.49      c-27.505,0-49.802,22.297-49.802,49.802v4.604c7.334,3.236,15.437,5.046,23.967,5.046c17.518,0,33.258-7.586,44.138-19.642      c6.88,10.601,18.293,17.987,31.499,19.394v-9.401C305.778,42.127,299.025,28.588,288.379,19.458z" fill="#209586" data-original="#444966" class=""/>
				<path style="" d="M305.485,51.884c-0.035-0.324-0.082-0.644-0.123-0.966c-0.071-0.559-0.144-1.117-0.234-1.67      c-0.053-0.328-0.115-0.654-0.175-0.98c-0.099-0.544-0.203-1.087-0.32-1.625c-0.069-0.317-0.144-0.631-0.218-0.945      c-0.13-0.547-0.268-1.091-0.416-1.631c-0.08-0.292-0.163-0.583-0.248-0.873c-0.167-0.566-0.344-1.128-0.529-1.685      c-0.084-0.253-0.168-0.506-0.256-0.757c-0.214-0.608-0.441-1.21-0.677-1.806c-0.076-0.192-0.149-0.385-0.227-0.575      c-0.285-0.693-0.585-1.379-0.9-2.056c-0.041-0.088-0.079-0.178-0.12-0.266c-3.018-6.393-7.356-12.04-12.664-16.592      c0-0.002,0.001-0.004,0.001-0.006c-0.001-0.001-0.003-0.002-0.004-0.004c-0.091-0.077-0.185-0.15-0.276-0.227      c-0.382-0.322-0.767-0.64-1.158-0.951c-0.178-0.142-0.358-0.281-0.539-0.42c-0.358-0.277-0.72-0.55-1.087-0.817      c-0.213-0.156-0.428-0.311-0.644-0.463c-0.336-0.237-0.674-0.469-1.016-0.698c-0.251-0.168-0.502-0.336-0.756-0.5      c-0.307-0.197-0.617-0.389-0.928-0.579c-0.294-0.181-0.588-0.362-0.886-0.536c-0.263-0.154-0.53-0.301-0.796-0.45      c-0.35-0.197-0.7-0.394-1.056-0.583c-0.183-0.097-0.37-0.188-0.553-0.282c-3.387-1.741-6.998-3.107-10.778-4.041      c-0.076-0.019-0.154-0.035-0.23-0.053c-0.801-0.194-1.61-0.365-2.425-0.52c-0.227-0.043-0.455-0.082-0.682-0.122      c-0.678-0.119-1.362-0.221-2.049-0.312c-0.284-0.037-0.567-0.076-0.852-0.108c-0.67-0.077-1.346-0.135-2.025-0.185      c-0.275-0.02-0.548-0.047-0.824-0.063c-0.937-0.053-1.879-0.085-2.829-0.086c-0.004,0-0.009,0-0.013,0c-0.002,0-0.005,0-0.007,0      c-0.704,0-1.402,0.024-2.099,0.053c-0.312,0.014-0.625,0.028-0.935,0.048c-0.27,0.016-0.538,0.041-0.807,0.061      c-0.856,0.069-1.708,0.153-2.553,0.261c18.862,3.138,33.448,23.959,33.509,49.222c6.313,5.198,14.122,8.644,22.696,9.557v-9.401      c0-0.907-0.027-1.807-0.075-2.702c-0.015-0.279-0.044-0.554-0.063-0.832C305.596,53.105,305.551,52.492,305.485,51.884z" fill="#efefef" data-original="#2e344c" class=""/>
			</g>
		</g>
		<g>
			<path style="" d="M435.513,415.236h-35.075c-24.095,0-43.628,19.533-43.628,43.628v45.588H479.14v-45.588     C479.14,434.769,459.607,415.236,435.513,415.236z" fill="#ebeef2" data-original="#ebeef2" class=""/>
			<path style="" d="M435.513,415.236h-13.616c19.926,0,36.08,19.533,36.08,43.628v45.588h21.165v-45.588     C479.14,434.769,459.607,415.236,435.513,415.236z" fill="#d1d6de" data-original="#d1d6de" class=""/>
			<polygon style="" points="423.184,415.236 412.766,415.236 398.365,464.183 417.975,484.267 437.584,464.183    " fill="#e3324a" data-original="#ed5575" class=""/>
			<g>
				<path style="" d="M417.975,272.676L417.975,272.676c-27.505,0-49.802,22.297-49.802,49.802v24.01      c0,27.505,22.297,49.802,49.802,49.802l0,0c27.505,0,49.802-22.297,49.802-49.802v-24.01      C467.777,294.973,445.48,272.676,417.975,272.676z" fill="#f9c295" data-original="#f9c295" class=""/>
				<path style="" d="M417.975,272.669c-1.559,0.027-3.118,0.144-4.67,0.357c11.526,5.432,20.866,11.678,26.407,24.238      c5.202,11.792,6.089,25.01,6.01,37.898c-0.077,12.607-1.08,25.516-6.232,37.023c-5.152,11.507-15.144,21.484-27.558,23.682      c20.338,2.101,42.005-8.674,50.667-27.194c4.72-10.091,5.517-21.535,5.665-32.674c0.142-10.705-0.29-21.65-4.095-31.657      C457.286,286.242,437.603,272.327,417.975,272.669z" fill="#e59f6a" data-original="#e59f6a" class=""/>
				<path style="" d="M450.378,284.682c0-0.002,0.001-0.004,0.001-0.006c-0.092-0.079-0.188-0.152-0.28-0.23      c-0.382-0.322-0.767-0.64-1.158-0.951c-0.178-0.142-0.358-0.281-0.539-0.42c-0.358-0.277-0.72-0.55-1.087-0.817      c-0.213-0.156-0.428-0.311-0.644-0.463c-0.336-0.237-0.674-0.469-1.016-0.697c-0.251-0.168-0.502-0.336-0.756-0.5      c-0.306-0.197-0.616-0.389-0.928-0.579c-0.294-0.181-0.588-0.362-0.886-0.536c-0.263-0.154-0.53-0.301-0.796-0.45      c-0.35-0.197-0.7-0.394-1.056-0.583c-0.183-0.097-0.37-0.188-0.554-0.282c-6.809-3.501-14.522-5.49-22.707-5.49      c-27.505,0-49.802,22.297-49.802,49.802v4.604c7.334,3.236,15.437,5.046,23.967,5.046c17.518,0,33.258-7.586,44.138-19.642      c6.88,10.601,18.293,17.987,31.499,19.394v-9.401C467.777,307.351,461.025,293.812,450.378,284.682z" fill="#209586" data-original="#444966" class=""/>
				<path style="" d="M467.485,317.108c-0.035-0.324-0.082-0.644-0.123-0.966c-0.071-0.559-0.144-1.117-0.234-1.67      c-0.053-0.328-0.115-0.654-0.175-0.98c-0.099-0.544-0.203-1.087-0.32-1.625c-0.069-0.317-0.144-0.631-0.218-0.945      c-0.13-0.547-0.268-1.091-0.416-1.631c-0.08-0.292-0.163-0.583-0.248-0.873c-0.167-0.566-0.344-1.128-0.529-1.685      c-0.084-0.253-0.168-0.506-0.256-0.757c-0.214-0.608-0.441-1.21-0.677-1.806c-0.076-0.192-0.149-0.385-0.227-0.575      c-0.285-0.693-0.585-1.379-0.9-2.056c-0.041-0.088-0.079-0.178-0.12-0.266c-3.018-6.393-7.356-12.04-12.664-16.592      c0-0.002,0.001-0.004,0.001-0.006c-0.001-0.001-0.003-0.002-0.004-0.004c-0.091-0.077-0.185-0.15-0.276-0.227      c-0.382-0.322-0.767-0.64-1.158-0.951c-0.178-0.142-0.358-0.281-0.539-0.42c-0.358-0.277-0.72-0.55-1.087-0.817      c-0.213-0.156-0.428-0.311-0.644-0.463c-0.336-0.237-0.674-0.469-1.016-0.698c-0.251-0.168-0.502-0.336-0.756-0.5      c-0.307-0.197-0.617-0.389-0.928-0.579c-0.294-0.181-0.588-0.362-0.886-0.536c-0.263-0.154-0.53-0.301-0.796-0.45      c-0.35-0.197-0.7-0.394-1.056-0.583c-0.183-0.097-0.37-0.188-0.553-0.282c-3.387-1.741-6.998-3.107-10.778-4.041      c-0.076-0.019-0.154-0.035-0.23-0.053c-0.801-0.194-1.61-0.365-2.425-0.52c-0.227-0.043-0.455-0.082-0.682-0.122      c-0.678-0.119-1.362-0.221-2.049-0.312c-0.284-0.037-0.567-0.076-0.852-0.108c-0.67-0.077-1.346-0.135-2.025-0.185      c-0.275-0.02-0.548-0.047-0.824-0.063c-0.937-0.053-1.879-0.085-2.829-0.086c-0.004,0-0.009,0-0.013,0c-0.002,0-0.005,0-0.007,0      c-0.704,0-1.402,0.024-2.099,0.053c-0.312,0.014-0.625,0.028-0.935,0.048c-0.27,0.016-0.538,0.041-0.807,0.061      c-0.856,0.069-1.708,0.153-2.553,0.261c18.862,3.138,33.448,23.959,33.509,49.222c6.313,5.198,14.122,8.644,22.696,9.557v-9.401      c0-0.907-0.027-1.807-0.075-2.702c-0.015-0.279-0.044-0.554-0.063-0.832C467.595,318.329,467.55,317.716,467.485,317.108z" fill="#efefef" data-original="#2e344c" class=""/>
			</g>
		</g>
		<path style="" d="M305.954,345.861c0-2.938-0.268-5.812-0.754-8.611l16.18-15.925l-11.453-19.838l-21.881,6.05    c-4.396-3.683-9.431-6.628-14.921-8.633l-5.696-21.952h-22.907l-5.696,21.952c-5.49,2.005-10.524,4.951-14.921,8.633l-21.881-6.05    l-11.453,19.838l16.18,15.925c-0.486,2.799-0.754,5.673-0.754,8.611s0.268,5.812,0.754,8.611l-16.18,15.925l11.453,19.838    l21.881-6.05c4.396,3.683,9.431,6.628,14.921,8.633l5.696,21.952h22.907l5.696-21.952c5.49-2.005,10.524-4.951,14.921-8.633    l21.881,6.05l11.453-19.838l-16.18-15.925C305.686,351.673,305.954,348.799,305.954,345.861z M255.976,364.792    c-10.455,0-18.931-8.476-18.931-18.931c0-10.455,8.476-18.931,18.931-18.931c10.455,0,18.931,8.476,18.931,18.931    C274.907,356.316,266.431,364.792,255.976,364.792z" fill="#e3324a" data-original="#9fd479" class=""/>
	</g>
	<g>
		<path d="M111.514,407.736H99.186H88.768H76.439c-28.191,0-51.127,22.936-51.127,51.128v45.587c0,4.142,3.357,7.5,7.5,7.5    s7.5-3.358,7.5-7.5v-45.587c0-19.921,16.206-36.128,36.127-36.128h2.305l-11.571,39.331c-0.766,2.602-0.066,5.415,1.829,7.356    l19.609,20.084c1.411,1.445,3.346,2.26,5.366,2.26s3.955-0.815,5.366-2.26l19.609-20.084c1.896-1.941,2.595-4.754,1.829-7.356    l-11.571-39.331h2.304c19.921,0,36.128,16.207,36.128,36.128v45.587c0,4.142,3.357,7.5,7.5,7.5s7.5-3.358,7.5-7.5v-45.587    C162.642,430.672,139.706,407.736,111.514,407.736z M93.977,473.532l-11.175-11.445l11.175-37.983l11.175,37.983L93.977,473.532z" fill="#6c6c6c" data-original="#000000" style="" class=""/>
		<path d="M93.976,403.869c1.91,0.013,3.822-0.076,5.727-0.269c19.904-2.022,38.239-15.402,46.306-33.71    c5.048-11.456,6.199-24.254,6.059-36.772c-0.139-12.402-1.56-25.076-6.954-36.245c-6.086-12.603-17.179-22.649-30.226-27.711    s-27.91-5.15-41.109-0.495c-3.053,1.077-6.14,2.485-8.181,4.999c-2.041,2.514-2.708,6.398-0.751,8.977    c3.325,4.38,10.129,1.923,15.306,0.07c12.638-4.522,27.431-2.482,38.372,5.293s17.735,21.073,17.621,34.496    c-6.395-2.368-12.076-6.627-16.143-12.101c-1.46-1.966-2.871-4.209-5.165-5.064c-4.218-1.573-8.291,2.285-11.56,5.38    c-13.334,12.62-33.803,17.122-51.202,11.262c-1.788-4.664,0.767-9.73,2.823-14.283c2.056-4.552,3.456-10.46,0.027-14.09    c-14.845-15.717-19.17,40.198-19.092,45.483c0.211,14.33,3.64,28.918,11.837,40.674C58.019,394.603,75.925,403.75,93.976,403.869z     M51.675,337.565c5.353,1.361,10.857,2.062,16.467,2.062c15.95,0,31.341-5.739,43.38-15.976    c6.677,7.149,15.249,12.183,24.757,14.513v8.324c0,23.325-18.977,42.302-42.302,42.302s-42.302-18.977-42.302-42.302V337.565z" fill="#6c6c6c" data-original="#000000" style="" class=""/>
		<path d="M194.811,246.727c4.143,0,7.5-3.358,7.5-7.5v-45.588c0-19.921,16.206-36.128,36.127-36.128h2.305l-11.571,39.331    c-0.766,2.602-0.066,5.415,1.829,7.356l19.609,20.084c1.411,1.445,3.346,2.26,5.366,2.26s3.955-0.815,5.366-2.26l19.609-20.084    c1.896-1.941,2.595-4.754,1.829-7.356l-11.571-39.331h2.305c19.921,0,36.127,16.207,36.127,36.128v45.588    c0,4.142,3.357,7.5,7.5,7.5s7.5-3.358,7.5-7.5v-45.588c0-28.192-22.936-51.128-51.127-51.128h-12.329h-10.418h-12.329    c-28.191,0-51.127,22.936-51.127,51.128v45.588C187.311,243.369,190.668,246.727,194.811,246.727z M255.976,208.307    l-11.175-11.445l11.175-37.983l11.175,37.983L255.976,208.307z" fill="#6c6c6c" data-original="#000000" style="" class=""/>
		<path d="M255.976,138.689c1.152,0.004,2.304-0.029,3.456-0.101c20.331-1.266,39.467-14.402,48.044-32.879    c5.403-11.641,6.741-24.768,6.637-37.601c-0.099-12.249-1.514-24.751-6.744-35.828c-6.033-12.777-17.116-23.05-30.251-28.258    s-28.179-5.336-41.461-0.516c-3.061,1.111-6.152,2.566-8.158,5.131c-2.006,2.564-2.58,6.503-0.522,9.026    c3.368,4.132,9.88,1.705,14.889-0.117c12.662-4.607,27.526-2.62,38.533,5.15c11.008,7.771,17.856,21.111,17.755,34.585    c-6.393-2.366-12.073-6.623-16.139-12.094c-1.459-1.964-2.868-4.203-5.158-5.063c-4.236-1.59-8.332,2.29-11.619,5.399    C251.92,58.12,231.476,62.605,214.107,56.74c-2.037-4.981,1.08-10.391,3.247-15.317s2.713-12.02-2.098-14.431    c-3.255-1.631-7.387,0.081-9.661,2.925c-7.879,9.857-7.4,29.144-7.46,41.045c-0.072,14.139,2.23,28.56,9.697,40.798    C217.84,128.166,236.793,138.62,255.976,138.689z M213.674,72.341c5.353,1.361,10.857,2.062,16.467,2.062    c15.95,0,31.341-5.74,43.38-15.976c6.677,7.149,15.249,12.183,24.757,14.513v8.324c0,23.325-18.977,42.302-42.302,42.302    s-42.302-18.977-42.302-42.302V72.341z" fill="#6c6c6c" data-original="#000000" style="" class=""/>
		<path d="M368.761,260.502c1.476,1.945,3.715,2.969,5.982,2.969c1.578,0,3.17-0.497,4.525-1.524    c3.301-2.502,3.948-7.207,1.445-10.508c-9.16-12.082-19.999-22.759-32.215-31.733c-3.338-2.452-8.032-1.734-10.484,1.604    c-2.453,3.338-1.734,8.033,1.604,10.485C350.669,239.913,360.475,249.572,368.761,260.502z" fill="#6c6c6c" data-original="#000000" style="" class=""/>
		<path d="M323.388,470.231c-20.553,11.165-43.863,17.066-67.412,17.066c-23.718,0-47.177-5.982-67.841-17.3    c-3.633-1.988-8.191-0.657-10.181,2.976s-0.657,8.191,2.976,10.181c22.866,12.524,48.816,19.144,75.046,19.144    c26.042,0,51.829-6.531,74.572-18.886c3.64-1.977,4.987-6.531,3.011-10.17C331.58,469.602,327.029,468.255,323.388,470.231z" fill="#6c6c6c" data-original="#000000" style="" class=""/>
		<path d="M163.451,219.707c-12.117,8.902-22.88,19.479-31.99,31.439c-2.511,3.295-1.874,8.001,1.421,10.511    c1.357,1.034,2.955,1.534,4.539,1.534c2.261,0,4.496-1.019,5.972-2.956c8.241-10.819,17.979-20.388,28.939-28.44    c3.338-2.453,4.057-7.146,1.604-10.485C171.484,217.973,166.791,217.255,163.451,219.707z" fill="#6c6c6c" data-original="#000000" style="" class=""/>
		<path d="M435.513,407.736h-12.329h-10.418h-12.328c-28.192,0-51.128,22.936-51.128,51.128v45.587c0,4.142,3.357,7.5,7.5,7.5    s7.5-3.358,7.5-7.5v-45.587c0-19.921,16.207-36.128,36.128-36.128h2.304l-11.571,39.331c-0.766,2.602-0.066,5.415,1.829,7.356    l19.609,20.084c1.411,1.445,3.346,2.26,5.366,2.26s3.955-0.815,5.366-2.26l19.609-20.084c1.896-1.941,2.595-4.754,1.829-7.356    l-11.571-39.331h2.305c19.921,0,36.127,16.207,36.127,36.128v45.587c0,4.142,3.357,7.5,7.5,7.5s7.5-3.358,7.5-7.5v-45.587    C486.64,430.672,463.704,407.736,435.513,407.736z M417.975,473.532L406.8,462.087l11.175-37.983l11.175,37.983L417.975,473.532z" fill="#6c6c6c" data-original="#000000" style="" class=""/>
		<path d="M398.537,284.443c2.153-0.469,4.334-1.203,6.274-1.872c12.582-4.335,27.215-2.171,38.003,5.621    c10.788,7.792,17.442,21.003,17.281,34.31c-6.38-2.396-12.046-6.66-16.115-12.128c-1.459-1.961-2.872-4.197-5.164-5.047    c-4.211-1.562-8.269,2.29-11.529,5.379c-13.324,12.628-33.798,17.131-51.192,11.259c-1.995-4.998,1.101-10.395,3.246-15.33    s2.684-12.003-2.106-14.454c-14.27-7.301-16.021,27.751-16.597,34.208c-1.413,15.843-0.6,32.371,6.874,46.746    c9.945,19.127,31.501,31.595,53.038,30.647c21.537-0.947,41.927-15.275,50.089-35.229c4.585-11.21,5.466-23.585,5.28-35.696    c-0.193-12.599-1.568-25.5-7.153-36.796c-6.152-12.444-17.327-22.232-30.334-27.081c-13.007-4.849-27.705-4.801-40.823-0.258    c-2.915,1.009-5.858,2.304-7.893,4.622c-2.035,2.318-2.913,5.9-1.332,8.548C390.4,285.265,394.416,285.34,398.537,284.443z     M417.975,388.79c-23.325,0-42.302-18.977-42.302-42.302v-8.923c5.353,1.361,10.857,2.062,16.467,2.062    c15.95,0,31.341-5.739,43.381-15.976c6.676,7.149,15.248,12.183,24.756,14.513v8.324C460.277,369.813,441.3,388.79,417.975,388.79    z" fill="#6c6c6c" data-original="#000000" style="" class=""/>
		<path d="M184.076,374.147l11.453,19.838c1.708,2.958,5.195,4.389,8.494,3.479l18.249-5.045c3.211,2.332,6.635,4.313,10.239,5.927    l4.751,18.309c0.858,3.307,3.843,5.616,7.26,5.616h22.906c3.417,0,6.401-2.309,7.26-5.616l4.751-18.309    c3.604-1.613,7.028-3.595,10.239-5.927l18.249,5.045c3.298,0.91,6.786-0.521,8.494-3.479l11.453-19.838    c1.708-2.959,1.201-6.699-1.234-9.095l-13.498-13.285c0.207-1.98,0.312-3.956,0.312-5.906s-0.104-3.925-0.312-5.906l13.498-13.285    c2.436-2.396,2.942-6.136,1.234-9.095l-11.453-19.838c-1.708-2.958-5.196-4.389-8.494-3.479l-18.249,5.045    c-3.211-2.332-6.635-4.313-10.239-5.927l-4.751-18.309c-0.858-3.307-3.843-5.616-7.26-5.616h-22.906    c-3.417,0-6.401,2.309-7.26,5.616l-4.751,18.309c-3.604,1.613-7.028,3.595-10.239,5.927l-18.249-5.045    c-3.299-0.91-6.786,0.521-8.494,3.479l-11.453,19.838c-1.708,2.959-1.201,6.699,1.234,9.095l13.498,13.285    c-0.207,1.98-0.312,3.955-0.312,5.906s0.104,3.926,0.312,5.906l-13.498,13.285C182.875,367.448,182.368,371.188,184.076,374.147z     M214.142,353.187c-0.428-2.459-0.645-4.925-0.645-7.327c0-2.401,0.217-4.867,0.645-7.326c0.421-2.425-0.374-4.903-2.129-6.629    l-12.045-11.855l5.65-9.788l16.289,4.504c2.376,0.656,4.925,0.104,6.815-1.48c3.803-3.186,8.067-5.654,12.677-7.337    c2.315-0.846,4.067-2.775,4.687-5.161l4.239-16.336h11.301l4.239,16.336c0.619,2.386,2.371,4.315,4.687,5.161    c4.609,1.683,8.874,4.152,12.677,7.337c1.891,1.584,4.438,2.135,6.815,1.48l16.289-4.504l5.65,9.788l-12.045,11.855    c-1.755,1.727-2.55,4.204-2.129,6.629c0.428,2.459,0.645,4.925,0.645,7.326c0,2.402-0.217,4.867-0.645,7.327    c-0.421,2.425,0.374,4.903,2.129,6.629l12.045,11.855l-5.65,9.788l-16.289-4.504c-2.376-0.656-4.925-0.104-6.815,1.48    c-3.803,3.186-8.067,5.654-12.677,7.337c-2.315,0.846-4.067,2.775-4.687,5.161l-4.239,16.336h-11.301l-4.239-16.336    c-0.619-2.386-2.371-4.315-4.687-5.161c-4.609-1.683-8.874-4.152-12.677-7.337c-1.892-1.585-4.44-2.137-6.815-1.48l-16.289,4.504    l-5.65-9.788l12.045-11.855C213.768,358.09,214.563,355.613,214.142,353.187z" fill="#6c6c6c" data-original="#000000" style="" class=""/>
		<path d="M255.976,372.292c14.574,0,26.431-11.857,26.431-26.432c0-4.142-3.357-7.5-7.5-7.5s-7.5,3.358-7.5,7.5    c0,6.303-5.128,11.432-11.431,11.432s-11.431-5.128-11.431-11.432s5.128-11.431,11.431-11.431c4.143,0,7.5-3.358,7.5-7.5    s-3.357-7.5-7.5-7.5c-14.574,0-26.431,11.857-26.431,26.431C229.545,360.435,241.402,372.292,255.976,372.292z" fill="#6c6c6c" data-original="#000000" style="" class=""/>
	</g>
</g>















</g></svg>
