<?xml version="1.0"?>
<svg xmlns="http://www.w3.org/2000/svg" xmlns:xlink="http://www.w3.org/1999/xlink" xmlns:svgjs="http://svgjs.com/svgjs" version="1.1" width="512" height="512" x="0" y="0" viewBox="0 0 512.00101 512" style="enable-background:new 0 0 512 512" xml:space="preserve" class=""><g><path xmlns="http://www.w3.org/2000/svg" d="m433.085938 255.1875h-354.164063l16.992187-109.203125c4.023438-25.832031 21.515626-44.40625 41.8125-44.40625h236.542969c20.308594 0 37.796875 18.574219 41.8125 44.40625zm0 0" fill="#c1dce0" data-original="#c1dce0" style=""/><path xmlns="http://www.w3.org/2000/svg" d="m433.085938 255.1875h-329.0625l16.992187-109.203125c4.027344-25.832031 21.515625-44.40625 41.8125-44.40625h211.441406c20.308594 0 37.796875 18.574219 41.8125 44.40625zm0 0" fill="#f9f9f9" data-original="#d4eff4" style="" class=""/><path xmlns="http://www.w3.org/2000/svg" d="m433.078125 255.1875h-23.773437l-17.003907-109.199219c-4.011719-25.835937-21.503906-44.410156-41.808593-44.410156h23.773437c20.308594 0 37.796875 18.574219 41.8125 44.410156zm0 0" fill="#f0fdff" data-original="#f0fdff" style="" class=""/><path xmlns="http://www.w3.org/2000/svg" d="m417.941406 157.9375c-8.203125-15.398438-21.886718-25.207031-37.046875-25.207031h-249.789062c-15.160157 0-28.84375 9.808593-37.046875 25.207031l1.855468-11.957031c4.019532-25.828125 21.507813-44.402344 41.8125-44.402344h236.542969c20.308594 0 37.796875 18.574219 41.8125 44.402344zm0 0" fill="#209586" data-original="#f4514a" style="" class=""/><path xmlns="http://www.w3.org/2000/svg" d="m162.828125 101.578125c-16.820313 0-31.710937 12.753906-38.605469 31.835937-12.371094 2.472657-23.230468 11.496094-30.164062 24.523438l1.855468-11.953125c4.015626-25.832031 21.503907-44.40625 41.8125-44.40625zm0 0" fill="#ffffff" data-original="#d13030" style="" class=""/><path xmlns="http://www.w3.org/2000/svg" d="m130.011719 434.347656v56.777344c0 7.097656-5.761719 12.851562-12.855469 12.851562h-52.046875c-7.097656 0-12.851563-5.753906-12.851563-12.851562v-56.777344zm0 0" fill="#ffffff" data-original="#3b3d4c" style="" class=""/><path xmlns="http://www.w3.org/2000/svg" d="m493.773438 347.398438-8.679688 59.738281h-458.183594l-8.6875-59.738281c-.589844-4.035157-.871094-8.046876-.871094-12.011719 0-37.058594 24.828126-70.332031 61.570313-80.199219h354.164063c40.664062 10.921875 66.75 50.53125 60.6875 92.210938zm0 0" fill="#209586" data-original="#f4514a" style="" class=""/><path xmlns="http://www.w3.org/2000/svg" d="m130.011719 465.660156v25.460938c0 7.101562-5.761719 12.855468-12.855469 12.855468h-31.371094c-7.089844 0-12.847656-5.753906-12.847656-12.855468v-25.460938zm0 0" fill="#f5f5f5" data-original="#5c5e70" style="" class=""/><path xmlns="http://www.w3.org/2000/svg" d="m473.339844 434.347656v56.777344c0 7.097656-5.761719 12.851562-12.855469 12.851562h-52.046875c-7.097656 0-12.851562-5.753906-12.851562-12.851562v-56.777344zm0 0" fill="#ffffff" data-original="#3b3d4c" style="" class=""/><path xmlns="http://www.w3.org/2000/svg" d="m473.339844 465.660156v25.460938c0 7.101562-5.761719 12.855468-12.855469 12.855468h-31.371094c-7.089843 0-12.847656-5.753906-12.847656-12.855468v-25.460938zm0 0" fill="#f5f5f5" data-original="#5c5e70" style="" class=""/><path xmlns="http://www.w3.org/2000/svg" d="m351.640625 407.136719c2.117187-11.832031 2.957031-23.660157 2.511719-35.488281-.742188-19.710938-16.808594-35.425782-36.523438-36.058594-41.085937-1.3125-82.167968-1.3125-123.253906 0-19.710938.632812-35.78125 16.347656-36.523438 36.058594-.445312 11.828124.390626 23.65625 2.503907 35.488281" fill="#ffffff" data-original="#d13030" style="" class=""/><path xmlns="http://www.w3.org/2000/svg" d="m82.21875 407.136719h-55.308594l-8.6875-59.738281c-.589844-4.035157-.871094-8.046876-.871094-12.011719 0-37.058594 24.828126-70.332031 61.570313-80.199219h47.621094c-29.828125 16.761719-65.363281 76.417969-44.324219 151.949219zm0 0" fill="#ffffff" data-original="#d13030" style="" class=""/><path xmlns="http://www.w3.org/2000/svg" d="m504.398438 426.441406v4.582032c0 10.65625-8.648438 19.304687-19.304688 19.304687h-458.183594c-10.664062 0-19.304687-8.648437-19.304687-19.304687v-4.582032c0-10.65625 8.640625-19.304687 19.304687-19.304687h458.183594c10.65625 0 19.304688 8.648437 19.304688 19.304687zm0 0" fill="#cccccc" data-original="#cccccc" style=""/><path xmlns="http://www.w3.org/2000/svg" d="m504.398438 426.441406v4.582032c0 10.65625-8.648438 19.304687-19.304688 19.304687h-394.765625c-10.664063 0-19.304687-8.648437-19.304687-19.304687v-4.582032c0-10.65625 8.640624-19.304687 19.304687-19.304687h394.765625c10.65625 0 19.304688 8.648437 19.304688 19.304687zm0 0" fill="#e6e6e6" data-original="#e6e6e6" style="" class=""/><path xmlns="http://www.w3.org/2000/svg" d="m458.867188 347.703125c0 13.71875-8.933594 25.335937-21.300782 29.363281-3.011718.992188-6.234375 1.519532-9.582031 1.519532-17.054687 0-30.882813-13.820313-30.882813-30.882813 0-17.050781 13.828126-30.882813 30.882813-30.882813 3.347656 0 6.570313.527344 9.582031 1.523438 12.367188 4.023438 21.300782 15.652344 21.300782 29.359375zm0 0" fill="#e1e1e1" data-original="#f99041" style="" class=""/><path xmlns="http://www.w3.org/2000/svg" d="m114.894531 347.703125c0 13.71875-8.933593 25.335937-21.300781 29.363281-3.011719.992188-6.238281 1.519532-9.582031 1.519532-17.054688 0-30.882813-13.820313-30.882813-30.882813 0-17.050781 13.828125-30.882813 30.882813-30.882813 3.34375 0 6.570312.527344 9.582031 1.523438 12.367188 4.023438 21.300781 15.652344 21.300781 29.359375zm0 0" fill="#e1e1e1" data-original="#f99041" style="" class=""/><path xmlns="http://www.w3.org/2000/svg" d="m458.867188 347.703125c0 13.71875-8.933594 25.335937-21.300782 29.363281-12.371094-4.027344-21.300781-15.644531-21.300781-29.363281 0-13.707031 8.929687-25.335937 21.300781-29.359375 12.367188 4.023438 21.300782 15.652344 21.300782 29.359375zm0 0" fill="#e9e9e9" data-original="#fbd25f" style="" class=""/><path xmlns="http://www.w3.org/2000/svg" d="m114.894531 347.703125c0 13.71875-8.933593 25.335937-21.300781 29.363281-12.371094-4.027344-21.3125-15.644531-21.3125-29.363281 0-13.707031 8.941406-25.335937 21.3125-29.359375 12.367188 4.023438 21.300781 15.652344 21.300781 29.359375zm0 0" fill="#e9e9e9" data-original="#fbd25f" style="" class=""/><path xmlns="http://www.w3.org/2000/svg" d="m49.640625 191.753906h-27.5625c-7.996094 0-14.472656 6.480469-14.472656 14.472656v11.679688c0 7.996094 6.476562 14.472656 14.472656 14.472656h27.5625c7.996094 0 14.472656-6.476562 14.472656-14.472656v-11.679688c0-7.992187-6.476562-14.472656-14.472656-14.472656zm0 0" fill="#209586" data-original="#f4514a" style="" class=""/><path xmlns="http://www.w3.org/2000/svg" d="m462.359375 191.753906h27.5625c7.996094 0 14.472656 6.480469 14.472656 14.472656v11.679688c0 7.996094-6.476562 14.472656-14.472656 14.472656h-27.5625c-7.996094 0-14.472656-6.476562-14.472656-14.472656v-11.679688c0-7.992187 6.476562-14.472656 14.472656-14.472656zm0 0" fill="#209586" data-original="#f4514a" style="" class=""/><path xmlns="http://www.w3.org/2000/svg" d="m345.183594 96.785156c0 49.257813-39.929688 89.183594-89.183594 89.183594s-89.183594-39.925781-89.183594-89.183594c0-49.253906 39.929688-89.183594 89.183594-89.183594s89.183594 39.929688 89.183594 89.183594zm0 0" fill="#e9e9e9" data-original="#8aced8" style="" class=""/><path xmlns="http://www.w3.org/2000/svg" d="m427.988281 309.21875c-21.222656 0-38.488281 17.265625-38.488281 38.488281 0 21.222657 17.265625 38.488281 38.488281 38.488281 21.222657 0 38.488281-17.265624 38.488281-38.488281 0-21.222656-17.265624-38.488281-38.488281-38.488281zm0 61.769531c-12.835937 0-23.28125-10.445312-23.28125-23.28125 0-12.835937 10.445313-23.277343 23.28125-23.277343 12.835938 0 23.28125 10.441406 23.28125 23.277343 0 12.835938-10.445312 23.28125-23.28125 23.28125zm0 0" fill="#6c6c6c" data-original="#000000" style="" class=""/><path xmlns="http://www.w3.org/2000/svg" d="m84.011719 309.21875c-21.222657 0-38.484375 17.265625-38.484375 38.488281 0 21.222657 17.261718 38.488281 38.484375 38.488281 21.222656 0 38.488281-17.265624 38.488281-38.488281 0-21.222656-17.265625-38.488281-38.488281-38.488281zm0 61.769531c-12.835938 0-23.277344-10.445312-23.277344-23.28125 0-12.835937 10.441406-23.277343 23.277344-23.277343 12.835937 0 23.28125 10.441406 23.28125 23.277343 0 12.835938-10.445313 23.28125-23.28125 23.28125zm0 0" fill="#6c6c6c" data-original="#000000" style="" class=""/><path xmlns="http://www.w3.org/2000/svg" d="m446.871094 233.621094c3.988281 3.929687 9.457031 6.363281 15.488281 6.363281h27.5625c12.175781 0 22.078125-9.902344 22.078125-22.078125v-11.679688c0-12.175781-9.90625-22.078124-22.078125-22.078124h-27.5625c-12.175781 0-22.078125 9.902343-22.078125 22.078124v9.457032l-4.550781 7.121094-12.132813-77.996094c-4.589844-29.453125-25.335937-50.832032-49.324218-50.832032h-21.53125c-1.492188-52.074218-44.3125-93.976562-96.742188-93.976562s-95.25 41.902344-96.742188 93.976562h-21.53125c-23.988281 0-44.734374 21.378907-49.324218 50.835938l-12.132813 77.992188-4.550781-7.117188v-9.460938c0-12.171874-9.902344-22.078124-22.078125-22.078124h-27.5625c-12.171875 0-22.078125 9.902343-22.078125 22.078124v11.679688c0 12.175781 9.90625 22.078125 22.078125 22.078125h27.5625c6.03125 0 11.5-2.433594 15.488281-6.363281l7.605469 11.898437-.589844 3.773438c-41.605469 13.648437-67.8125 55.398437-61.445312 99.203125l7.625 52.449218c-10.640625 3.59375-18.324219 13.660157-18.324219 25.496094v4.578125c0 14.835938 12.070312 26.90625 26.90625 26.90625h17.746094v33.199219c0 11.277344 9.175781 20.457031 20.457031 20.457031h52.046875c11.28125 0 20.457031-9.179687 20.457031-20.457031v-33.199219h13.472657c4.199218 0 7.605468-3.40625 7.605468-7.605469 0-4.199218-3.40625-7.601562-7.605468-7.601562h-124.179688c-6.449219 0-11.699219-5.25-11.699219-11.699219v-4.578125c0-6.449218 5.242188-11.691406 11.6875-11.699218h.003907.011718 458.179688.011718.003907c6.445312.007812 11.6875 5.253906 11.6875 11.699218v4.578125c0 6.449219-5.25 11.699219-11.699219 11.699219h-303.589844c-4.199218 0-7.605468 3.402344-7.605468 7.601562 0 4.199219 3.40625 7.605469 7.605468 7.605469h206.476563v33.199219c0 11.277344 9.175781 20.457031 20.457031 20.457031h52.046875c11.28125 0 20.460937-9.179687 20.460937-20.457031v-33.199219h4.148438c14.835938 0 26.90625-12.070312 26.90625-26.90625v-4.578125c0-11.835937-7.683594-21.90625-18.324219-25.496094l7.625-52.449218c6.367188-43.804688-19.839843-85.554688-61.445312-99.203125l-.585938-3.773438zm8.617187-27.394532c0-3.789062 3.082031-6.871093 6.871094-6.871093h27.5625c3.789063 0 6.871094 3.082031 6.871094 6.871093v11.679688c0 3.789062-3.082031 6.871094-6.871094 6.871094h-27.5625c-3.789063 0-6.871094-3.082032-6.871094-6.871094zm-398.976562 11.679688c0 3.789062-3.082031 6.871094-6.871094 6.871094h-27.5625c-3.789063 0-6.871094-3.082032-6.871094-6.871094v-11.679688c0-3.789062 3.082031-6.871093 6.871094-6.871093h27.5625c3.789063 0 6.871094 3.082031 6.871094 6.871093zm65.894531 273.21875c0 2.894531-2.355469 5.246094-5.25 5.246094h-52.046875c-2.894531 0-5.25-2.351563-5.25-5.246094v-33.199219h62.546875zm343.328125 0c0 2.894531-2.355469 5.246094-5.25 5.246094h-52.046875c-2.894531 0-5.25-2.351563-5.25-5.246094v-33.199219h62.546875zm-385.730469-228.328125h265.535156c4.199219 0 7.605469-3.40625 7.605469-7.605469 0-4.199218-3.40625-7.605468-7.605469-7.605468h-257.738281l.003907-.023438c.648437-1.347656 13.550781-87.082031 13.550781-87.082031 7.105469-12.625 18.148437-20.140625 29.753906-20.140625h38.476563c15.964843 31.550781 48.703124 53.234375 86.414062 53.234375s70.453125-21.683594 86.417969-53.234375h38.476562c11.605469 0 22.648438 7.515625 29.75 20.140625 0 0 12.902344 85.734375 13.550781 87.082031l.003907.023438h-48.242188c-4.203125 0-7.605469 3.40625-7.605469 7.605468 0 4.199219 3.402344 7.601563 7.605469 7.601563h56.039063c6.761718 1.902343 13.070312 4.675781 18.824218 8.183593-44.101562 17.070313-116.851562 27.453126-194.816406 27.453126-77.976562 0-150.726562-10.382813-194.824218-27.449219 5.753906-3.507813 12.066406-6.28125 18.824218-8.183594zm324.003906-131.003906c-7.082031-4.320313-14.960937-6.660157-23.117187-6.660157h-32.339844c1.578125-5.148437 2.742188-10.476562 3.445313-15.949218h22.277344c12.289062 0 23.449218 8.921875 29.734374 22.609375zm-148.007812-116.585938c44.984375 0 81.578125 36.597657 81.578125 81.582031 0 44.980469-36.59375 81.578126-81.578125 81.578126s-81.578125-36.597657-81.578125-81.578126c0-44.984374 36.59375-81.582031 81.578125-81.582031zm-118.273438 93.976563h22.277344c.703125 5.472656 1.867188 10.800781 3.449219 15.949218h-32.34375c-8.15625 0-16.035156 2.339844-23.117187 6.660157 6.285156-13.6875 17.445312-22.609375 29.734374-22.609375zm27.722657 262.75c.585937-15.613282 13.398437-28.238282 29.167969-28.742188 40.734374-1.300781 82.039062-1.300781 122.769531 0 15.769531.503906 28.582031 13.128906 29.167969 28.742188.34375 9.148437-.140626 18.402344-1.417969 27.597656h-178.273438c-1.273437-9.195312-1.757812-18.449219-1.414062-27.597656zm320.800781-25.625-7.734375 53.222656h-118.027344c1.1875-9.386719 1.613281-18.828125 1.261719-28.171875-.886719-23.558594-20.160156-42.609375-43.878906-43.367187-41.050782-1.3125-82.683594-1.3125-123.742188 0-23.71875.757812-42.992187 19.808593-43.875 43.371093-.351562 9.339844.074219 18.78125 1.257813 28.171875h-118.027344l-7.734375-53.226562c-3.558594-24.476563 5.113281-48.179688 21.667969-64.558594 44.9375 19.734375 124.019531 31.890625 208.585937 31.890625 84.554688 0 163.628906-12.15625 208.578125-31.890625 16.554688 16.378906 25.226563 40.078125 21.667969 64.558594zm0 0" fill="#6c6c6c" data-original="#000000" style="" class=""/><path xmlns="http://www.w3.org/2000/svg" d="m247.699219 147.390625c1.390625 2.238281 3.839843 3.589844 6.457031 3.589844.140625 0 .28125-.003907.421875-.011719 2.773437-.15625 5.246094-1.8125 6.441406-4.320312l40.957031-85.878907c1.808594-3.792969.199219-8.328125-3.589843-10.136719-3.785157-1.808593-8.328125-.199218-10.136719 3.589844l-34.972656 73.335938-23.050782-37.082032c-2.21875-3.566406-6.90625-4.660156-10.472656-2.445312-3.566406 2.21875-4.660156 6.90625-2.445312 10.472656zm0 0" fill="#6c6c6c" data-original="#000000" style="" class=""/></g></svg>
