<?xml version="1.0"?>
<svg xmlns="http://www.w3.org/2000/svg" xmlns:xlink="http://www.w3.org/1999/xlink" xmlns:svgjs="http://svgjs.com/svgjs" version="1.1" width="512" height="512" x="0" y="0" viewBox="0 0 480 480.592" style="enable-background:new 0 0 512 512" xml:space="preserve" class=""><g><path xmlns="http://www.w3.org/2000/svg" d="m312.296875 8.59375h-152l-152 152v312h400v-368c0-53.019531-42.980469-96-96-96zm64 184-152-152h88c35.324219.046875 63.949219 28.671875 64 64zm0 0" fill="#e3324a" data-original="#d80027" style="" class=""/><path xmlns="http://www.w3.org/2000/svg" d="m160.296875 8.59375-152 152v312h24v-312l152-152zm0 0" fill="#ffffff" data-original="#a2001d" style="" class=""/><path xmlns="http://www.w3.org/2000/svg" d="m360.296875 288.59375-188.082031-188.082031-115.917969 113.359375v210.722656h304zm-152 104c-35.347656 0-64-28.65625-64-64 0-35.347656 64-112 64-112s64 76.652344 64 112c0 35.34375-28.65625 64-64 64zm0 0" fill="#f7f7f7" data-original="#f1f2f2" style="" class=""/><path xmlns="http://www.w3.org/2000/svg" d="m144.296875 328.59375c0 35.34375 28.652344 64 64 64 35.34375 0 64-28.65625 64-64 0-35.347656-64-112-64-112s-64 76.652344-64 112zm0 0" fill="#209586" data-original="#ffcd00" style="" class=""/><path xmlns="http://www.w3.org/2000/svg" d="m11.8125 90.507812 79.199219-79.203124 33.28125 33.28125-79.203125 79.199218zm0 0" fill="#cfcfcf" data-original="#58595b" style="" class=""/><path xmlns="http://www.w3.org/2000/svg" d="m35.816406 90.511719 21.28125 21.28125-12 12-33.28125-33.28125 79.199219-79.199219 12 12zm0 0" fill="#f9f9f9" data-original="#4d4e50" style="" class=""/><path xmlns="http://www.w3.org/2000/svg" d="m376.296875 200.59375c-2.121094-.003906-4.15625-.84375-5.65625-2.347656l-152-152c-2.289063-2.285156-2.972656-5.726563-1.734375-8.714844s4.15625-4.9375 7.390625-4.9375h88c39.746094.042969 71.953125 32.253906 72 72v88c0 3.234375-1.949219 6.152344-4.9375 7.390625-.96875.40625-2.011719.609375-3.0625.609375zm-132.6875-152 124.6875 124.6875v-68.6875c-.039063-30.914062-25.089844-55.960938-56-56zm0 0" fill="#6c6c6c" data-original="#000000" style="" class=""/><path xmlns="http://www.w3.org/2000/svg" d="m360.296875 432.59375h-304c-4.417969 0-8-3.582031-8-8v-210.722656c-.003906-2.152344.863281-4.210938 2.398437-5.71875l115.921876-113.359375c3.132812-3.0625 8.148437-3.035157 11.246093.0625l188.082031 188.082031c1.503907 1.496094 2.347657 3.53125 2.351563 5.65625v136c0 4.417969-3.582031 8-8 8zm-296-16h288v-124.691406l-180.144531-180.109375-107.855469 105.445312zm0 0" fill="#6c6c6c" data-original="#000000" style="" class=""/><path xmlns="http://www.w3.org/2000/svg" d="m312.296875.59375h-155.3125l-32.6875 32.6875-33.28125-33.28125-90.511719 90.511719 33.28125 33.28125-33.488281 33.488281v323.3125h416v-376c-.066406-57.410156-46.589844-103.9375-104-104zm-289.167969 89.917969 67.886719-67.886719 21.96875 21.96875-67.886719 67.886719zm377.167969 374.082031h-384v-300.691406l147.3125-147.308594h148.6875c48.578125.054688 87.941406 39.421875 88 88zm0 0" fill="#6c6c6c" data-original="#000000" style="" class=""/><path xmlns="http://www.w3.org/2000/svg" d="m208.296875 400.59375c-39.746094-.046875-71.957031-32.253906-72-72 0-37.167969 59.117187-109.058594 65.855469-117.128906l6.144531-7.359375 6.144531 7.359375c6.734375 8.070312 65.855469 79.960937 65.855469 117.128906-.046875 39.746094-32.253906 71.953125-72 72zm0-171.3125c-19.90625 25.070312-56 75.460938-56 99.3125 0 30.925781 25.070313 56 56 56 30.925781 0 56-25.074219 56-56 0-23.875-36.089844-74.25-56-99.3125zm0 0" fill="#6c6c6c" data-original="#000000" style="" class=""/></g></svg>
