<?xml version="1.0"?>
<svg xmlns="http://www.w3.org/2000/svg" xmlns:xlink="http://www.w3.org/1999/xlink" xmlns:svgjs="http://svgjs.com/svgjs" version="1.1" width="512" height="512" x="0" y="0" viewBox="0 0 512 512" style="enable-background:new 0 0 512 512" xml:space="preserve" class=""><g><g xmlns="http://www.w3.org/2000/svg"><g><g><circle cx="256" cy="256" fill="#e3324a" r="248.5" data-original="#8c818f" style="" class=""/></g></g><g><g><path d="m256 7.5c-5.038 0-10.036.168-15 .464 130.256 7.757 233.5 115.831 233.5 248.036s-103.244 240.279-233.5 248.036c4.964.296 9.962.464 15 .464 137.243 0 248.5-111.257 248.5-248.5s-111.258-248.5-248.5-248.5z" fill="#ffffff" data-original="#766d78" style="" class=""/></g></g><g><g><circle cx="256" cy="256" fill="#209586" r="146.436" data-original="#655e67" style="" class=""/></g></g><g><g><circle cx="256" cy="256" fill="#ededed" r="115.888" data-original="#e8e8e8" style="" class=""/></g></g><g><g><path d="m256 140.112c-5.083 0-10.089.33-15 .965 56.917 7.356 100.888 56.003 100.888 114.923s-43.971 107.567-100.888 114.924c4.911.635 9.917.965 15 .965 64.004 0 115.888-51.885 115.888-115.888s-51.885-115.889-115.888-115.889z" fill="#d9d9d9" data-original="#d9d9d9" style="" class=""/></g></g><g><g><circle cx="256" cy="256" fill="#e3324a" r="30.653" data-original="#8c818f" style="" class=""/></g></g><g><g><circle cx="256" cy="184.727" fill="#ededed" r="13.568" data-original="#e8e8e8" style="" class=""/></g></g><g><g><circle cx="306.397" cy="205.602" fill="#ededed" r="13.568" data-original="#e8e8e8" style="" class=""/></g></g><g><g><circle cx="327.273" cy="256" fill="#ededed" r="13.568" data-original="#e8e8e8" style="" class=""/></g></g><g><g><circle cx="306.397" cy="306.398" fill="#ededed" r="13.568" data-original="#e8e8e8" style="" class=""/></g></g><g><g><circle cx="256" cy="327.273" fill="#ededed" r="13.568" data-original="#e8e8e8" style="" class=""/></g></g><g><g><circle cx="205.602" cy="306.398" fill="#ededed" r="13.568" data-original="#e8e8e8" style="" class=""/></g></g><g><g><circle cx="184.727" cy="256" fill="#ededed" r="13.568" data-original="#e8e8e8" style="" class=""/></g></g><g><g><circle cx="205.602" cy="205.602" fill="#ededed" r="13.568" data-original="#e8e8e8" style="" class=""/></g></g><g><path d="m256 409.936c84.881 0 153.936-69.056 153.936-153.936 0-84.881-69.056-153.936-153.936-153.936s-153.937 69.055-153.937 153.936 69.056 153.936 153.937 153.936zm0-292.872c76.609 0 138.936 62.327 138.936 138.936 0 76.61-62.327 138.936-138.936 138.936-76.61 0-138.936-62.327-138.936-138.936-.001-76.61 62.326-138.936 138.936-138.936z" fill="#6c6c6c" data-original="#000000" style="" class=""/><path d="m256 379.388c18.004 0 35.362-3.793 51.594-11.274 3.762-1.734 5.405-6.189 3.672-9.951-1.734-3.762-6.189-5.406-9.951-3.672-14.248 6.567-29.494 9.896-45.314 9.896-59.766 0-108.389-48.623-108.389-108.388s48.623-108.388 108.389-108.388 108.387 48.624 108.387 108.389c0 32.793-14.615 63.474-40.099 84.175-3.216 2.612-3.704 7.335-1.093 10.55s7.335 3.705 10.55 1.093c29.006-23.562 45.642-58.486 45.642-95.818 0-68.036-55.352-123.388-123.388-123.388-68.037 0-123.389 55.352-123.389 123.388 0 68.037 55.352 123.388 123.389 123.388z" fill="#6c6c6c" data-original="#000000" style="" class=""/><path d="m294.153 256c0-21.038-17.115-38.153-38.153-38.153s-38.154 17.115-38.154 38.153 17.116 38.154 38.154 38.154 38.153-17.116 38.153-38.154zm-38.153 23.154c-12.767 0-23.154-10.387-23.154-23.154s10.387-23.153 23.154-23.153 23.153 10.386 23.153 23.153-10.386 23.154-23.153 23.154z" fill="#6c6c6c" data-original="#000000" style="" class=""/><path d="m511.816 265.291c.109-3.089.184-6.184.184-9.291 0-68.38-26.629-132.667-74.98-181.019-48.353-48.352-112.64-74.981-181.02-74.981-44.802 0-88.892 11.744-127.503 33.963-3.59 2.066-4.826 6.651-2.76 10.241s6.651 4.825 10.241 2.76c8.28-4.764 16.83-9.011 25.592-12.738l8.168 21.594c1.111 2.937 3.903 4.745 6.867 4.745.863 0 1.74-.153 2.595-.477 3.792-1.434 5.703-5.671 4.269-9.462l-8.222-21.735c25.788-9.148 53.125-13.891 80.753-13.891.51 0 1.018.015 1.529.019l-.816 21.74c-.154 4.093 3.04 7.535 7.133 7.688.095.004.189.005.283.005 3.967 0 7.255-3.14 7.406-7.137l.817-21.758c26.396 1.757 51.968 7.745 75.916 17.663l-9.02 19.995c-1.684 3.733-.022 8.125 3.711 9.809.99.447 2.026.658 3.045.658 2.825 0 5.526-1.625 6.764-4.368l9.012-19.978c23.646 11.569 45.473 27.09 64.634 46.251.365.365.718.74 1.081 1.108l-15.999 14.842c-3.003 2.785-3.179 7.477-.393 10.48 1.461 1.575 3.446 2.372 5.438 2.372 1.805 0 3.614-.655 5.041-1.979l16.011-14.853c17.427 19.915 31.276 42.24 41.196 66.197l-20.569 7.78c-3.83 1.449-5.761 5.729-4.312 9.56 1.122 2.967 3.942 4.794 6.936 4.794.872 0 1.759-.155 2.623-.482l20.549-7.773c8.53 24.888 12.984 51.284 12.984 78.367 0 .513-.016 1.022-.019 1.534l-19.258-.722c-4.124-.154-7.62 3.075-7.776 7.214-.155 4.139 3.075 7.62 7.214 7.776l19.271.723c-1.802 26.787-7.975 52.719-18.178 76.968-.075-.037-.145-.079-.222-.114l-23.999-10.826c-3.697-1.666-8.042-.022-9.709 3.673s-.022 8.042 3.673 9.709l23.999 10.826c.052.024.106.039.158.061-11.514 23.245-26.863 44.712-45.742 63.591-.873.873-1.762 1.724-2.645 2.582l-17.562-18.931c-2.755-2.971-7.4-3.147-10.372-.389-2.972 2.757-3.146 7.401-.389 10.373l17.498 18.862c-20.212 17.397-42.87 31.121-67.147 40.859l-8.873-23.457c-1.434-3.792-5.673-5.702-9.462-4.268-3.791 1.434-5.703 5.671-4.268 9.462l8.821 23.319c-24.196 8.011-49.784 12.175-76.013 12.175-1.456 0-2.908-.027-4.36-.053l.896-23.89c.152-4.051-3.009-7.458-7.059-7.61-4.047-.156-7.458 3.009-7.61 7.06l-.891 23.747c-26.32-2.042-51.783-8.318-75.605-18.487l9.473-20.998c1.667-3.695.023-8.042-3.672-9.709s-8.042-.023-9.709 3.672l-9.415 20.87c-22.813-11.45-43.887-26.616-62.461-45.19-.818-.818-1.614-1.651-2.418-2.478l16.164-14.995c2.972-2.757 3.146-7.401.39-10.373-2.757-2.972-7.401-3.146-10.373-.389l-16.108 14.943c-17.106-19.835-30.675-42.031-40.402-65.806l20.245-7.658c3.792-1.434 5.703-5.671 4.269-9.462s-5.67-5.702-9.462-4.268l-20.184 7.635c-8.351-24.652-12.708-50.77-12.708-77.561 0-.511.019-1.018.022-1.529l21.318.8c.094.004.187.005.28.005 3.927 0 7.182-3.108 7.33-7.065.152-4.051-3.009-7.458-7.059-7.61l-21.343-.801c1.7-26.015 7.515-51.164 17.362-75.117l19.719 8.895c.98.442 2.005.651 3.014.651 2.797 0 5.47-1.608 6.695-4.324 1.667-3.695.023-8.042-3.672-9.709l-19.762-8.915c.604-1.248 1.195-2.5 1.821-3.74 11.458-22.696 26.656-43.617 44.674-61.709l15.06 16.234c1.447 1.559 3.412 2.348 5.383 2.348 1.786 0 3.577-.648 4.99-1.959 2.972-2.757 3.146-7.401.39-10.373l-15.15-16.331c4.374-3.89 8.872-7.638 13.515-11.194 3.289-2.519 3.912-7.226 1.394-10.515-2.519-3.289-7.227-3.911-10.515-1.393-30.549 23.4-55.836 53.876-73.13 88.132-18.14 35.929-27.336 74.694-27.336 115.219 0 68.38 26.628 132.667 74.98 181.02 48.352 48.351 112.64 74.98 181.02 74.98s132.667-26.629 181.02-74.98c46.012-46.012 72.333-106.457 74.775-171.125.008-.1.022-.198.026-.299.003-.103-.004-.203-.005-.305z" fill="#6c6c6c" data-original="#000000" style="" class=""/><path d="m277.067 184.727c0-11.617-9.451-21.068-21.067-21.068-11.617 0-21.068 9.451-21.068 21.068s9.451 21.068 21.068 21.068c11.616 0 21.067-9.451 21.067-21.068zm-27.135 0c0-3.346 2.722-6.068 6.068-6.068s6.067 2.722 6.067 6.068-2.722 6.068-6.067 6.068-6.068-2.722-6.068-6.068z" fill="#6c6c6c" data-original="#000000" style="" class=""/><path d="m291.501 190.705c-3.979 3.979-6.171 9.27-6.171 14.897s2.191 10.918 6.171 14.897c4.106 4.107 9.502 6.16 14.896 6.16 5.395 0 10.79-2.053 14.896-6.16 3.979-3.979 6.171-9.27 6.171-14.897 0-5.628-2.191-10.918-6.171-14.897-8.212-8.214-21.579-8.214-29.792 0zm19.188 19.188c-2.367 2.366-6.215 2.365-8.582 0-1.146-1.146-1.776-2.67-1.776-4.29 0-1.621.631-3.145 1.776-4.29 1.184-1.183 2.737-1.774 4.291-1.774s3.107.592 4.291 1.774c1.146 1.146 1.776 2.67 1.776 4.29s-.631 3.144-1.776 4.29z" fill="#6c6c6c" data-original="#000000" style="" class=""/><path d="m306.205 256c0 11.617 9.451 21.068 21.067 21.068 11.617 0 21.068-9.451 21.068-21.068s-9.451-21.068-21.068-21.068c-11.616 0-21.067 9.451-21.067 21.068zm21.067-6.068c3.346 0 6.068 2.722 6.068 6.068s-2.723 6.068-6.068 6.068-6.067-2.722-6.067-6.068 2.722-6.068 6.067-6.068z" fill="#6c6c6c" data-original="#000000" style="" class=""/><path d="m306.397 327.455c5.395 0 10.79-2.053 14.896-6.16 3.979-3.979 6.171-9.27 6.171-14.897 0-5.628-2.191-10.918-6.171-14.897-8.213-8.214-21.58-8.214-29.793 0-3.979 3.979-6.171 9.27-6.171 14.897s2.191 10.918 6.171 14.897c4.107 4.107 9.503 6.16 14.897 6.16zm-4.291-25.348c1.184-1.183 2.737-1.774 4.291-1.774s3.107.591 4.291 1.774c1.146 1.146 1.776 2.67 1.776 4.29s-.631 3.144-1.776 4.29c-2.367 2.366-6.215 2.366-8.582 0-1.146-1.146-1.776-2.67-1.776-4.29s.631-3.144 1.776-4.29z" fill="#6c6c6c" data-original="#000000" style="" class=""/><path d="m234.932 327.273c0 11.617 9.451 21.068 21.068 21.068 11.616 0 21.067-9.451 21.067-21.068s-9.451-21.068-21.067-21.068c-11.617 0-21.068 9.451-21.068 21.068zm27.135 0c0 3.346-2.722 6.068-6.067 6.068s-6.068-2.722-6.068-6.068 2.722-6.068 6.068-6.068 6.067 2.722 6.067 6.068z" fill="#6c6c6c" data-original="#000000" style="" class=""/><path d="m205.602 327.465c5.628 0 10.918-2.191 14.897-6.17 3.98-3.979 6.171-9.27 6.171-14.897 0-5.628-2.191-10.918-6.171-14.897-3.979-3.979-9.269-6.171-14.897-6.171-5.627 0-10.918 2.191-14.897 6.171-8.214 8.214-8.214 21.58 0 29.794 3.979 3.979 9.27 6.17 14.897 6.17zm-4.291-25.358c1.146-1.146 2.67-1.777 4.291-1.777s3.145.631 4.291 1.777 1.777 2.67 1.777 4.29-.631 3.144-1.777 4.29-2.67 1.777-4.291 1.777-3.145-.631-4.291-1.777c-2.365-2.364-2.365-6.214 0-8.58z" fill="#6c6c6c" data-original="#000000" style="" class=""/><path d="m163.659 256c0 11.617 9.451 21.068 21.067 21.068 11.617 0 21.068-9.451 21.068-21.068s-9.451-21.068-21.068-21.068c-11.616 0-21.067 9.451-21.067 21.068zm21.068-6.068c3.346 0 6.068 2.722 6.068 6.068s-2.722 6.068-6.068 6.068-6.067-2.722-6.067-6.068c-.001-3.346 2.721-6.068 6.067-6.068z" fill="#6c6c6c" data-original="#000000" style="" class=""/><path d="m190.705 190.705c-8.214 8.214-8.214 21.58 0 29.794 3.979 3.979 9.27 6.17 14.897 6.17 5.628 0 10.918-2.191 14.897-6.17 3.98-3.979 6.171-9.27 6.171-14.897 0-5.628-2.191-10.918-6.171-14.897-3.979-3.979-9.269-6.171-14.897-6.171-5.627.001-10.918 2.192-14.897 6.171zm20.965 14.897c0 1.621-.631 3.144-1.777 4.291-1.146 1.146-2.67 1.777-4.291 1.777s-3.145-.631-4.291-1.777c-2.366-2.366-2.366-6.215 0-8.581 1.146-1.146 2.67-1.777 4.291-1.777s3.145.631 4.291 1.777c1.146 1.146 1.777 2.67 1.777 4.29z" fill="#6c6c6c" data-original="#000000" style="" class=""/></g></g></g></svg>
