<?xml version="1.0"?>
<svg xmlns="http://www.w3.org/2000/svg" xmlns:xlink="http://www.w3.org/1999/xlink" xmlns:svgjs="http://svgjs.com/svgjs" version="1.1" width="512" height="512" x="0" y="0" viewBox="0 0 512 512" style="enable-background:new 0 0 512 512" xml:space="preserve" class=""><g>
<circle xmlns="http://www.w3.org/2000/svg" style="" cx="256" cy="256" r="247.467" fill="#e3324a" data-original="#91cece" class=""/>
<circle xmlns="http://www.w3.org/2000/svg" style="" cx="256" cy="256" r="213.333" fill="#f1f1f1" data-original="#ffd33f" class=""/>
<path xmlns="http://www.w3.org/2000/svg" style="" d="M398.054,96.879c78.259,88.073,70.306,222.916-17.766,301.175  c-80.819,71.817-202.59,71.817-283.409,0c78.259,88.073,213.103,96.026,301.175,17.766s96.026-213.103,17.766-301.175  C410.249,108.382,404.318,102.443,398.054,96.879z" fill="#ffffff" data-original="#ffac3e" class=""/>
<path xmlns="http://www.w3.org/2000/svg" style="" d="M221.867,349.867h68.267c18.85,0,34.133,15.283,34.133,34.133l0,0  c0,18.85-15.283,34.133-34.133,34.133h-68.267c-18.85,0-34.133-15.283-34.133-34.133l0,0  C187.733,365.15,203.017,349.867,221.867,349.867z" fill="#209586" data-original="#ea3836" class=""/>
<path xmlns="http://www.w3.org/2000/svg" style="" d="M230.4,358.4h68.267c6.963,0,13.756,2.142,19.465,6.135c-6.366-9.182-16.828-14.669-27.998-14.669  h-68.267c-18.85,0.043-34.099,15.351-34.065,34.202c0.026,11.128,5.47,21.547,14.601,27.921  c-10.778-15.437-6.997-36.685,8.439-47.454C216.576,360.533,223.403,358.391,230.4,358.4z" fill="#d62121" data-original="#d62121" class=""/>
<path xmlns="http://www.w3.org/2000/svg" d="M238.933,375.467h-17.067c-4.71,0-8.533,3.823-8.533,8.533s3.823,8.533,8.533,8.533h17.067c4.71,0,8.533-3.823,8.533-8.533  S243.644,375.467,238.933,375.467z" fill="#6c6c6c" data-original="#000000" style="" class=""/>
<path xmlns="http://www.w3.org/2000/svg" d="M290.133,375.467h-17.067c-4.71,0-8.533,3.823-8.533,8.533s3.823,8.533,8.533,8.533h17.067c4.71,0,8.533-3.823,8.533-8.533  S294.844,375.467,290.133,375.467z" fill="#6c6c6c" data-original="#000000" style="" class=""/>
<path xmlns="http://www.w3.org/2000/svg" d="M396.501,292.258c19.985-77.585-26.709-156.681-104.294-176.666s-156.681,26.709-176.666,104.294  c-9.472,36.762-4.156,75.759,14.805,108.646c2.483,4.011,7.74,5.248,11.75,2.765c3.84-2.372,5.163-7.33,3.021-11.298  c-35.302-61.244-14.276-139.511,46.967-174.822s139.511-14.276,174.822,46.967c16.725,29.013,21.41,63.428,13.056,95.863  c-1.178,4.565,1.57,9.225,6.135,10.402c4.565,1.178,9.225-1.57,10.402-6.135L396.501,292.258L396.501,292.258z" fill="#6c6c6c" data-original="#000000" style="" class=""/>
<g xmlns="http://www.w3.org/2000/svg">
	<rect x="59.733" y="247.467" style="" width="34.133" height="17.067" fill="#209586" data-original="#ea3836" class=""/>
	<rect x="418.133" y="247.467" style="" width="34.133" height="17.067" fill="#209586" data-original="#ea3836" class=""/>
	
		<rect x="83.73" y="337.081" transform="matrix(-0.8661 0.4999 -0.4999 -0.8661 360.867 594.5595)" style="" width="34.134" height="17.067" fill="#209586" data-original="#ea3836" class=""/>
	
		<rect x="394.158" y="157.865" transform="matrix(-0.8661 0.4999 -0.4999 -0.8661 850.5626 104.945)" style="" width="34.134" height="17.067" fill="#209586" data-original="#ea3836" class=""/>
	
		<rect x="92.273" y="149.331" transform="matrix(-0.4999 0.8661 -0.8661 -0.4999 295.3146 162.2724)" style="" width="17.067" height="34.134" fill="#209586" data-original="#ea3836" class=""/>
	
		<rect x="402.672" y="328.5" transform="matrix(-0.4999 0.8661 -0.8661 -0.4999 916.0544 162.1734)" style="" width="17.067" height="34.134" fill="#209586" data-original="#ea3836" class=""/>
	
		<rect x="157.869" y="83.748" transform="matrix(-0.8661 0.4999 -0.4999 -0.8661 360.9176 104.9452)" style="" width="17.067" height="34.134" fill="#209586" data-original="#ea3836" class=""/>
	<rect x="247.467" y="59.733" style="" width="17.067" height="34.133" fill="#209586" data-original="#ea3836" class=""/>
	
		<rect x="328.509" y="92.256" transform="matrix(-0.4999 0.8661 -0.8661 -0.4999 605.6195 -148.1256)" style="" width="34.134" height="17.067" fill="#209586" data-original="#ea3836" class=""/>
	
		<rect x="70.249" y="195.718" transform="matrix(-0.2588 0.9659 -0.9659 -0.2588 300.5843 186.3854)" style="" width="17.066" height="25.599" fill="#209586" data-original="#ea3836" class=""/>
	
		<rect x="424.701" y="290.728" transform="matrix(-0.2588 0.9659 -0.9659 -0.2588 838.5442 -36.3896)" style="" width="17.066" height="25.599" fill="#209586" data-original="#ea3836" class=""/>
	
		<rect x="117.74" y="113.462" transform="matrix(-0.7071 0.7071 -0.7071 -0.7071 304.8421 126.2537)" style="" width="17.067" height="25.6" fill="#209586" data-original="#ea3836" class=""/>
	
		<rect x="199.973" y="65.992" transform="matrix(-0.9659 0.2588 -0.2588 -0.9659 430.2993 100.9356)" style="" width="17.066" height="25.599" fill="#209586" data-original="#ea3836" class=""/>
	
		<rect x="290.664" y="70.333" transform="matrix(-0.2588 0.9659 -0.9659 -0.2588 458.1806 -193.8468)" style="" width="25.599" height="17.066" fill="#209586" data-original="#ea3836" class=""/>
	
		<rect x="372.932" y="117.759" transform="matrix(-0.7071 0.7071 -0.7071 -0.7071 747.7886 -57.1589)" style="" width="25.6" height="17.067" fill="#209586" data-original="#ea3836" class=""/>
	
		<rect x="420.425" y="199.975" transform="matrix(-0.9659 0.2588 -0.2588 -0.9659 905.6524 297.7893)" style="" width="25.599" height="17.066" fill="#209586" data-original="#ea3836" class=""/>
	
		<rect x="65.983" y="294.953" transform="matrix(-0.9659 0.2588 -0.2588 -0.9659 233.4261 576.2417)" style="" width="25.599" height="17.066" fill="#209586" data-original="#ea3836" class=""/>
	<path style="" d="M279.381,245.649c5.751,12.877-0.034,27.981-12.911,33.732c-3.294,1.468-6.861,2.227-10.47,2.219   l119.467,42.667L279.381,245.649z" fill="#209586" data-original="#ea3836" class=""/>
</g>
<polygon xmlns="http://www.w3.org/2000/svg" style="" points="256,281.6 375.467,324.267 264.533,273.732 " fill="#d62121" data-original="#d62121" class=""/>
<circle xmlns="http://www.w3.org/2000/svg" style="" cx="256" cy="256" r="25.6" fill="#e3324a" data-original="#383856" class=""/>
<path xmlns="http://www.w3.org/2000/svg" style="" d="M269.261,234.206c2.475,3.985,3.789,8.576,3.806,13.261c0,14.14-11.46,25.6-25.6,25.6  c-4.685-0.017-9.276-1.331-13.261-3.806c7.287,12.066,22.989,15.94,35.055,8.653c12.066-7.287,15.94-22.989,8.653-35.055  C275.772,239.317,272.802,236.348,269.261,234.206z" fill="#ffffff" data-original="#202033" class=""/>
<g xmlns="http://www.w3.org/2000/svg">
	<path style="" d="M450.688,264.533h1.579v-17.067h-0.213C451.823,253.218,451.354,258.91,450.688,264.533z" fill="#d62121" data-original="#d62121" class=""/>
	<path style="" d="M421.709,361.523l8.533-14.78l-5.436-3.14c-2.807,4.966-5.76,9.839-8.934,14.507L421.709,361.523z" fill="#d62121" data-original="#d62121" class=""/>
	<path style="" d="M443.366,315.042l4.42-16.486l-3.746-0.998c-1.57,5.504-3.319,10.931-5.316,16.213L443.366,315.042z   " fill="#d62121" data-original="#d62121" class=""/>
</g>
<path xmlns="http://www.w3.org/2000/svg" d="M256,0C114.611,0,0,114.611,0,256s114.611,256,256,256s256-114.611,256-256C511.838,114.679,397.321,0.162,256,0z   M256,494.933C124.041,494.933,17.067,387.96,17.067,256S124.041,17.067,256,17.067S494.933,124.041,494.933,256  C494.78,387.9,387.9,494.78,256,494.933z" fill="#6c6c6c" data-original="#000000" style="" class=""/>
<path xmlns="http://www.w3.org/2000/svg" d="M256,34.133C133.47,34.133,34.133,133.47,34.133,256S133.47,477.867,256,477.867S477.867,378.53,477.867,256  C477.73,133.521,378.479,34.27,256,34.133z M256,460.8c-113.109,0-204.8-91.691-204.8-204.8S142.891,51.2,256,51.2  S460.8,142.891,460.8,256C460.672,369.05,369.05,460.672,256,460.8z" fill="#6c6c6c" data-original="#000000" style="" class=""/>
<path xmlns="http://www.w3.org/2000/svg" d="M287.002,240.862c-0.256-0.154-0.521-0.299-0.794-0.427c-8.567-16.734-29.073-23.356-45.807-14.788  c-16.734,8.567-23.356,29.073-14.788,45.807c5.504,10.752,16.29,17.783,28.348,18.475l118.613,42.368  c0.93,0.341,1.911,0.512,2.901,0.503c4.71,0,8.533-3.823,8.533-8.533c0-2.56-1.152-4.983-3.132-6.605L287.002,240.862z M238.933,256  c0-9.429,7.637-17.067,17.067-17.067c9.429,0,17.067,7.637,17.067,17.067c0,9.429-7.637,17.067-17.067,17.067  C246.571,273.067,238.933,265.429,238.933,256z M279.253,280.849c4.719-4.42,8.073-10.095,9.677-16.358l43.017,35.149  L279.253,280.849z" fill="#6c6c6c" data-original="#000000" style="" class=""/>
<path xmlns="http://www.w3.org/2000/svg" d="M290.133,341.333h-68.267c-23.561,0-42.667,19.106-42.667,42.667s19.106,42.667,42.667,42.667h68.267  c23.561,0,42.667-19.106,42.667-42.667S313.694,341.333,290.133,341.333z M290.133,409.6h-68.267c-14.14,0-25.6-11.46-25.6-25.6  c0-14.14,11.46-25.6,25.6-25.6h68.267c14.14,0,25.6,11.46,25.6,25.6C315.733,398.14,304.273,409.6,290.133,409.6z" fill="#6c6c6c" data-original="#000000" style="" class=""/>
<g xmlns="http://www.w3.org/2000/svg">
</g>
<g xmlns="http://www.w3.org/2000/svg">
</g>
<g xmlns="http://www.w3.org/2000/svg">
</g>
<g xmlns="http://www.w3.org/2000/svg">
</g>
<g xmlns="http://www.w3.org/2000/svg">
</g>
<g xmlns="http://www.w3.org/2000/svg">
</g>
<g xmlns="http://www.w3.org/2000/svg">
</g>
<g xmlns="http://www.w3.org/2000/svg">
</g>
<g xmlns="http://www.w3.org/2000/svg">
</g>
<g xmlns="http://www.w3.org/2000/svg">
</g>
<g xmlns="http://www.w3.org/2000/svg">
</g>
<g xmlns="http://www.w3.org/2000/svg">
</g>
<g xmlns="http://www.w3.org/2000/svg">
</g>
<g xmlns="http://www.w3.org/2000/svg">
</g>
<g xmlns="http://www.w3.org/2000/svg">
</g>
</g></svg>
