<?xml version="1.0"?>
<svg xmlns="http://www.w3.org/2000/svg" xmlns:xlink="http://www.w3.org/1999/xlink" xmlns:svgjs="http://svgjs.com/svgjs" version="1.1" width="512" height="512" x="0" y="0" viewBox="0 0 593.282 593.282" style="enable-background:new 0 0 512 512" xml:space="preserve" class=""><g>
<g xmlns="http://www.w3.org/2000/svg">
	<g>
		<g id="filled_outline_15_">
			<path style="" d="M444.961,256.993l67.802-67.802l-24.137-4.024c-116.254-19.381-235.642,0.188-339.634,55.65     l-30.336,16.177H444.961z" fill="#e7e7e7" data-original="#69ccd7" class=""/>
			<path style="" d="M417.997,178.244l-131.244,78.748h158.209l67.802-67.802l-24.137-4.024     C465.262,181.3,441.669,178.986,417.997,178.244z" fill="#e7e7e7" data-original="#61bdc7" class=""/>
			<path style="" d="M553.73,217.441l9.888-19.776l-50.854-8.474l-67.802,67.802H118.656l-45.821,10.185     c-27.311,6.071-50.429,24.127-62.947,49.143v69.216h524.066l49.44-29.664v-88.992L553.73,217.441z" fill="#e3324a" data-original="#4394cc" class=""/>
			<polygon style="" points="9.888,326.209 9.888,385.537 529.781,385.537 533.954,385.537 583.394,355.873      583.394,326.209    " fill="#ffffff" data-original="#3e89bd" class=""/>
			<path style="" d="M108.768,306.433c-32.7,0.069-59.16,26.628-59.091,59.328c0.069,32.7,26.628,59.16,59.328,59.091     c32.611-0.069,59.022-26.48,59.091-59.091C168.097,333.002,141.537,306.433,108.768,306.433z" fill="#209586" data-original="#697b8c" class=""/>
			<path style="" d="M108.768,345.985c-10.926,0-19.776,8.85-19.776,19.776c0,2.729,0.574,5.419,1.671,7.91     c4.39,9.997,16.058,14.545,26.065,10.145c4.539-1.997,8.158-5.616,10.145-10.145c1.098-2.492,1.671-5.181,1.671-7.91     C128.544,354.845,119.695,345.985,108.768,345.985z" fill="#d0d7df" data-original="#d0d7df" class=""/>
			<polygon style="" points="543.842,306.433 583.394,306.433 583.394,266.881 514.178,266.881    " fill="#ffffff" data-original="#dd381a" class=""/>
			<path style="" d="M484.514,306.433c-32.7,0.069-59.16,26.628-59.091,59.328s26.628,59.16,59.328,59.091     c32.611-0.069,59.022-26.48,59.091-59.091C543.842,333.002,517.283,306.433,484.514,306.433z" fill="#209586" data-original="#697b8c" class=""/>
			<path style="" d="M484.514,345.985c-10.926,0-19.776,8.85-19.776,19.776c0,2.729,0.573,5.419,1.671,7.91     c4.39,9.997,16.058,14.545,26.065,10.145c4.539-1.997,8.158-5.616,10.145-10.145c1.098-2.492,1.671-5.181,1.671-7.91     C504.29,354.845,495.44,345.985,484.514,345.985z" fill="#d0d7df" data-original="#d0d7df" class=""/>
			<path d="M9.888,395.425h47.68c16.216,28.28,52.288,38.059,80.558,21.843c9.087-5.211,16.622-12.746,21.843-21.843h273.345     c16.206,28.28,52.268,38.059,80.548,21.843c9.176-5.26,16.78-12.894,21.991-22.1c1.127-0.198,2.205-0.583,3.194-1.157     l49.44-29.664c2.976-1.78,4.796-5.003,4.796-8.474v-88.992c-0.03-1.167-0.257-2.314-0.692-3.401     c-0.109-0.297-0.227-0.574-0.366-0.86s-0.198-0.564-0.356-0.831l-26.866-44.783l7.465-14.921     c2.442-4.885,0.455-10.827-4.43-13.26c-0.88-0.435-1.819-0.742-2.788-0.91l-50.854-8.484l-24.137-4.015     c-118.389-19.41-239.884,0.494-345.893,56.668l-29.15,15.554l-44.496,9.888c-30.247,6.655-55.857,26.658-69.651,54.384     c-0.692,1.374-1.058,2.877-1.068,4.41v69.216C0,391.005,4.43,395.425,9.888,395.425z M144.978,381.582L144.978,381.582     c-8.781,19.944-32.067,29.002-52.011,20.231c-19.944-8.771-29.002-32.067-20.231-52.011s32.067-29.002,52.011-20.231     c14.348,6.309,23.603,20.518,23.573,36.19C148.301,371.209,147.164,376.598,144.978,381.582L144.978,381.582z M520.724,381.582     L520.724,381.582c-8.781,19.944-32.067,29.002-52.011,20.231c-19.944-8.771-29.002-32.067-20.231-52.011     s32.067-29.002,52.011-20.231c14.348,6.309,23.603,20.518,23.573,36.19C524.046,371.209,522.909,376.598,520.724,381.582     L520.724,381.582z M573.506,296.545h-24.72l-14.832-19.776h39.552V296.545z M374.302,188.765     c37.683-2.017,75.485,0.059,112.724,6.2l5.191,0.87l-51.349,51.269h-74.912L374.302,188.765z M444.961,266.881     c2.62,0,5.142-1.038,6.991-2.897l64.203-64.213l32.631,5.448l-3.955,7.802c-1.513,3.026-1.365,6.615,0.376,9.512l20.725,34.46     h-51.754c-5.458,0-9.888,4.43-9.888,9.888c0,2.136,0.692,4.222,1.978,5.933l29.664,39.552c1.869,2.492,4.796,3.955,7.91,3.955     h29.664v33.956l-29.664,17.828c0-0.781,0.049-1.562,0.049-2.343c0-32.769-26.559-59.328-59.328-59.328     s-59.328,26.559-59.328,59.328c0.02,2.966,0.277,5.913,0.751,8.84c0.049,0.346,0,0.702,0.079,1.048h-78.471l15.534-108.768     C363.128,266.881,444.961,266.881,444.961,266.881z M354.12,190.15l-8.138,56.955H158.258     C219.218,215.572,285.754,196.221,354.12,190.15z M19.776,336.097h19.776v-19.776H21.23     c11.569-20.142,31.078-34.48,53.751-39.493l44.763-9.947h223.371L327.62,375.649H167.266c0-0.346,0-0.702,0.079-1.048     c0.475-2.927,0.722-5.883,0.751-8.84c0-32.769-26.559-59.328-59.328-59.328S49.44,332.992,49.44,365.761     c0.02,2.966,0.277,5.913,0.751,8.84c0.049,0.346,0,0.702,0.079,1.048H19.776V336.097z" fill="#6c6c6c" data-original="#000000" style="" class=""/>
			<rect x="257.089" y="286.657" width="39.552" height="19.776" fill="#6c6c6c" data-original="#000000" style="" class=""/>
		</g>
	</g>
</g>
<g xmlns="http://www.w3.org/2000/svg">
</g>
<g xmlns="http://www.w3.org/2000/svg">
</g>
<g xmlns="http://www.w3.org/2000/svg">
</g>
<g xmlns="http://www.w3.org/2000/svg">
</g>
<g xmlns="http://www.w3.org/2000/svg">
</g>
<g xmlns="http://www.w3.org/2000/svg">
</g>
<g xmlns="http://www.w3.org/2000/svg">
</g>
<g xmlns="http://www.w3.org/2000/svg">
</g>
<g xmlns="http://www.w3.org/2000/svg">
</g>
<g xmlns="http://www.w3.org/2000/svg">
</g>
<g xmlns="http://www.w3.org/2000/svg">
</g>
<g xmlns="http://www.w3.org/2000/svg">
</g>
<g xmlns="http://www.w3.org/2000/svg">
</g>
<g xmlns="http://www.w3.org/2000/svg">
</g>
<g xmlns="http://www.w3.org/2000/svg">
</g>
</g></svg>
