<?xml version="1.0"?>
<svg xmlns="http://www.w3.org/2000/svg" xmlns:xlink="http://www.w3.org/1999/xlink" xmlns:svgjs="http://svgjs.com/svgjs" version="1.1" width="512" height="512" x="0" y="0" viewBox="0 0 512 512" style="enable-background:new 0 0 512 512" xml:space="preserve" class=""><g><path xmlns="http://www.w3.org/2000/svg" d="m350.265 311.432h-188.53c-34.465 0-62.405 27.94-62.405 62.405v68.259c0 34.465 27.94 62.405 62.405 62.405h188.531c34.465 0 62.405-27.94 62.405-62.405v-68.259c-.001-34.466-27.941-62.405-62.406-62.405z" fill="#e3324a" data-original="#544f57" style="" class=""/><path xmlns="http://www.w3.org/2000/svg" d="m325.388 303.165h-138.776c-25.37 0-45.936 20.566-45.936 45.936v50.245c0 25.37 20.566 45.936 45.936 45.936h138.776c25.37 0 45.936-20.566 45.936-45.936v-50.245c0-25.37-20.566-45.936-45.936-45.936z" fill="#e3e1e3" data-original="#665e66" style="" class=""/><path xmlns="http://www.w3.org/2000/svg" d="m305.126 294.898h-98.251c-17.961 0-32.522 14.56-32.522 32.522v35.573c0 17.961 14.56 32.522 32.522 32.522h98.251c17.961 0 32.522-14.56 32.522-32.522v-35.573c-.001-17.961-14.561-32.522-32.522-32.522z" fill="#e3324a" data-original="#756e78" style="" class=""/><path xmlns="http://www.w3.org/2000/svg" d="m256 366.727c-20.386 0-36.912-16.526-36.912-36.912v-196.532h73.824v196.532c0 20.386-16.526 36.912-36.912 36.912z" fill="#e2dfe2" data-original="#e2dfe2" style="" class=""/><path xmlns="http://www.w3.org/2000/svg" d="m269.338 364.25c-4.14 1.6-8.63 2.48-13.34 2.48-20.39 0-36.91-16.53-36.91-36.91v-196.54h26.67v196.54c0 15.68 9.78 29.08 23.58 34.43z" fill="#fdfdfd" data-original="#cbcbcb" style="" class=""/><circle xmlns="http://www.w3.org/2000/svg" cx="256" cy="93.337" fill="#209586" r="85.837" data-original="#6bbcd5" style="" class=""/><path xmlns="http://www.w3.org/2000/svg" d="m278.023 176.31c-7.03 1.87-14.41 2.86-22.02 2.86-47.41 0-85.84-38.43-85.84-85.83 0-47.41 38.43-85.84 85.84-85.84 7.61 0 14.99.99 22.02 2.86-36.74 9.71-63.82 43.18-63.82 82.98 0 39.79 27.08 73.26 63.82 82.97z" fill="#ffffff" data-original="#5798af" style="" class=""/><path xmlns="http://www.w3.org/2000/svg" d="m400.219 324.937c-12.274-12.538-28.502-19.883-45.918-20.872-7.184-4.594-15.568-7.518-24.635-8.228-6.782-5.281-15.295-8.438-24.536-8.438h-4.72v-111.987c29.118-15.816 48.93-46.674 48.93-82.072 0-21.89-7.736-43.174-21.783-59.928-2.662-3.175-7.393-3.591-10.565-.929-3.174 2.661-3.59 7.392-.929 10.566 11.786 14.059 18.277 31.92 18.277 50.292 0 43.191-35.144 78.33-78.34 78.33-43.197 0-78.34-35.139-78.34-78.33 0-43.198 35.143-78.341 78.34-78.341 13.769 0 27.313 3.622 39.167 10.473 3.586 2.073 8.174.846 10.246-2.74 2.073-3.586.846-8.174-2.74-10.247-14.133-8.168-30.273-12.486-46.673-12.486-51.468 0-93.34 41.872-93.34 93.34 0 35.398 19.812 66.256 48.93 82.072v111.988h-4.72c-9.241 0-17.754 3.157-24.536 8.438-9.067.71-17.451 3.634-24.635 8.228-17.416.989-33.644 8.334-45.918 20.872-12.865 13.14-19.951 30.508-19.951 48.902v68.26c0 38.543 31.357 69.9 69.9 69.9h188.54c38.543 0 69.9-31.357 69.9-69.9v-68.26c0-18.394-7.085-35.762-19.951-48.903zm-144.219-138.267c10.272 0 20.159-1.672 29.41-4.751v147.901c0 16.217-13.193 29.41-29.41 29.41s-29.41-13.193-29.41-29.41v-147.901c9.251 3.079 19.138 4.751 29.41 4.751zm-49.13 115.73h4.72v27.42c0 24.488 19.922 44.41 44.41 44.41s44.41-19.922 44.41-44.41v-27.42h4.72c13.796 0 25.021 11.224 25.021 25.02v35.57c0 13.796-11.225 25.02-25.021 25.02h-98.26c-13.796 0-25.02-11.224-25.02-25.02v-35.57c0-13.796 11.224-25.02 25.02-25.02zm198.3 139.7c0 30.272-24.628 54.9-54.9 54.9h-188.54c-30.272 0-54.9-24.628-54.9-54.9v-68.26c0-14.448 5.565-28.088 15.669-38.409 4.97-5.077 10.766-9.067 17.087-11.854-4.088 7.574-6.407 16.262-6.407 25.523v50.25c0 22.894 14.553 43.228 36.213 50.6.801.272 1.616.402 2.417.402 3.123 0 6.038-1.965 7.1-5.085 1.334-3.921-.762-8.182-4.684-9.517-15.579-5.302-26.046-19.93-26.046-36.4v-50.25c0-14.904 8.321-27.755 20.665-34.138-1.289 3.924-1.995 8.108-1.995 12.458v35.57c0 22.067 17.953 40.02 40.02 40.02h98.26c22.067 0 40.021-17.953 40.021-40.02v-35.57c0-4.349-.707-8.534-1.995-12.458 12.344 6.382 20.665 19.234 20.665 34.138v50.25c0 21.19-17.24 38.43-38.431 38.43h-123.779c-4.142 0-7.5 3.358-7.5 7.5s3.358 7.5 7.5 7.5h123.78c29.462 0 53.431-23.968 53.431-53.43v-50.25c0-9.261-2.319-17.948-6.407-25.523 6.321 2.787 12.117 6.777 17.087 11.854 10.104 10.321 15.669 23.961 15.669 38.409z" fill="#6c6c6c" data-original="#000000" style="" class=""/><path xmlns="http://www.w3.org/2000/svg" d="m295.872 68.375v17.462h-16.581v-17.462c0-4.142-3.357-7.5-7.5-7.5s-7.5 3.358-7.5 7.5v17.462h-16.582v-17.462c0-4.142-3.358-7.5-7.5-7.5s-7.5 3.358-7.5 7.5v17.462h-16.581v-17.462c0-4.142-3.358-7.5-7.5-7.5s-7.5 3.358-7.5 7.5v24.962c0 4.142 3.358 7.5 7.5 7.5h24.081v17.462c0 4.142 3.358 7.5 7.5 7.5s7.5-3.358 7.5-7.5v-17.462h16.582v17.462c0 4.142 3.357 7.5 7.5 7.5s7.5-3.358 7.5-7.5v-17.462h16.581v17.462c0 4.142 3.357 7.5 7.5 7.5s7.5-3.358 7.5-7.5v-49.924c0-4.142-3.357-7.5-7.5-7.5s-7.5 3.358-7.5 7.5z" fill="#6c6c6c" data-original="#000000" style="" class=""/></g></svg>
